SplineFontDB: 3.0
FontName: BlackOpsOne-Regular
FullName: Black Ops One
FamilyName: Black Ops One
Weight: Regular
Copyright: Copyright (c) 2011, Sorkin Type Co (www.sorkintype.com) with Reserved Font Name "Black Ops" and "Black Ops One".
Version: 1.002
ItalicAngle: 0
UnderlinePosition: -105
UnderlineWidth: 193
Ascent: 1638
Descent: 410
sfntRevision: 0x00010000
LayerCount: 2
Layer: 0 1 "Back"  1
Layer: 1 1 "Fore"  0
XUID: [1021 631 1661839179 6421121]
FSType: 0
OS2Version: 3
OS2_WeightWidthSlopeOnly: 0
OS2_UseTypoMetrics: 1
CreationTime: 1311017700
ModificationTime: 1311005132
PfmFamily: 17
TTFWeight: 400
TTFWidth: 5
LineGap: 0
VLineGap: 0
Panose: 2 0 0 0 0 0 0 0 0 0
OS2TypoAscent: 1766
OS2TypoAOffset: 0
OS2TypoDescent: -446
OS2TypoDOffset: 0
OS2TypoLinegap: 0
OS2WinAscent: 1766
OS2WinAOffset: 0
OS2WinDescent: 446
OS2WinDOffset: 0
HheadAscent: 1766
HheadAOffset: 0
HheadDescent: -446
HheadDOffset: 0
OS2SubXSize: 1434
OS2SubYSize: 1331
OS2SubXOff: 0
OS2SubYOff: 287
OS2SupXSize: 1434
OS2SupYSize: 1331
OS2SupXOff: 0
OS2SupYOff: 977
OS2StrikeYSize: 239
OS2StrikeYPos: 620
OS2Vendor: 'STC '
OS2CodePages: 20000111.40000000
OS2UnicodeRanges: 800000ef.4000200a.00000000.00000000
Lookup: 258 0 0 "'kern' Horizontal Kerning in Latin lookup 0"  {"'kern' Horizontal Kerning in Latin lookup 0 subtable"  } ['kern' ('latn' <'dflt' > ) ]
MarkAttachClasses: 1
DEI: 91125
TtTable: prep
PUSHW_1
 511
SCANCTRL
PUSHB_1
 4
SCANTYPE
EndTTInstrs
ShortTable: maxp 16
  1
  0
  275
  62
  6
  0
  0
  1
  0
  0
  0
  0
  0
  0
  0
  0
EndShort

StartChar: .notdef
Encoding: 65536 -1 0
Width: 1837
Flags: W
LayerCount: 2
Fore
SplineSet
162 1443 m 1,0,-1
 1674 1443 l 1,1,-1
 1674 -168 l 1,2,-1
 162 -168 l 1,3,-1
 162 1443 l 1,0,-1
604 142 m 1,4,-1
 917 457 l 1,5,-1
 1229 142 l 1,6,-1
 1396 312 l 1,7,-1
 1081 623 l 1,8,-1
 1394 933 l 1,9,-1
 1229 1101 l 1,10,-1
 918 786 l 1,11,-1
 607 1102 l 1,12,-1
 442 932 l 1,13,-1
 755 621 l 1,14,-1
 440 310 l 1,15,-1
 604 142 l 1,4,-1
EndSplineSet
EndChar

StartChar: a
Encoding: 97 97 5
Width: 1331
Flags: W
LayerCount: 2
Fore
SplineSet
804 797 m 1,0,-1
 175 797 l 1,1,-1
 175 929 l 1,2,-1
 308 1062 l 1,3,-1
 971 1062 l 1,4,-1
 1236 797 l 1,5,-1
 1236 0 l 1,6,-1
 804 0 l 1,7,-1
 804 797 l 1,0,-1
86 451 m 1,8,-1
 264 628 l 1,9,-1
 734 628 l 1,10,-1
 734 434 l 1,11,-1
 526 434 l 1,12,-1
 526 248 l 1,13,-1
 734 248 l 1,14,-1
 734 131 l 1,15,-1
 602 0 l 1,16,-1
 264 0 l 1,17,-1
 86 175 l 1,18,-1
 86 451 l 1,8,-1
EndSplineSet
EndChar

StartChar: c
Encoding: 99 99 6
Width: 1323
Flags: W
LayerCount: 2
Fore
SplineSet
607 1062 m 1,0,-1
 980 1062 l 1,1,-1
 1245 797 l 1,2,-1
 1245 638 l 1,3,-1
 803 638 l 1,4,-1
 803 797 l 1,5,-1
 607 797 l 1,6,-1
 607 1062 l 1,0,-1
95 797 m 1,7,-1
 360 1062 l 1,8,-1
 537 1062 l 1,9,-1
 537 0 l 1,10,-1
 360 0 l 1,11,-1
 95 265 l 1,12,-1
 95 797 l 1,7,-1
607 248 m 1,13,-1
 803 248 l 1,14,-1
 803 381 l 1,15,-1
 1245 381 l 1,16,-1
 1245 265 l 1,17,-1
 980 0 l 1,18,-1
 607 0 l 1,19,-1
 607 248 l 1,13,-1
EndSplineSet
EndChar

StartChar: d
Encoding: 100 100 7
Width: 1366
Flags: W
LayerCount: 2
Fore
SplineSet
820 1467 m 1,0,-1
 1262 1467 l 1,1,-1
 1262 0 l 1,2,-1
 820 0 l 1,3,-1
 820 1467 l 1,0,-1
95 823 m 1,4,-1
 334 1062 l 1,5,-1
 750 1062 l 1,6,-1
 750 797 l 1,7,-1
 537 797 l 1,8,-1
 537 248 l 1,9,-1
 750 248 l 1,10,-1
 750 105 l 1,11,-1
 645 0 l 1,12,-1
 334 0 l 1,13,-1
 95 239 l 1,14,-1
 95 823 l 1,4,-1
EndSplineSet
EndChar

StartChar: e
Encoding: 101 101 8
Width: 1331
Flags: W
LayerCount: 2
Fore
SplineSet
607 611 m 1,0,-1
 820 611 l 1,1,-1
 820 797 l 1,2,-1
 607 797 l 1,3,-1
 607 1062 l 1,4,-1
 982 1062 l 1,5,-1
 1247 797 l 1,6,-1
 1247 416 l 1,7,-1
 607 416 l 1,8,-1
 607 611 l 1,0,-1
95 797 m 1,9,-1
 360 1062 l 1,10,-1
 537 1062 l 1,11,-1
 537 0 l 1,12,-1
 360 0 l 1,13,-1
 95 265 l 1,14,-1
 95 797 l 1,9,-1
607 248 m 1,15,-1
 1201 248 l 1,16,-1
 1201 133 l 1,17,-1
 1069 0 l 1,18,-1
 607 0 l 1,19,-1
 607 248 l 1,15,-1
EndSplineSet
EndChar

StartChar: f
Encoding: 102 102 9
Width: 907
Flags: W
LayerCount: 2
Fore
SplineSet
143 797 m 1,0,-1
 38 797 l 1,1,-1
 38 1062 l 1,2,-1
 143 1062 l 1,3,-1
 143 1219 l 1,4,-1
 410 1467 l 1,5,-1
 906 1467 l 1,6,-1
 906 1202 l 1,7,-1
 586 1202 l 1,8,-1
 586 0 l 1,9,-1
 143 0 l 1,10,-1
 143 797 l 1,0,-1
656 1062 m 1,11,-1
 906 1062 l 1,12,-1
 906 797 l 1,13,-1
 653 797 l 1,14,-1
 656 1062 l 1,11,-1
EndSplineSet
EndChar

StartChar: g
Encoding: 103 103 10
Width: 1340
Flags: W
LayerCount: 2
Fore
SplineSet
803 -140 m 1,0,-1
 803 797 l 1,1,-1
 607 797 l 1,2,-1
 607 1062 l 1,3,-1
 980 1062 l 1,4,-1
 1245 797 l 1,5,-1
 1245 -105 l 1,6,-1
 980 -372 l 1,7,-1
 397 -372 l 1,8,-1
 264 -238 l 1,9,-1
 264 -140 l 1,10,-1
 803 -140 l 1,0,-1
95 797 m 1,11,-1
 360 1062 l 1,12,-1
 537 1062 l 1,13,-1
 537 248 l 1,14,-1
 733 248 l 1,15,-1
 733 131 l 1,16,-1
 601 0 l 1,17,-1
 360 0 l 1,18,-1
 95 265 l 1,19,-1
 95 797 l 1,11,-1
EndSplineSet
EndChar

StartChar: h
Encoding: 104 104 11
Width: 1349
Flags: W
LayerCount: 2
Fore
SplineSet
104 1467 m 1,0,-1
 546 1467 l 1,1,-1
 546 0 l 1,2,-1
 104 0 l 1,3,-1
 104 1467 l 1,0,-1
811 797 m 1,4,-1
 616 797 l 1,5,-1
 616 931 l 1,6,-1
 746 1062 l 1,7,-1
 988 1062 l 1,8,-1
 1254 797 l 1,9,-1
 1254 0 l 1,10,-1
 811 0 l 1,11,-1
 811 797 l 1,4,-1
EndSplineSet
EndChar

StartChar: i
Encoding: 105 105 12
Width: 653
Flags: W
LayerCount: 2
Fore
SplineSet
105 1476 m 1,0,-1
 548 1476 l 1,1,-1
 548 1194 l 1,2,-1
 105 1194 l 1,3,-1
 105 1476 l 1,0,-1
105 1062 m 1,4,-1
 548 1062 l 1,5,-1
 548 0 l 1,6,-1
 105 0 l 1,7,-1
 105 1062 l 1,4,-1
EndSplineSet
EndChar

StartChar: j
Encoding: 106 106 13
Width: 653
Flags: W
LayerCount: 2
Fore
SplineSet
105 1476 m 1,0,-1
 547 1476 l 1,1,-1
 547 1194 l 1,2,-1
 105 1194 l 1,3,-1
 105 1476 l 1,0,-1
105 -88 m 1,4,-1
 105 1062 l 1,5,-1
 548 1062 l 1,6,-1
 548 -88 l 1,7,-1
 282 -354 l 1,8,-1
 -100 -354 l 1,9,-1
 -100 -88 l 1,10,-1
 105 -88 l 1,4,-1
EndSplineSet
EndChar

StartChar: k
Encoding: 107 107 14
Width: 1312
Flags: W
LayerCount: 2
Fore
SplineSet
104 1467 m 1,0,-1
 546 1467 l 1,1,-1
 546 0 l 1,2,-1
 104 0 l 1,3,-1
 104 1467 l 1,0,-1
615 756 m 1,4,-1
 819 1060 l 1,5,-1
 1276 1061 l 1,6,-1
 615 150 l 1,7,-1
 615 756 l 1,4,-1
1007 566 m 1,8,-1
 1299 0 l 1,9,-1
 819 0 l 1,10,-1
 746 214 l 1,11,-1
 1007 566 l 1,8,-1
EndSplineSet
EndChar

StartChar: l
Encoding: 108 108 15
Width: 753
Flags: W
LayerCount: 2
Fore
SplineSet
104 1467 m 1,0,-1
 546 1467 l 1,1,-1
 546 265 l 1,2,-1
 744 265 l 1,3,-1
 744 0 l 1,4,-1
 352 0 l 1,5,-1
 104 248 l 1,6,-1
 104 1467 l 1,0,-1
EndSplineSet
EndChar

StartChar: m
Encoding: 109 109 16
Width: 2043
Flags: W
LayerCount: 2
Fore
SplineSet
1505 797 m 1,0,-1
 1325 797 l 1,1,-1
 1325 920 l 1,2,-1
 1461 1062 l 1,3,-1
 1731 1062 l 1,4,-1
 1947 844 l 1,5,-1
 1947 0 l 1,6,-1
 1505 0 l 1,7,-1
 1505 797 l 1,0,-1
812 797 m 1,8,-1
 632 797 l 1,9,-1
 632 922 l 1,10,-1
 771 1062 l 1,11,-1
 1113 1062 l 1,12,-1
 1255 920 l 1,13,-1
 1255 0 l 1,14,-1
 812 0 l 1,15,-1
 812 797 l 1,8,-1
119 1062 m 1,16,-1
 562 1062 l 1,17,-1
 562 0 l 1,18,-1
 119 0 l 1,19,-1
 119 1062 l 1,16,-1
EndSplineSet
EndChar

StartChar: n
Encoding: 110 110 17
Width: 1356
Flags: W
LayerCount: 2
Fore
SplineSet
812 797 m 1,0,-1
 622 797 l 1,1,-1
 622 913 l 1,2,-1
 770 1062 l 1,3,-1
 1016 1062 l 1,4,-1
 1255 823 l 1,5,-1
 1255 0 l 1,6,-1
 812 0 l 1,7,-1
 812 797 l 1,0,-1
104 1062 m 1,8,-1
 550 1062 l 1,9,-1
 550 0 l 1,10,-1
 104 0 l 1,11,-1
 104 1062 l 1,8,-1
EndSplineSet
EndChar

StartChar: o
Encoding: 111 111 18
Width: 1383
Flags: W
LayerCount: 2
Fore
SplineSet
727 248 m 1,0,-1
 837 248 l 1,1,-1
 837 797 l 1,2,-1
 727 797 l 1,3,-1
 727 1062 l 1,4,-1
 1023 1062 l 1,5,-1
 1288 797 l 1,6,-1
 1288 265 l 1,7,-1
 1023 0 l 1,8,-1
 727 0 l 1,9,-1
 727 248 l 1,0,-1
95 797 m 1,10,-1
 360 1062 l 1,11,-1
 657 1062 l 1,12,-1
 657 797 l 1,13,-1
 542 797 l 1,14,-1
 542 248 l 1,15,-1
 657 248 l 1,16,-1
 657 0 l 1,17,-1
 360 0 l 1,18,-1
 95 265 l 1,19,-1
 95 797 l 1,10,-1
EndSplineSet
EndChar

StartChar: p
Encoding: 112 112 19
Width: 1349
Flags: W
LayerCount: 2
Fore
SplineSet
616 248 m 1,0,-1
 811 248 l 1,1,-1
 811 797 l 1,2,-1
 616 797 l 1,3,-1
 616 931 l 1,4,-1
 746 1062 l 1,5,-1
 988 1062 l 1,6,-1
 1254 797 l 1,7,-1
 1254 265 l 1,8,-1
 988 0 l 1,9,-1
 616 0 l 1,10,-1
 616 248 l 1,0,-1
104 1062 m 1,11,-1
 546 1062 l 1,12,-1
 546 -354 l 1,13,-1
 104 -354 l 1,14,-1
 104 1062 l 1,11,-1
EndSplineSet
EndChar

StartChar: q
Encoding: 113 113 20
Width: 1350
Flags: W
LayerCount: 2
Fore
SplineSet
804 797 m 1,0,-1
 607 797 l 1,1,-1
 607 1062 l 1,2,-1
 980 1062 l 1,3,-1
 1246 797 l 1,4,-1
 1246 -354 l 1,5,-1
 934 -354 l 1,6,-1
 804 -221 l 1,7,-1
 804 797 l 1,0,-1
95 797 m 1,8,-1
 361 1062 l 1,9,-1
 537 1062 l 1,10,-1
 537 248 l 1,11,-1
 734 248 l 1,12,-1
 734 131 l 1,13,-1
 602 0 l 1,14,-1
 361 0 l 1,15,-1
 95 265 l 1,16,-1
 95 797 l 1,8,-1
EndSplineSet
EndChar

StartChar: r
Encoding: 114 114 21
Width: 1280
Flags: W
LayerCount: 2
Fore
SplineSet
805 797 m 1,0,-1
 617 797 l 1,1,-1
 617 913 l 1,2,-1
 765 1062 l 1,3,-1
 1033 1062 l 1,4,-1
 1248 814 l 1,5,-1
 1248 539 l 1,6,-1
 805 539 l 1,7,-1
 805 797 l 1,0,-1
104 1062 m 1,8,-1
 546 1062 l 1,9,-1
 546 0 l 1,10,-1
 104 0 l 1,11,-1
 104 1062 l 1,8,-1
EndSplineSet
EndChar

StartChar: s
Encoding: 115 115 22
Width: 1315
Flags: W
LayerCount: 2
Fore
SplineSet
96 602 m 1,0,-1
 96 824 l 1,1,-1
 335 1062 l 1,2,-1
 512 1062 l 1,3,-1
 512 707 l 1,4,-1
 1016 707 l 1,5,-1
 1246 475 l 1,6,-1
 1246 248 l 1,7,-1
 999 0 l 1,8,-1
 804 0 l 1,9,-1
 804 381 l 1,10,-1
 326 381 l 1,11,-1
 96 602 l 1,0,-1
582 1062 m 1,12,-1
 1052 1062 l 1,13,-1
 1210 904 l 1,14,-1
 1210 774 l 1,15,-1
 804 774 l 1,16,-1
 804 867 l 1,17,-1
 582 867 l 1,18,-1
 582 1062 l 1,12,-1
95 314 m 1,19,-1
 538 314 l 1,20,-1
 538 195 l 1,21,-1
 734 195 l 1,22,-1
 734 0 l 1,23,-1
 279 1 l 1,24,-1
 95 219 l 1,25,-1
 95 314 l 1,19,-1
EndSplineSet
EndChar

StartChar: t
Encoding: 116 116 23
Width: 915
Flags: W
LayerCount: 2
Fore
SplineSet
116 797 m 1,0,-1
 28 797 l 1,1,-1
 28 1062 l 1,2,-1
 116 1062 l 1,3,-1
 116 1177 l 1,4,-1
 558 1327 l 1,5,-1
 558 265 l 1,6,-1
 850 265 l 1,7,-1
 850 0 l 1,8,-1
 382 0 l 1,9,-1
 116 265 l 1,10,-1
 116 797 l 1,0,-1
628 1062 m 1,11,-1
 866 1062 l 1,12,-1
 866 797 l 1,13,-1
 628 797 l 1,14,-1
 628 1062 l 1,11,-1
EndSplineSet
EndChar

StartChar: u
Encoding: 117 117 24
Width: 1350
Flags: W
LayerCount: 2
Fore
SplineSet
804 1062 m 1,0,-1
 1246 1062 l 1,1,-1
 1246 0 l 1,2,-1
 804 0 l 1,3,-1
 804 1062 l 1,0,-1
95 1062 m 1,4,-1
 537 1062 l 1,5,-1
 537 265 l 1,6,-1
 734 265 l 1,7,-1
 734 133 l 1,8,-1
 606 0 l 1,9,-1
 361 0 l 1,10,-1
 95 265 l 1,11,-1
 95 1062 l 1,4,-1
EndSplineSet
EndChar

StartChar: v
Encoding: 118 118 25
Width: 1192
Flags: W
LayerCount: 2
Fore
SplineSet
650 621 m 1,0,-1
 793 1062 l 1,1,-1
 1206 1062 l 1,2,-1
 848 59 l 1,3,-1
 650 621 l 1,0,-1
-14 1062 m 1,4,-1
 425 1062 l 1,5,-1
 803 0 l 1,6,-1
 383 0 l 1,7,-1
 -14 1062 l 1,4,-1
EndSplineSet
EndChar

StartChar: w
Encoding: 119 119 26
Width: 1846
Flags: W
LayerCount: 2
Fore
SplineSet
1446 1062 m 1,0,-1
 1860 1062 l 1,1,-1
 1513 66 l 1,2,-1
 1327 638 l 1,3,-1
 1446 1062 l 1,0,-1
710 1062 m 1,4,-1
 1127 1062 l 1,5,-1
 1469 0 l 1,6,-1
 1068 0 l 1,7,-1
 710 1062 l 1,4,-1
-14 1062 m 1,8,-1
 408 1062 l 1,9,-1
 581 509 l 1,10,-1
 704 892 l 1,11,-1
 863 403 l 1,12,-1
 737 -1 l 1,13,-1
 736 0 l 1,14,-1
 367 0 l 1,15,-1
 -14 1062 l 1,8,-1
EndSplineSet
EndChar

StartChar: x
Encoding: 120 120 27
Width: 1140
Flags: W
LayerCount: 2
Fore
SplineSet
619 915 m 1,0,-1
 694 1062 l 1,1,-1
 1153 1062 l 1,2,-1
 847 572 l 1,3,-1
 619 915 l 1,0,-1
-14 1062 m 1,4,-1
 446 1062 l 1,5,-1
 1153 0 l 1,6,-1
 694 0 l 1,7,-1
 -14 1062 l 1,4,-1
281 506 m 1,8,-1
 518 149 l 1,9,-1
 446 0 l 1,10,-1
 -14 0 l 1,11,-1
 281 506 l 1,8,-1
EndSplineSet
EndChar

StartChar: y
Encoding: 121 121 28
Width: 1221
Flags: W
LayerCount: 2
Fore
SplineSet
810 1062 m 1,0,-1
 1235 1062 l 1,1,-1
 696 -370 l 1,2,-1
 272 -370 l 1,3,-1
 810 1062 l 1,0,-1
-14 1062 m 1,4,-1
 427 1062 l 1,5,-1
 576 630 l 1,6,-1
 378 89 l 1,7,-1
 -14 1062 l 1,4,-1
EndSplineSet
EndChar

StartChar: z
Encoding: 122 122 29
Width: 1181
Flags: W
LayerCount: 2
Fore
SplineSet
95 257 m 1,0,-1
 785 1062 l 1,1,-1
 1090 1062 l 1,2,-1
 1090 797 l 1,3,-1
 391 0 l 1,4,-1
 95 0 l 1,5,-1
 95 257 l 1,0,-1
105 1062 m 1,6,-1
 702 1062 l 1,7,-1
 473 797 l 1,8,-1
 105 797 l 1,9,-1
 105 1062 l 1,6,-1
708 265 m 1,10,-1
 1091 265 l 1,11,-1
 1091 0 l 1,12,-1
 473 0 l 1,13,-1
 708 265 l 1,10,-1
EndSplineSet
EndChar

StartChar: A
Encoding: 65 65 30
Width: 1500
Flags: W
LayerCount: 2
Fore
SplineSet
636 380 m 1,0,-1
 897 380 l 1,1,-1
 531 1327 l 1,2,-1
 962 1327 l 1,3,-1
 1491 0 l 1,4,-1
 1044 0 l 1,5,-1
 998 117 l 1,6,-1
 544 117 l 1,7,-1
 636 380 l 1,0,-1
483 1267 m 1,8,-1
 679 740 l 1,9,-1
 436 0 l 1,10,-1
 9 0 l 1,11,-1
 483 1267 l 1,8,-1
EndSplineSet
EndChar

StartChar: B
Encoding: 66 66 31
Width: 1495
Flags: W
LayerCount: 2
Fore
SplineSet
629 265 m 1,0,-1
 957 265 l 1,1,-1
 957 548 l 1,2,-1
 629 548 l 1,3,-1
 629 779 l 1,4,-1
 957 779 l 1,5,-1
 957 1062 l 1,6,-1
 629 1062 l 1,7,-1
 629 1327 l 1,8,-1
 1142 1327 l 1,9,-1
 1408 1062 l 1,10,-1
 1408 792 l 1,11,-1
 1275 659 l 1,12,-1
 1408 526 l 1,13,-1
 1408 265 l 1,14,-1
 1142 0 l 1,15,-1
 629 0 l 1,16,-1
 629 265 l 1,0,-1
117 1327 m 1,17,-1
 559 1327 l 1,18,-1
 559 0 l 1,19,-1
 117 0 l 1,20,-1
 117 1327 l 1,17,-1
EndSplineSet
EndChar

StartChar: C
Encoding: 67 67 32
Width: 1440
Flags: W
LayerCount: 2
Fore
SplineSet
903 1062 m 1,0,-1
 609 1062 l 1,1,-1
 609 1327 l 1,2,-1
 1080 1327 l 1,3,-1
 1345 1062 l 1,4,-1
 1345 795 l 1,5,-1
 903 795 l 1,6,-1
 903 1062 l 1,0,-1
97 1062 m 1,7,-1
 363 1327 l 1,8,-1
 539 1327 l 1,9,-1
 539 0 l 1,10,-1
 363 0 l 1,11,-1
 97 265 l 1,12,-1
 97 1062 l 1,7,-1
609 265 m 1,13,-1
 903 265 l 1,14,-1
 903 459 l 1,15,-1
 1345 459 l 1,16,-1
 1345 265 l 1,17,-1
 1080 0 l 1,18,-1
 609 0 l 1,19,-1
 609 265 l 1,13,-1
EndSplineSet
EndChar

StartChar: D
Encoding: 68 68 33
Width: 1486
Flags: W
LayerCount: 2
Fore
SplineSet
629 265 m 1,0,-1
 957 265 l 1,1,-1
 957 1062 l 1,2,-1
 629 1062 l 1,3,-1
 629 1327 l 1,4,-1
 1134 1327 l 1,5,-1
 1400 1062 l 1,6,-1
 1400 265 l 1,7,-1
 1134 0 l 1,8,-1
 629 0 l 1,9,-1
 629 265 l 1,0,-1
117 1327 m 1,10,-1
 559 1327 l 1,11,-1
 559 0 l 1,12,-1
 117 0 l 1,13,-1
 117 1327 l 1,10,-1
EndSplineSet
EndChar

StartChar: E
Encoding: 69 69 34
Width: 1415
Flags: W
LayerCount: 2
Fore
SplineSet
629 1327 m 1,0,-1
 1320 1327 l 1,1,-1
 1320 943 l 1,2,-1
 904 943 l 1,3,-1
 904 1070 l 1,4,-1
 629 1070 l 1,5,-1
 629 1327 l 1,0,-1
117 1327 m 1,6,-1
 559 1327 l 1,7,-1
 559 801 l 1,8,-1
 982 801 l 1,9,-1
 982 545 l 1,10,-1
 559 545 l 1,11,-1
 559 0 l 1,12,-1
 117 0 l 1,13,-1
 117 1327 l 1,6,-1
629 265 m 1,14,-1
 878 265 l 1,15,-1
 878 398 l 1,16,-1
 1320 398 l 1,17,-1
 1320 0 l 1,18,-1
 629 0 l 1,19,-1
 629 265 l 1,14,-1
EndSplineSet
EndChar

StartChar: F
Encoding: 70 70 35
Width: 1329
Flags: W
LayerCount: 2
Fore
SplineSet
861 1062 m 1,0,-1
 629 1062 l 1,1,-1
 629 1327 l 1,2,-1
 1303 1327 l 1,3,-1
 1303 877 l 1,4,-1
 861 877 l 1,5,-1
 861 1062 l 1,0,-1
117 1327 m 1,6,-1
 559 1327 l 1,7,-1
 559 734 l 1,8,-1
 967 734 l 1,9,-1
 967 473 l 1,10,-1
 559 473 l 1,11,-1
 559 0 l 1,12,-1
 117 0 l 1,13,-1
 117 1327 l 1,6,-1
EndSplineSet
EndChar

StartChar: G
Encoding: 71 71 36
Width: 1495
Flags: W
LayerCount: 2
Fore
SplineSet
627 1327 m 1,0,-1
 1166 1327 l 1,1,-1
 1398 1062 l 1,2,-1
 1398 929 l 1,3,-1
 956 929 l 1,4,-1
 956 1062 l 1,5,-1
 627 1062 l 1,6,-1
 627 1327 l 1,0,-1
115 1062 m 1,7,-1
 380 1327 l 1,8,-1
 557 1327 l 1,9,-1
 557 265 l 1,10,-1
 936 265 l 1,11,-1
 936 0 l 1,12,-1
 380 0 l 1,13,-1
 115 265 l 1,14,-1
 115 1062 l 1,7,-1
791 736 m 1,15,-1
 1398 736 l 1,16,-1
 1398 0 l 1,17,-1
 1006 0 l 1,18,-1
 1006 473 l 1,19,-1
 791 473 l 1,20,-1
 791 736 l 1,15,-1
EndSplineSet
EndChar

StartChar: H
Encoding: 72 72 37
Width: 1516
Flags: W
LayerCount: 2
Fore
SplineSet
629 805 m 1,0,-1
 954 805 l 1,1,-1
 954 1327 l 1,2,-1
 1400 1327 l 1,3,-1
 1400 0 l 1,4,-1
 957 0 l 1,5,-1
 957 539 l 1,6,-1
 629 539 l 1,7,-1
 629 805 l 1,0,-1
117 1327 m 1,8,-1
 559 1327 l 1,9,-1
 559 0 l 1,10,-1
 117 0 l 1,11,-1
 117 1327 l 1,8,-1
EndSplineSet
EndChar

StartChar: I
Encoding: 73 73 38
Width: 902
Flags: W
LayerCount: 2
Fore
SplineSet
97 283 m 1,0,-1
 230 283 l 1,1,-1
 230 1045 l 1,2,-1
 97 1045 l 1,3,-1
 97 1327 l 1,4,-1
 805 1327 l 1,5,-1
 805 1045 l 1,6,-1
 672 1045 l 1,7,-1
 672 283 l 1,8,-1
 805 283 l 1,9,-1
 805 0 l 1,10,-1
 97 0 l 1,11,-1
 97 283 l 1,0,-1
EndSplineSet
EndChar

StartChar: J
Encoding: 74 74 39
Width: 1369
Flags: W
LayerCount: 2
Fore
SplineSet
823 1038 m 1,0,-1
 213 1038 l 1,1,-1
 213 1327 l 1,2,-1
 1265 1327 l 1,3,-1
 1265 265 l 1,4,-1
 1000 0 l 1,5,-1
 823 0 l 1,6,-1
 823 1038 l 1,0,-1
52 556 m 1,7,-1
 511 556 l 1,8,-1
 511 265 l 1,9,-1
 753 265 l 1,10,-1
 753 0 l 1,11,-1
 318 0 l 1,12,-1
 52 265 l 1,13,-1
 52 556 l 1,7,-1
EndSplineSet
EndChar

StartChar: K
Encoding: 75 75 40
Width: 1370
Flags: W
LayerCount: 2
Fore
SplineSet
627 833 m 1,0,-1
 937 1326 l 1,1,-1
 1397 1327 l 1,2,-1
 627 188 l 1,3,-1
 627 833 l 1,0,-1
117 1327 m 1,4,-1
 559 1327 l 1,5,-1
 559 0 l 1,6,-1
 117 0 l 1,7,-1
 117 1327 l 1,4,-1
1052 702 m 1,8,-1
 1418 0 l 1,9,-1
 940 0 l 1,10,-1
 790 309 l 1,11,-1
 1052 702 l 1,8,-1
EndSplineSet
EndChar

StartChar: L
Encoding: 76 76 41
Width: 1267
Flags: W
LayerCount: 2
Fore
SplineSet
117 1327 m 1,0,-1
 559 1327 l 1,1,-1
 559 0 l 1,2,-1
 117 0 l 1,3,-1
 117 1327 l 1,0,-1
629 265 m 1,4,-1
 848 265 l 1,5,-1
 848 433 l 1,6,-1
 1249 433 l 1,7,-1
 1249 0 l 1,8,-1
 629 0 l 1,9,-1
 629 265 l 1,4,-1
EndSplineSet
EndChar

StartChar: M
Encoding: 77 77 42
Width: 1848
Flags: W
LayerCount: 2
Fore
SplineSet
1289 1327 m 1,0,-1
 1731 1327 l 1,1,-1
 1731 0 l 1,2,-1
 1289 0 l 1,3,-1
 1289 1327 l 1,0,-1
118 1327 m 1,4,-1
 588 1327 l 1,5,-1
 944 737 l 1,6,-1
 1224 1217 l 1,7,-1
 1224 549 l 1,8,-1
 905 0 l 1,9,-1
 118 1327 l 1,4,-1
117 1204 m 1,10,-1
 530 511 l 1,11,-1
 530 0 l 1,12,-1
 117 0 l 1,13,-1
 117 1204 l 1,10,-1
EndSplineSet
EndChar

StartChar: N
Encoding: 78 78 43
Width: 1508
Flags: W
LayerCount: 2
Fore
SplineSet
1006 1327 m 1,0,-1
 1391 1327 l 1,1,-1
 1391 126 l 1,2,-1
 1006 760 l 1,3,-1
 1006 1327 l 1,0,-1
117 1327 m 1,4,-1
 584 1327 l 1,5,-1
 1391 0 l 1,6,-1
 921 0 l 1,7,-1
 117 1327 l 1,4,-1
117 1201 m 1,8,-1
 502 570 l 1,9,-1
 502 0 l 1,10,-1
 117 0 l 1,11,-1
 117 1201 l 1,8,-1
EndSplineSet
EndChar

StartChar: O
Encoding: 79 79 44
Width: 1463
Flags: W
LayerCount: 2
Fore
SplineSet
765 270 m 1,0,-1
 934 270 l 1,1,-1
 934 1058 l 1,2,-1
 765 1058 l 1,3,-1
 765 1327 l 1,4,-1
 1108 1327 l 1,5,-1
 1376 1062 l 1,6,-1
 1376 265 l 1,7,-1
 1108 0 l 1,8,-1
 765 0 l 1,9,-1
 765 270 l 1,0,-1
86 1062 m 1,10,-1
 355 1327 l 1,11,-1
 695 1327 l 1,12,-1
 695 1058 l 1,13,-1
 529 1058 l 1,14,-1
 529 270 l 1,15,-1
 695 270 l 1,16,-1
 695 0 l 1,17,-1
 355 0 l 1,18,-1
 86 265 l 1,19,-1
 86 1062 l 1,10,-1
EndSplineSet
EndChar

StartChar: P
Encoding: 80 80 45
Width: 1458
Flags: W
LayerCount: 2
Fore
SplineSet
619 607 m 1,0,-1
 940 607 l 1,1,-1
 940 1062 l 1,2,-1
 619 1062 l 1,3,-1
 619 1327 l 1,4,-1
 1115 1327 l 1,5,-1
 1380 1062 l 1,6,-1
 1380 607 l 1,7,-1
 1115 341 l 1,8,-1
 619 341 l 1,9,-1
 619 607 l 1,0,-1
115 1327 m 1,10,-1
 549 1327 l 1,11,-1
 549 0 l 1,12,-1
 115 0 l 1,13,-1
 115 1327 l 1,10,-1
EndSplineSet
EndChar

StartChar: Q
Encoding: 81 81 46
Width: 1477
Flags: W
LayerCount: 2
Fore
SplineSet
937 1062 m 1,0,-1
 771 1062 l 1,1,-1
 771 1327 l 1,2,-1
 1114 1327 l 1,3,-1
 1379 1062 l 1,4,-1
 1379 265 l 1,5,-1
 1188 72 l 1,6,-1
 937 304 l 1,7,-1
 937 1062 l 1,0,-1
96 1062 m 1,8,-1
 362 1327 l 1,9,-1
 703 1327 l 1,10,-1
 703 1062 l 1,11,-1
 538 1062 l 1,12,-1
 538 265 l 1,13,-1
 888 265 l 1,14,-1
 1319 -142 l 1,15,-1
 1082 -372 l 1,16,-1
 693 0 l 1,17,-1
 362 0 l 1,18,-1
 96 265 l 1,19,-1
 96 1062 l 1,8,-1
EndSplineSet
EndChar

StartChar: R
Encoding: 82 82 47
Width: 1486
Flags: W
LayerCount: 2
Fore
SplineSet
629 655 m 1,0,-1
 961 655 l 1,1,-1
 961 1062 l 1,2,-1
 629 1062 l 1,3,-1
 629 1327 l 1,4,-1
 1134 1327 l 1,5,-1
 1400 1062 l 1,6,-1
 1400 664 l 1,7,-1
 1196 460 l 1,8,-1
 1445 0 l 1,9,-1
 973 0 l 1,10,-1
 783 398 l 1,11,-1
 629 398 l 1,12,-1
 629 655 l 1,0,-1
117 1327 m 1,13,-1
 559 1327 l 1,14,-1
 559 0 l 1,15,-1
 117 0 l 1,16,-1
 117 1327 l 1,13,-1
EndSplineSet
EndChar

StartChar: S
Encoding: 83 83 48
Width: 1477
Flags: W
LayerCount: 2
Fore
SplineSet
97 753 m 1,0,-1
 97 1062 l 1,1,-1
 363 1327 l 1,2,-1
 513 1327 l 1,3,-1
 513 866 l 1,4,-1
 1123 866 l 1,5,-1
 1380 600 l 1,6,-1
 1380 265 l 1,7,-1
 1115 0 l 1,8,-1
 937 0 l 1,9,-1
 937 487 l 1,10,-1
 363 487 l 1,11,-1
 97 753 l 1,0,-1
583 1327 m 1,12,-1
 1114 1327 l 1,13,-1
 1344 1096 l 1,14,-1
 1344 955 l 1,15,-1
 937 955 l 1,16,-1
 937 1088 l 1,17,-1
 583 1088 l 1,18,-1
 583 1327 l 1,12,-1
97 398 m 1,19,-1
 539 398 l 1,20,-1
 539 240 l 1,21,-1
 867 240 l 1,22,-1
 867 0 l 1,23,-1
 320 0 l 1,24,-1
 97 265 l 1,25,-1
 97 398 l 1,19,-1
EndSplineSet
EndChar

StartChar: T
Encoding: 84 84 49
Width: 1256
Flags: W
LayerCount: 2
Fore
SplineSet
52 1327 m 1,0,-1
 1204 1327 l 1,1,-1
 1204 1038 l 1,2,-1
 52 1038 l 1,3,-1
 52 1327 l 1,0,-1
398 969 m 1,4,-1
 858 969 l 1,5,-1
 858 0 l 1,6,-1
 398 0 l 1,7,-1
 398 969 l 1,4,-1
EndSplineSet
EndChar

StartChar: U
Encoding: 85 85 50
Width: 1495
Flags: W
LayerCount: 2
Fore
SplineSet
782 265 m 1,0,-1
 946 265 l 1,1,-1
 946 1327 l 1,2,-1
 1388 1327 l 1,3,-1
 1388 265 l 1,4,-1
 1123 0 l 1,5,-1
 782 0 l 1,6,-1
 782 265 l 1,0,-1
106 1327 m 1,7,-1
 549 1327 l 1,8,-1
 549 265 l 1,9,-1
 712 265 l 1,10,-1
 712 0 l 1,11,-1
 372 0 l 1,12,-1
 106 265 l 1,13,-1
 106 1327 l 1,7,-1
EndSplineSet
EndChar

StartChar: V
Encoding: 86 86 51
Width: 1371
Flags: W
LayerCount: 2
Fore
SplineSet
739 624 m 1,0,-1
 953 1327 l 1,1,-1
 1397 1327 l 1,2,-1
 938 40 l 1,3,-1
 739 624 l 1,0,-1
-26 1327 m 1,4,-1
 425 1327 l 1,5,-1
 884 0 l 1,6,-1
 454 0 l 1,7,-1
 -26 1327 l 1,4,-1
EndSplineSet
EndChar

StartChar: W
Encoding: 87 87 52
Width: 1928
Flags: W
LayerCount: 2
Fore
SplineSet
1414 776 m 1,0,-1
 1551 1327 l 1,1,-1
 1954 1327 l 1,2,-1
 1594 69 l 1,3,-1
 1414 776 l 1,0,-1
761 1327 m 1,4,-1
 1207 1327 l 1,5,-1
 1547 0 l 1,6,-1
 1125 0 l 1,7,-1
 761 1327 l 1,4,-1
-26 1327 m 1,8,-1
 414 1327 l 1,9,-1
 609 598 l 1,10,-1
 742 1155 l 1,11,-1
 915 525 l 1,12,-1
 772 0 l 1,13,-1
 371 0 l 1,14,-1
 -26 1327 l 1,8,-1
EndSplineSet
EndChar

StartChar: X
Encoding: 88 88 53
Width: 1342
Flags: W
LayerCount: 2
Fore
SplineSet
1 1327 m 1,0,-1
 478 1327 l 1,1,-1
 1368 0 l 1,2,-1
 886 0 l 1,3,-1
 1 1327 l 1,0,-1
720 1072 m 1,4,-1
 875 1327 l 1,5,-1
 1349 1327 l 1,6,-1
 956 727 l 1,7,-1
 720 1072 l 1,4,-1
397 618 m 1,8,-1
 634 258 l 1,9,-1
 479 0 l 1,10,-1
 -26 0 l 1,11,-1
 397 618 l 1,8,-1
EndSplineSet
EndChar

StartChar: Y
Encoding: 89 89 54
Width: 1297
Flags: W
LayerCount: 2
Fore
SplineSet
680 920 m 1,0,-1
 898 1327 l 1,1,-1
 1323 1327 l 1,2,-1
 895 484 l 1,3,-1
 680 920 l 1,0,-1
424 422 m 1,4,-1
 -26 1327 l 1,5,-1
 408 1327 l 1,6,-1
 867 391 l 1,7,-1
 867 0 l 1,8,-1
 424 0 l 1,9,-1
 424 422 l 1,4,-1
EndSplineSet
EndChar

StartChar: Z
Encoding: 90 90 55
Width: 1271
Flags: W
LayerCount: 2
Fore
SplineSet
52 248 m 1,0,-1
 919 1327 l 1,1,-1
 1219 1327 l 1,2,-1
 1219 1070 l 1,3,-1
 343 0 l 1,4,-1
 52 0 l 1,5,-1
 52 248 l 1,0,-1
79 1327 m 1,6,-1
 832 1327 l 1,7,-1
 581 1037 l 1,8,-1
 79 1037 l 1,9,-1
 79 1327 l 1,6,-1
684 291 m 1,10,-1
 1201 291 l 1,11,-1
 1201 0 l 1,12,-1
 432 0 l 1,13,-1
 684 291 l 1,10,-1
EndSplineSet
EndChar

StartChar: ampersand
Encoding: 38 38 56
Width: 1666
Flags: W
LayerCount: 2
Fore
SplineSet
285 905 m 1,0,-1
 285 1103 l 1,1,-1
 511 1327 l 1,2,-1
 710 1327 l 1,3,-1
 710 980 l 1,4,-1
 1060 574 l 1,5,-1
 1361 808 l 1,6,-1
 1579 556 l 1,7,-1
 1283 315 l 1,8,-1
 1555 0 l 1,9,-1
 1066 0 l 1,10,-1
 286 904 l 1,11,-1
 285 905 l 1,0,-1
780 1327 m 1,12,-1
 1143 1327 l 1,13,-1
 1365 1105 l 1,14,-1
 1365 929 l 1,15,-1
 950 929 l 1,16,-1
 950 1062 l 1,17,-1
 780 1062 l 1,18,-1
 780 1327 l 1,12,-1
151 539 m 1,19,-1
 342 736 l 1,20,-1
 558 486 l 1,21,-1
 558 265 l 1,22,-1
 749 265 l 1,23,-1
 933 49 l 1,24,-1
 876 0 l 1,25,-1
 374 0 l 1,26,-1
 151 219 l 1,27,-1
 151 539 l 1,19,-1
EndSplineSet
EndChar

StartChar: zero
Encoding: 48 48 57
Width: 1499
Flags: W
LayerCount: 2
Fore
SplineSet
618 265 m 1,0,-1
 949 265 l 1,1,-1
 949 1327 l 1,2,-1
 1126 1327 l 1,3,-1
 1391 1062 l 1,4,-1
 1391 265 l 1,5,-1
 1126 0 l 1,6,-1
 618 0 l 1,7,-1
 618 265 l 1,0,-1
108 1062 m 1,8,-1
 374 1327 l 1,9,-1
 881 1327 l 1,10,-1
 881 1062 l 1,11,-1
 550 1062 l 1,12,-1
 550 0 l 1,13,-1
 374 0 l 1,14,-1
 108 265 l 1,15,-1
 108 1062 l 1,8,-1
EndSplineSet
EndChar

StartChar: one
Encoding: 65539 -1 58
Width: 1167
Flags: W
LayerCount: 2
Fore
SplineSet
363 1062 m 1,0,-1
 142 1062 l 1,1,-1
 142 1194 l 1,2,-1
 274 1327 l 1,3,-1
 805 1327 l 1,4,-1
 805 326 l 1,5,-1
 363 326 l 1,6,-1
 363 1062 l 1,0,-1
142 265 m 1,7,-1
 1026 265 l 1,8,-1
 1026 0 l 1,9,-1
 142 0 l 1,10,-1
 142 265 l 1,7,-1
EndSplineSet
EndChar

StartChar: two
Encoding: 50 50 59
Width: 1464
Flags: W
LayerCount: 2
Fore
SplineSet
108 486 m 1,0,-1
 391 752 l 1,1,-1
 914 752 l 1,2,-1
 914 1327 l 1,3,-1
 1091 1327 l 1,4,-1
 1356 1062 l 1,5,-1
 1356 734 l 1,6,-1
 1091 469 l 1,7,-1
 550 469 l 1,8,-1
 550 0 l 1,9,-1
 108 0 l 1,10,-1
 108 486 l 1,0,-1
108 1062 m 1,11,-1
 374 1327 l 1,12,-1
 844 1327 l 1,13,-1
 844 1088 l 1,14,-1
 550 1088 l 1,15,-1
 550 895 l 1,16,-1
 108 895 l 1,17,-1
 108 1062 l 1,11,-1
620 239 m 1,18,-1
 1356 239 l 1,19,-1
 1356 0 l 1,20,-1
 620 0 l 1,21,-1
 620 239 l 1,18,-1
EndSplineSet
EndChar

StartChar: three
Encoding: 51 51 60
Width: 1495
Flags: W
LayerCount: 2
Fore
SplineSet
636 791 m 1,0,-1
 944 791 l 1,1,-1
 944 1327 l 1,2,-1
 1121 1327 l 1,3,-1
 1387 1062 l 1,4,-1
 1387 801 l 1,5,-1
 1230 668 l 1,6,-1
 1387 533 l 1,7,-1
 1387 264 l 1,8,-1
 1121 0 l 1,9,-1
 944 0 l 1,10,-1
 944 560 l 1,11,-1
 636 560 l 1,12,-1
 636 791 l 1,0,-1
104 1062 m 1,13,-1
 369 1327 l 1,14,-1
 874 1327 l 1,15,-1
 874 1045 l 1,16,-1
 546 1045 l 1,17,-1
 546 851 l 1,18,-1
 104 851 l 1,19,-1
 104 1062 l 1,13,-1
104 470 m 1,20,-1
 546 470 l 1,21,-1
 546 283 l 1,22,-1
 874 283 l 1,23,-1
 874 0 l 1,24,-1
 369 0 l 1,25,-1
 104 265 l 1,26,-1
 104 470 l 1,20,-1
EndSplineSet
EndChar

StartChar: four
Encoding: 52 52 61
Width: 1392
Flags: W
LayerCount: 2
Fore
SplineSet
762 1327 m 1,0,-1
 1187 1327 l 1,1,-1
 1187 444 l 1,2,-1
 1337 444 l 1,3,-1
 1337 185 l 1,4,-1
 1187 185 l 1,5,-1
 1187 0 l 1,6,-1
 762 0 l 1,7,-1
 762 1327 l 1,0,-1
13 431 m 1,8,-1
 692 1237 l 1,9,-1
 692 712 l 1,10,-1
 451 444 l 1,11,-1
 692 444 l 1,12,-1
 692 185 l 1,13,-1
 118 185 l 1,14,-1
 13 431 l 1,8,-1
EndSplineSet
EndChar

StartChar: five
Encoding: 53 53 62
Width: 1498
Flags: W
LayerCount: 2
Fore
SplineSet
107 1327 m 1,0,-1
 1303 1327 l 1,1,-1
 1303 1062 l 1,2,-1
 506 1062 l 1,3,-1
 506 594 l 1,4,-1
 107 594 l 1,5,-1
 107 1327 l 1,0,-1
576 842 m 1,6,-1
 1099 842 l 1,7,-1
 1364 576 l 1,8,-1
 1364 265 l 1,9,-1
 1099 0 l 1,10,-1
 922 0 l 1,11,-1
 922 594 l 1,12,-1
 576 594 l 1,13,-1
 576 842 l 1,6,-1
107 414 m 1,14,-1
 550 414 l 1,15,-1
 550 265 l 1,16,-1
 852 265 l 1,17,-1
 852 0 l 1,18,-1
 373 0 l 1,19,-1
 107 265 l 1,20,-1
 107 414 l 1,14,-1
EndSplineSet
EndChar

StartChar: six
Encoding: 54 54 63
Width: 1499
Flags: W
LayerCount: 2
Fore
SplineSet
787 1327 m 1,0,-1
 1126 1327 l 1,1,-1
 1391 1062 l 1,2,-1
 1391 955 l 1,3,-1
 949 955 l 1,4,-1
 949 1062 l 1,5,-1
 787 1062 l 1,6,-1
 787 1327 l 1,0,-1
108 1062 m 1,7,-1
 374 1327 l 1,8,-1
 717 1327 l 1,9,-1
 717 1062 l 1,10,-1
 550 1062 l 1,11,-1
 550 265 l 1,12,-1
 717 265 l 1,13,-1
 717 0 l 1,14,-1
 374 0 l 1,15,-1
 108 265 l 1,16,-1
 108 1062 l 1,7,-1
787 265 m 1,17,-1
 966 265 l 1,18,-1
 966 576 l 1,19,-1
 618 576 l 1,20,-1
 618 824 l 1,21,-1
 1131 824 l 1,22,-1
 1391 581 l 1,23,-1
 1391 265 l 1,24,-1
 1126 0 l 1,25,-1
 787 0 l 1,26,-1
 787 265 l 1,17,-1
EndSplineSet
EndChar

StartChar: seven
Encoding: 55 55 64
Width: 1299
Flags: W
LayerCount: 2
Fore
SplineSet
52 1194 m 1,0,-1
 183 1327 l 1,1,-1
 1247 1327 l 1,2,-1
 1247 1062 l 1,3,-1
 485 1062 l 1,4,-1
 485 860 l 1,5,-1
 52 860 l 1,6,-1
 52 1194 l 1,0,-1
791 994 m 1,7,-1
 1215 994 l 1,8,-1
 814 0 l 1,9,-1
 346 0 l 1,10,-1
 791 994 l 1,7,-1
EndSplineSet
EndChar

StartChar: eight
Encoding: 56 56 65
Width: 1541
Flags: W
LayerCount: 2
Fore
SplineSet
808 265 m 1,0,-1
 1013 265 l 1,1,-1
 1013 548 l 1,2,-1
 808 548 l 1,3,-1
 808 796 l 1,4,-1
 1013 796 l 1,5,-1
 1013 1062 l 1,6,-1
 808 1062 l 1,7,-1
 808 1327 l 1,8,-1
 1168 1326 l 1,9,-1
 1433 1061 l 1,10,-1
 1433 804 l 1,11,-1
 1275 671 l 1,12,-1
 1433 538 l 1,13,-1
 1433 264 l 1,14,-1
 1168 -1 l 1,15,-1
 808 0 l 1,16,-1
 808 265 l 1,0,-1
108 541 m 1,17,-1
 267 672 l 1,18,-1
 108 802 l 1,19,-1
 108 1062 l 1,20,-1
 374 1327 l 1,21,-1
 738 1327 l 1,22,-1
 738 1062 l 1,23,-1
 546 1062 l 1,24,-1
 546 796 l 1,25,-1
 738 796 l 1,26,-1
 738 548 l 1,27,-1
 546 548 l 1,28,-1
 546 265 l 1,29,-1
 738 265 l 1,30,-1
 738 0 l 1,31,-1
 374 0 l 1,32,-1
 108 265 l 1,33,-1
 108 541 l 1,17,-1
EndSplineSet
EndChar

StartChar: nine
Encoding: 57 57 66
Width: 1499
Flags: W
LayerCount: 2
Fore
SplineSet
783 265 m 1,0,-1
 949 265 l 1,1,-1
 949 1062 l 1,2,-1
 783 1062 l 1,3,-1
 783 1327 l 1,4,-1
 1126 1327 l 1,5,-1
 1391 1062 l 1,6,-1
 1391 265 l 1,7,-1
 1126 0 l 1,8,-1
 783 0 l 1,9,-1
 783 265 l 1,0,-1
108 762 m 1,10,-1
 108 1062 l 1,11,-1
 374 1327 l 1,12,-1
 715 1327 l 1,13,-1
 715 1062 l 1,14,-1
 550 1062 l 1,15,-1
 550 762 l 1,16,-1
 881 762 l 1,17,-1
 881 496 l 1,18,-1
 374 496 l 1,19,-1
 108 762 l 1,10,-1
108 364 m 1,20,-1
 550 364 l 1,21,-1
 550 265 l 1,22,-1
 715 265 l 1,23,-1
 715 0 l 1,24,-1
 374 0 l 1,25,-1
 108 265 l 1,26,-1
 108 364 l 1,20,-1
EndSplineSet
EndChar

StartChar: period
Encoding: 46 46 67
Width: 736
Flags: W
LayerCount: 2
Fore
SplineSet
147 309 m 1,0,-1
 589 309 l 1,1,-1
 589 0 l 1,2,-1
 147 0 l 1,3,-1
 147 309 l 1,0,-1
EndSplineSet
EndChar

StartChar: periodcentered
Encoding: 183 183 68
Width: 725
Flags: W
LayerCount: 2
Fore
SplineSet
141 596 m 1,0,-1
 141 773 l 1,1,-1
 273 906 l 1,2,-1
 450 906 l 1,3,-1
 583 773 l 1,4,-1
 583 596 l 1,5,-1
 450 464 l 1,6,-1
 273 464 l 1,7,-1
 141 596 l 1,0,-1
EndSplineSet
EndChar

StartChar: bullet
Encoding: 8226 8226 69
Width: 918
Flags: W
LayerCount: 2
Fore
SplineSet
149 524 m 1,0,-1
 149 789 l 1,1,-1
 326 966 l 1,2,-1
 592 966 l 1,3,-1
 768 789 l 1,4,-1
 768 524 l 1,5,-1
 592 346 l 1,6,-1
 326 346 l 1,7,-1
 149 524 l 1,0,-1
EndSplineSet
EndChar

StartChar: comma
Encoding: 44 44 70
Width: 736
Flags: W
LayerCount: 2
Fore
SplineSet
147 309 m 1,0,-1
 589 309 l 1,1,-1
 589 0 l 1,2,-1
 412 -265 l 1,3,-1
 147 -265 l 1,4,-1
 270 0 l 1,5,-1
 147 0 l 1,6,-1
 147 309 l 1,0,-1
EndSplineSet
EndChar

StartChar: colon
Encoding: 58 58 71
Width: 736
Flags: W
LayerCount: 2
Fore
SplineSet
147 1062 m 1,0,-1
 589 1062 l 1,1,-1
 589 752 l 1,2,-1
 147 752 l 1,3,-1
 147 1062 l 1,0,-1
147 309 m 1,4,-1
 589 309 l 1,5,-1
 589 0 l 1,6,-1
 147 0 l 1,7,-1
 147 309 l 1,4,-1
EndSplineSet
EndChar

StartChar: semicolon
Encoding: 59 59 72
Width: 736
Flags: W
LayerCount: 2
Fore
SplineSet
147 1062 m 1,0,-1
 589 1062 l 1,1,-1
 589 752 l 1,2,-1
 147 752 l 1,3,-1
 147 1062 l 1,0,-1
147 309 m 1,4,-1
 589 309 l 1,5,-1
 589 0 l 1,6,-1
 412 -265 l 1,7,-1
 147 -265 l 1,8,-1
 270 0 l 1,9,-1
 147 0 l 1,10,-1
 147 309 l 1,4,-1
EndSplineSet
EndChar

StartChar: exclam
Encoding: 33 33 73
Width: 753
Flags: W
LayerCount: 2
Fore
SplineSet
142 1327 m 1,0,-1
 612 1327 l 1,1,-1
 584 442 l 1,2,-1
 169 442 l 1,3,-1
 142 1327 l 1,0,-1
156 309 m 1,4,-1
 598 309 l 1,5,-1
 598 0 l 1,6,-1
 156 0 l 1,7,-1
 156 309 l 1,4,-1
EndSplineSet
EndChar

StartChar: exclamdown
Encoding: 161 161 74
Width: 753
Flags: W
LayerCount: 2
Fore
SplineSet
156 1223 m 1,0,-1
 598 1223 l 1,1,-1
 598 913 l 1,2,-1
 156 913 l 1,3,-1
 156 1223 l 1,0,-1
169 780 m 1,4,-1
 584 780 l 1,5,-1
 612 -105 l 1,6,-1
 142 -105 l 1,7,-1
 169 780 l 1,4,-1
EndSplineSet
EndChar

StartChar: question
Encoding: 63 63 75
Width: 1407
Flags: W
LayerCount: 2
Fore
SplineSet
428 566 m 1,0,-1
 694 832 l 1,1,-1
 885 832 l 1,2,-1
 885 1062 l 1,3,-1
 522 1062 l 1,4,-1
 522 929 l 1,5,-1
 79 929 l 1,6,-1
 79 1060 l 1,7,-1
 345 1327 l 1,8,-1
 1062 1327 l 1,9,-1
 1327 1062 l 1,10,-1
 1327 832 l 1,11,-1
 1062 566 l 1,12,-1
 872 566 l 1,13,-1
 872 442 l 1,14,-1
 428 442 l 1,15,-1
 428 566 l 1,0,-1
428 309 m 1,16,-1
 872 309 l 1,17,-1
 872 0 l 1,18,-1
 428 0 l 1,19,-1
 428 309 l 1,16,-1
EndSplineSet
EndChar

StartChar: questiondown
Encoding: 191 191 76
Width: 1407
Flags: W
LayerCount: 2
Fore
SplineSet
534 1223 m 1,0,-1
 978 1223 l 1,1,-1
 978 913 l 1,2,-1
 534 913 l 1,3,-1
 534 1223 l 1,0,-1
79 391 m 1,4,-1
 345 657 l 1,5,-1
 534 657 l 1,6,-1
 534 780 l 1,7,-1
 978 780 l 1,8,-1
 978 657 l 1,9,-1
 713 391 l 1,10,-1
 522 391 l 1,11,-1
 522 161 l 1,12,-1
 885 161 l 1,13,-1
 885 294 l 1,14,-1
 1327 294 l 1,15,-1
 1327 162 l 1,16,-1
 1062 -105 l 1,17,-1
 345 -105 l 1,18,-1
 79 161 l 1,19,-1
 79 391 l 1,4,-1
EndSplineSet
EndChar

StartChar: quoteleft
Encoding: 8216 8216 77
Width: 814
Flags: W
LayerCount: 2
Fore
SplineSet
164 1062 m 1,0,-1
 340 1327 l 1,1,-1
 607 1327 l 1,2,-1
 482 1062 l 1,3,-1
 650 1062 l 1,4,-1
 650 752 l 1,5,-1
 164 752 l 1,6,-1
 164 1062 l 1,0,-1
EndSplineSet
EndChar

StartChar: quoteright
Encoding: 8217 8217 78
Width: 814
Flags: W
LayerCount: 2
Fore
SplineSet
331 1018 m 1,0,-1
 164 1018 l 1,1,-1
 164 1327 l 1,2,-1
 650 1327 l 1,3,-1
 650 1018 l 1,4,-1
 473 752 l 1,5,-1
 207 752 l 1,6,-1
 331 1018 l 1,0,-1
EndSplineSet
EndChar

StartChar: quotedblleft
Encoding: 8220 8220 79
Width: 1421
Flags: W
LayerCount: 2
Fore
SplineSet
772 1062 m 1,0,-1
 949 1327 l 1,1,-1
 1214 1327 l 1,2,-1
 1090 1062 l 1,3,-1
 1257 1062 l 1,4,-1
 1257 752 l 1,5,-1
 772 752 l 1,6,-1
 772 1062 l 1,0,-1
164 1062 m 1,7,-1
 340 1327 l 1,8,-1
 607 1327 l 1,9,-1
 482 1062 l 1,10,-1
 650 1062 l 1,11,-1
 650 752 l 1,12,-1
 164 752 l 1,13,-1
 164 1062 l 1,7,-1
EndSplineSet
EndChar

StartChar: quotedblright
Encoding: 8221 8221 80
Width: 1418
Flags: W
LayerCount: 2
Fore
SplineSet
935 1018 m 1,0,-1
 768 1018 l 1,1,-1
 768 1327 l 1,2,-1
 1254 1327 l 1,3,-1
 1254 1018 l 1,4,-1
 1077 752 l 1,5,-1
 811 752 l 1,6,-1
 935 1018 l 1,0,-1
331 1018 m 1,7,-1
 164 1018 l 1,8,-1
 164 1327 l 1,9,-1
 650 1327 l 1,10,-1
 650 1018 l 1,11,-1
 473 752 l 1,12,-1
 207 752 l 1,13,-1
 331 1018 l 1,7,-1
EndSplineSet
EndChar

StartChar: quotesingle
Encoding: 39 39 81
Width: 773
Flags: W
LayerCount: 2
Fore
SplineSet
181 1327 m 1,0,-1
 592 1327 l 1,1,-1
 545 664 l 1,2,-1
 227 664 l 1,3,-1
 181 1327 l 1,0,-1
EndSplineSet
EndChar

StartChar: quotesinglbase
Encoding: 8218 8218 82
Width: 814
Flags: W
LayerCount: 2
Fore
SplineSet
164 309 m 1,0,-1
 650 309 l 1,1,-1
 650 0 l 1,2,-1
 473 -266 l 1,3,-1
 207 -266 l 1,4,-1
 331 0 l 1,5,-1
 164 0 l 1,6,-1
 164 309 l 1,0,-1
EndSplineSet
EndChar

StartChar: quotedbl
Encoding: 34 34 83
Width: 1359
Flags: W
LayerCount: 2
Fore
SplineSet
766 1327 m 1,0,-1
 1178 1327 l 1,1,-1
 1129 664 l 1,2,-1
 811 664 l 1,3,-1
 766 1327 l 1,0,-1
181 1327 m 1,4,-1
 592 1327 l 1,5,-1
 545 664 l 1,6,-1
 227 664 l 1,7,-1
 181 1327 l 1,4,-1
EndSplineSet
EndChar

StartChar: quotedblbase
Encoding: 8222 8222 84
Width: 1418
Flags: W
LayerCount: 2
Fore
SplineSet
768 309 m 1,0,-1
 1254 309 l 1,1,-1
 1254 0 l 1,2,-1
 1077 -266 l 1,3,-1
 811 -266 l 1,4,-1
 935 0 l 1,5,-1
 768 0 l 1,6,-1
 768 309 l 1,0,-1
164 309 m 1,7,-1
 650 309 l 1,8,-1
 650 0 l 1,9,-1
 473 -266 l 1,10,-1
 207 -266 l 1,11,-1
 331 0 l 1,12,-1
 164 0 l 1,13,-1
 164 309 l 1,7,-1
EndSplineSet
EndChar

StartChar: guilsinglleft
Encoding: 8249 8249 85
Width: 1090
Flags: W
LayerCount: 2
Fore
SplineSet
202 613 m 1,0,-1
 622 1045 l 1,1,-1
 887 1045 l 1,2,-1
 606 536 l 1,3,-1
 887 27 l 1,4,-1
 622 27 l 1,5,-1
 202 459 l 1,6,-1
 202 613 l 1,0,-1
EndSplineSet
EndChar

StartChar: guilsinglright
Encoding: 8250 8250 86
Width: 1090
Flags: W
LayerCount: 2
Fore
SplineSet
484 535 m 1,0,-1
 203 1044 l 1,1,-1
 468 1044 l 1,2,-1
 888 612 l 1,3,-1
 888 458 l 1,4,-1
 468 26 l 1,5,-1
 203 26 l 1,6,-1
 484 535 l 1,0,-1
EndSplineSet
EndChar

StartChar: guillemotleft
Encoding: 171 171 87
Width: 1722
Flags: W
LayerCount: 2
Fore
SplineSet
834 613 m 1,0,-1
 1254 1045 l 1,1,-1
 1519 1045 l 1,2,-1
 1238 536 l 1,3,-1
 1519 27 l 1,4,-1
 1254 27 l 1,5,-1
 834 459 l 1,6,-1
 834 613 l 1,0,-1
202 613 m 1,7,-1
 622 1045 l 1,8,-1
 887 1045 l 1,9,-1
 606 536 l 1,10,-1
 887 27 l 1,11,-1
 622 27 l 1,12,-1
 202 459 l 1,13,-1
 202 613 l 1,7,-1
EndSplineSet
EndChar

StartChar: guillemotright
Encoding: 187 187 88
Width: 1720
Flags: W
LayerCount: 2
Fore
SplineSet
1114 535 m 1,0,-1
 833 1044 l 1,1,-1
 1098 1044 l 1,2,-1
 1518 612 l 1,3,-1
 1518 458 l 1,4,-1
 1098 26 l 1,5,-1
 833 26 l 1,6,-1
 1114 535 l 1,0,-1
484 535 m 1,7,-1
 203 1044 l 1,8,-1
 468 1044 l 1,9,-1
 888 612 l 1,10,-1
 888 458 l 1,11,-1
 468 26 l 1,12,-1
 203 26 l 1,13,-1
 484 535 l 1,7,-1
EndSplineSet
EndChar

StartChar: onesuperior
Encoding: 185 185 89
Width: 902
Flags: W
LayerCount: 2
Fore
SplineSet
297 1141 m 1,0,-1
 142 1141 l 1,1,-1
 142 1327 l 1,2,-1
 622 1327 l 1,3,-1
 622 651 l 1,4,-1
 297 651 l 1,5,-1
 297 1141 l 1,0,-1
142 584 m 1,6,-1
 778 584 l 1,7,-1
 778 398 l 1,8,-1
 142 398 l 1,9,-1
 142 584 l 1,6,-1
EndSplineSet
EndChar

StartChar: twosuperior
Encoding: 178 178 90
Width: 1083
Flags: W
LayerCount: 2
Fore
SplineSet
97 738 m 1,0,-1
 283 924 l 1,1,-1
 667 924 l 1,2,-1
 667 1327 l 1,3,-1
 791 1327 l 1,4,-1
 994 1141 l 1,5,-1
 994 924 l 1,6,-1
 809 738 l 1,7,-1
 424 738 l 1,8,-1
 424 398 l 1,9,-1
 97 398 l 1,10,-1
 97 738 l 1,0,-1
97 1141 m 1,11,-1
 283 1327 l 1,12,-1
 597 1327 l 1,13,-1
 597 1141 l 1,14,-1
 407 1141 l 1,15,-1
 407 1047 l 1,16,-1
 97 1047 l 1,17,-1
 97 1141 l 1,11,-1
485 584 m 1,18,-1
 1012 584 l 1,19,-1
 1012 398 l 1,20,-1
 485 398 l 1,21,-1
 485 584 l 1,18,-1
EndSplineSet
EndChar

StartChar: threesuperior
Encoding: 179 179 91
Width: 1076
Flags: W
LayerCount: 2
Fore
SplineSet
665 772 m 1,0,-1
 359 772 l 1,1,-1
 359 956 l 1,2,-1
 665 956 l 1,3,-1
 665 1327 l 1,4,-1
 792 1327 l 1,5,-1
 978 1145 l 1,6,-1
 978 956 l 1,7,-1
 886 861 l 1,8,-1
 978 772 l 1,9,-1
 978 582 l 1,10,-1
 792 398 l 1,11,-1
 665 398 l 1,12,-1
 665 772 l 1,0,-1
79 1141 m 1,13,-1
 265 1327 l 1,14,-1
 598 1327 l 1,15,-1
 598 1141 l 1,16,-1
 389 1141 l 1,17,-1
 389 1047 l 1,18,-1
 79 1047 l 1,19,-1
 79 1141 l 1,13,-1
79 582 m 1,20,-1
 79 677 l 1,21,-1
 389 677 l 1,22,-1
 389 582 l 1,23,-1
 598 582 l 1,24,-1
 598 398 l 1,25,-1
 265 398 l 1,26,-1
 79 582 l 1,20,-1
EndSplineSet
EndChar

StartChar: onequarter
Encoding: 188 188 92
Width: 2398
Flags: W
LayerCount: 2
Fore
SplineSet
1268 1327 m 1,0,-1
 1516 1327 l 1,1,-1
 1037 0 l 1,2,-1
 789 0 l 1,3,-1
 1268 1327 l 1,0,-1
341 1141 m 1,4,-1
 186 1141 l 1,5,-1
 186 1327 l 1,6,-1
 649 1327 l 1,7,-1
 649 651 l 1,8,-1
 341 651 l 1,9,-1
 341 1141 l 1,4,-1
1836 929 m 1,10,-1
 2145 929 l 1,11,-1
 2145 309 l 1,12,-1
 2290 309 l 1,13,-1
 2290 139 l 1,14,-1
 2145 139 l 1,15,-1
 2145 0 l 1,16,-1
 1836 0 l 1,17,-1
 1836 929 l 1,10,-1
1314 309 m 1,18,-1
 1769 839 l 1,19,-1
 1769 471 l 1,20,-1
 1611 309 l 1,21,-1
 1769 309 l 1,22,-1
 1769 139 l 1,23,-1
 1314 139 l 1,24,-1
 1314 309 l 1,18,-1
186 584 m 1,25,-1
 805 584 l 1,26,-1
 805 398 l 1,27,-1
 186 398 l 1,28,-1
 186 584 l 1,25,-1
EndSplineSet
EndChar

StartChar: onehalf
Encoding: 189 189 93
Width: 2550
Flags: W
LayerCount: 2
Fore
SplineSet
1267 1327 m 1,0,-1
 1516 1327 l 1,1,-1
 1037 0 l 1,2,-1
 787 0 l 1,3,-1
 1267 1327 l 1,0,-1
340 1141 m 1,4,-1
 186 1141 l 1,5,-1
 186 1327 l 1,6,-1
 649 1327 l 1,7,-1
 649 651 l 1,8,-1
 340 651 l 1,9,-1
 340 1141 l 1,4,-1
1486 355 m 1,10,-1
 1672 541 l 1,11,-1
 2056 541 l 1,12,-1
 2056 944 l 1,13,-1
 2180 944 l 1,14,-1
 2383 758 l 1,15,-1
 2383 541 l 1,16,-1
 2198 355 l 1,17,-1
 1813 355 l 1,18,-1
 1813 15 l 1,19,-1
 1486 15 l 1,20,-1
 1486 355 l 1,10,-1
1486 758 m 1,21,-1
 1672 944 l 1,22,-1
 1986 944 l 1,23,-1
 1986 758 l 1,24,-1
 1796 758 l 1,25,-1
 1796 664 l 1,26,-1
 1486 664 l 1,27,-1
 1486 758 l 1,21,-1
186 584 m 1,28,-1
 805 584 l 1,29,-1
 805 398 l 1,30,-1
 186 398 l 1,31,-1
 186 584 l 1,28,-1
1874 201 m 1,32,-1
 2401 201 l 1,33,-1
 2401 15 l 1,34,-1
 1874 15 l 1,35,-1
 1874 201 l 1,32,-1
EndSplineSet
EndChar

StartChar: threequarters
Encoding: 190 190 94
Width: 2519
Flags: W
LayerCount: 2
Fore
SplineSet
1395 1327 m 1,0,-1
 1645 1327 l 1,1,-1
 1166 0 l 1,2,-1
 916 0 l 1,3,-1
 1395 1327 l 1,0,-1
665 772 m 1,4,-1
 359 772 l 1,5,-1
 359 956 l 1,6,-1
 665 956 l 1,7,-1
 665 1327 l 1,8,-1
 792 1327 l 1,9,-1
 978 1145 l 1,10,-1
 978 956 l 1,11,-1
 886 861 l 1,12,-1
 978 772 l 1,13,-1
 978 582 l 1,14,-1
 792 398 l 1,15,-1
 665 398 l 1,16,-1
 665 772 l 1,4,-1
79 1141 m 1,17,-1
 265 1327 l 1,18,-1
 598 1327 l 1,19,-1
 598 1141 l 1,20,-1
 389 1141 l 1,21,-1
 389 1047 l 1,22,-1
 79 1047 l 1,23,-1
 79 1141 l 1,17,-1
1982 929 m 1,24,-1
 2291 929 l 1,25,-1
 2291 309 l 1,26,-1
 2436 309 l 1,27,-1
 2436 139 l 1,28,-1
 2291 139 l 1,29,-1
 2291 0 l 1,30,-1
 1982 0 l 1,31,-1
 1982 929 l 1,24,-1
1460 309 m 1,32,-1
 1915 839 l 1,33,-1
 1915 471 l 1,34,-1
 1757 309 l 1,35,-1
 1915 309 l 1,36,-1
 1915 139 l 1,37,-1
 1460 139 l 1,38,-1
 1460 309 l 1,32,-1
79 582 m 1,39,-1
 79 677 l 1,40,-1
 389 677 l 1,41,-1
 389 582 l 1,42,-1
 598 582 l 1,43,-1
 598 398 l 1,44,-1
 265 398 l 1,45,-1
 79 582 l 1,39,-1
EndSplineSet
EndChar

StartChar: ordfeminine
Encoding: 170 170 95
Width: 1145
Flags: W
LayerCount: 2
Fore
SplineSet
670 1128 m 1,0,-1
 206 1128 l 1,1,-1
 206 1228 l 1,2,-1
 306 1327 l 1,3,-1
 804 1327 l 1,4,-1
 1003 1128 l 1,5,-1
 1003 530 l 1,6,-1
 670 530 l 1,7,-1
 670 1128 l 1,0,-1
142 662 m 1,8,-1
 142 869 l 1,9,-1
 274 1001 l 1,10,-1
 603 1001 l 1,11,-1
 603 856 l 1,12,-1
 473 856 l 1,13,-1
 473 729 l 1,14,-1
 603 729 l 1,15,-1
 603 628 l 1,16,-1
 504 530 l 1,17,-1
 274 530 l 1,18,-1
 142 662 l 1,8,-1
350 228 m 1,19,-1
 483 361 l 1,20,-1
 660 361 l 1,21,-1
 792 228 l 1,22,-1
 792 52 l 1,23,-1
 660 -81 l 1,24,-1
 483 -81 l 1,25,-1
 350 52 l 1,26,-1
 350 228 l 1,19,-1
EndSplineSet
EndChar

StartChar: ordmasculine
Encoding: 186 186 96
Width: 1148
Flags: W
LayerCount: 2
Fore
SplineSet
607 731 m 1,0,-1
 674 731 l 1,1,-1
 674 1129 l 1,2,-1
 607 1129 l 1,3,-1
 607 1329 l 1,4,-1
 807 1329 l 1,5,-1
 1007 1129 l 1,6,-1
 1007 731 l 1,7,-1
 807 530 l 1,8,-1
 607 530 l 1,9,-1
 607 731 l 1,0,-1
142 731 m 1,10,-1
 142 1129 l 1,11,-1
 341 1329 l 1,12,-1
 539 1329 l 1,13,-1
 539 1129 l 1,14,-1
 474 1129 l 1,15,-1
 474 731 l 1,16,-1
 539 731 l 1,17,-1
 539 530 l 1,18,-1
 341 530 l 1,19,-1
 142 731 l 1,10,-1
353 228 m 1,20,-1
 486 361 l 1,21,-1
 664 361 l 1,22,-1
 796 228 l 1,23,-1
 796 52 l 1,24,-1
 664 -81 l 1,25,-1
 486 -81 l 1,26,-1
 353 52 l 1,27,-1
 353 228 l 1,20,-1
EndSplineSet
EndChar

StartChar: degree
Encoding: 176 176 97
Width: 1173
Flags: W
LayerCount: 2
Fore
SplineSet
620 718 m 1,0,-1
 767 718 l 1,1,-1
 767 1081 l 1,2,-1
 620 1081 l 1,3,-1
 620 1327 l 1,4,-1
 792 1327 l 1,5,-1
 1035 1084 l 1,6,-1
 1035 724 l 1,7,-1
 792 481 l 1,8,-1
 620 481 l 1,9,-1
 620 718 l 1,0,-1
138 724 m 1,10,-1
 138 1084 l 1,11,-1
 380 1327 l 1,12,-1
 553 1327 l 1,13,-1
 553 1081 l 1,14,-1
 406 1081 l 1,15,-1
 406 718 l 1,16,-1
 553 718 l 1,17,-1
 553 481 l 1,18,-1
 380 481 l 1,19,-1
 138 724 l 1,10,-1
EndSplineSet
EndChar

StartChar: less
Encoding: 60 60 98
Width: 1439
Flags: W
LayerCount: 2
Fore
SplineSet
186 759 m 1,0,-1
 1253 1051 l 1,1,-1
 1253 802 l 1,2,-1
 186 524 l 1,3,-1
 186 759 l 1,0,-1
692 582 m 1,4,-1
 1253 434 l 1,5,-1
 1253 186 l 1,6,-1
 240 466 l 1,7,-1
 692 582 l 1,4,-1
EndSplineSet
EndChar

StartChar: greater
Encoding: 62 62 99
Width: 1439
Flags: W
LayerCount: 2
Fore
SplineSet
186 1051 m 1,0,-1
 1198 772 l 1,1,2
 1133 755 1133 755 1078.5 740.5 c 128,-1,3
 1024 726 1024 726 971.5 712.5 c 128,-1,4
 919 699 919 699 864.5 685 c 128,-1,5
 810 671 810 671 746 655 c 1,6,-1
 186 804 l 1,7,-1
 186 1051 l 1,0,-1
186 435 m 1,8,-1
 1253 713 l 1,9,-1
 1253 478 l 1,10,-1
 186 186 l 1,11,-1
 186 435 l 1,8,-1
EndSplineSet
EndChar

StartChar: plus
Encoding: 43 43 100
Width: 1439
Flags: W
LayerCount: 2
Fore
SplineSet
186 740 m 1,0,-1
 601 740 l 1,1,-1
 601 1153 l 1,2,-1
 842 1153 l 1,3,-1
 842 740 l 1,4,-1
 1253 740 l 1,5,-1
 1253 501 l 1,6,-1
 842 501 l 1,7,-1
 842 86 l 1,8,-1
 601 86 l 1,9,-1
 601 501 l 1,10,-1
 186 501 l 1,11,-1
 186 740 l 1,0,-1
EndSplineSet
EndChar

StartChar: plusminus
Encoding: 177 177 101
Width: 1439
Flags: W
LayerCount: 2
Fore
SplineSet
186 910 m 1,0,-1
 601 910 l 1,1,-1
 601 1140 l 1,2,-1
 842 1140 l 1,3,-1
 842 910 l 1,4,-1
 1253 910 l 1,5,-1
 1253 670 l 1,6,-1
 842 670 l 1,7,-1
 842 442 l 1,8,-1
 601 442 l 1,9,-1
 601 670 l 1,10,-1
 186 670 l 1,11,-1
 186 910 l 1,0,-1
186 313 m 1,12,-1
 1253 313 l 1,13,-1
 1253 74 l 1,14,-1
 186 74 l 1,15,-1
 186 313 l 1,12,-1
EndSplineSet
EndChar

StartChar: hyphen
Encoding: 45 45 102
Width: 1255
Flags: W
LayerCount: 2
Fore
SplineSet
186 740 m 1,0,-1
 1069 740 l 1,1,-1
 1069 501 l 1,2,-1
 186 501 l 1,3,-1
 186 740 l 1,0,-1
EndSplineSet
EndChar

StartChar: equal
Encoding: 61 61 103
Width: 1439
Flags: W
LayerCount: 2
Fore
SplineSet
186 1000 m 1,0,-1
 1253 1000 l 1,1,-1
 1253 761 l 1,2,-1
 186 761 l 1,3,-1
 186 1000 l 1,0,-1
186 442 m 1,4,-1
 1253 442 l 1,5,-1
 1253 204 l 1,6,-1
 186 204 l 1,7,-1
 186 442 l 1,4,-1
EndSplineSet
EndChar

StartChar: multiply
Encoding: 215 215 104
Width: 1331
Flags: W
LayerCount: 2
Fore
SplineSet
503 621 m 1,0,-1
 189 932 l 1,1,-1
 355 1102 l 1,2,-1
 666 786 l 1,3,-1
 977 1101 l 1,4,-1
 1142 933 l 1,5,-1
 829 623 l 1,6,-1
 1144 312 l 1,7,-1
 977 142 l 1,8,-1
 664 457 l 1,9,-1
 352 142 l 1,10,-1
 187 310 l 1,11,-1
 503 621 l 1,0,-1
EndSplineSet
EndChar

StartChar: divide
Encoding: 247 247 105
Width: 1439
Flags: W
LayerCount: 2
Fore
SplineSet
554 1153 m 1,0,-1
 885 1153 l 1,1,-1
 885 915 l 1,2,-1
 554 915 l 1,3,-1
 554 1153 l 1,0,-1
186 740 m 1,4,-1
 1253 740 l 1,5,-1
 1253 501 l 1,6,-1
 186 501 l 1,7,-1
 186 740 l 1,4,-1
554 326 m 1,8,-1
 885 326 l 1,9,-1
 885 86 l 1,10,-1
 554 86 l 1,11,-1
 554 326 l 1,8,-1
EndSplineSet
EndChar

StartChar: logicalnot
Encoding: 172 172 106
Width: 1623
Flags: W
LayerCount: 2
Fore
SplineSet
186 969 m 1,0,-1
 1437 969 l 1,1,-1
 1437 270 l 1,2,-1
 1198 270 l 1,3,-1
 1198 731 l 1,4,-1
 186 731 l 1,5,-1
 186 969 l 1,0,-1
EndSplineSet
EndChar

StartChar: mu
Encoding: 181 181 107
AltUni2: 0003bc.ffffffff.0
Width: 1412
Flags: W
LayerCount: 2
Fore
SplineSet
499 237 m 1,0,-1
 893 237 l 1,1,-1
 893 1062 l 1,2,-1
 1210 1062 l 1,3,-1
 1210 237 l 1,4,-1
 1377 237 l 1,5,-1
 1377 0 l 1,6,-1
 1185 0 l 1,7,-1
 1052 133 l 1,8,-1
 919 0 l 1,9,-1
 626 0 l 1,10,-1
 499 133 l 1,11,-1
 499 237 l 1,0,-1
121 1062 m 1,12,-1
 431 1062 l 1,13,-1
 431 -354 l 1,14,-1
 121 -354 l 1,15,-1
 121 1062 l 1,12,-1
EndSplineSet
EndChar

StartChar: percent
Encoding: 37 37 108
Width: 2392
Flags: W
LayerCount: 2
Fore
SplineSet
1348 1418 m 1,0,-1
 1598 1418 l 1,1,-1
 985 -196 l 1,2,-1
 735 -196 l 1,3,-1
 1348 1418 l 1,0,-1
631 783 m 1,4,-1
 696 783 l 1,5,-1
 696 1129 l 1,6,-1
 631 1129 l 1,7,-1
 631 1329 l 1,8,-1
 829 1329 l 1,9,-1
 1029 1129 l 1,10,-1
 1029 783 l 1,11,-1
 829 582 l 1,12,-1
 631 582 l 1,13,-1
 631 783 l 1,4,-1
164 783 m 1,14,-1
 164 1129 l 1,15,-1
 364 1329 l 1,16,-1
 561 1329 l 1,17,-1
 561 1129 l 1,18,-1
 497 1129 l 1,19,-1
 497 783 l 1,20,-1
 561 783 l 1,21,-1
 561 582 l 1,22,-1
 364 582 l 1,23,-1
 164 783 l 1,14,-1
1829 200 m 1,24,-1
 1895 200 l 1,25,-1
 1895 547 l 1,26,-1
 1829 547 l 1,27,-1
 1829 746 l 1,28,-1
 2028 746 l 1,29,-1
 2227 547 l 1,30,-1
 2227 200 l 1,31,-1
 2028 0 l 1,32,-1
 1829 0 l 1,33,-1
 1829 200 l 1,24,-1
1363 547 m 1,34,-1
 1562 746 l 1,35,-1
 1759 746 l 1,36,-1
 1759 547 l 1,37,-1
 1695 547 l 1,38,-1
 1695 200 l 1,39,-1
 1759 200 l 1,40,-1
 1759 0 l 1,41,-1
 1562 0 l 1,42,-1
 1363 200 l 1,43,-1
 1363 547 l 1,34,-1
EndSplineSet
EndChar

StartChar: numbersign
Encoding: 35 35 109
Width: 1699
Flags: W
LayerCount: 2
Fore
SplineSet
1047 1327 m 1,0,-1
 1285 1327 l 1,1,-1
 1260 1042 l 1,2,-1
 1513 1042 l 1,3,-1
 1491 805 l 1,4,-1
 1240 805 l 1,5,-1
 1216 522 l 1,6,-1
 1467 522 l 1,7,-1
 1445 285 l 1,8,-1
 1194 285 l 1,9,-1
 1169 0 l 1,10,-1
 932 0 l 1,11,-1
 1047 1327 l 1,0,-1
206 522 m 1,12,-1
 456 522 l 1,13,-1
 481 805 l 1,14,-1
 232 805 l 1,15,-1
 253 1042 l 1,16,-1
 502 1042 l 1,17,-1
 527 1327 l 1,18,-1
 764 1327 l 1,19,-1
 740 1042 l 1,20,-1
 954 1042 l 1,21,-1
 932 805 l 1,22,-1
 718 805 l 1,23,-1
 696 522 l 1,24,-1
 907 522 l 1,25,-1
 886 285 l 1,26,-1
 674 285 l 1,27,-1
 649 0 l 1,28,-1
 412 0 l 1,29,-1
 437 285 l 1,30,-1
 186 285 l 1,31,-1
 206 522 l 1,12,-1
EndSplineSet
EndChar

StartChar: asterisk
Encoding: 42 42 110
Width: 1392
Flags: W
LayerCount: 2
Fore
SplineSet
289 600 m 1,0,-1
 429 871 l 1,1,-1
 161 1008 l 1,2,-1
 232 1230 l 1,3,-1
 531 1184 l 1,4,-1
 578 1481 l 1,5,-1
 811 1481 l 1,6,-1
 857 1184 l 1,7,-1
 1159 1233 l 1,8,-1
 1231 1008 l 1,9,-1
 960 871 l 1,10,-1
 1102 598 l 1,11,-1
 912 461 l 1,12,-1
 696 678 l 1,13,-1
 480 461 l 1,14,-1
 289 600 l 1,0,-1
EndSplineSet
EndChar

StartChar: endash
Encoding: 8211 8211 111
Width: 1623
Flags: W
LayerCount: 2
Fore
SplineSet
186 740 m 1,0,-1
 1437 740 l 1,1,-1
 1437 501 l 1,2,-1
 186 501 l 1,3,-1
 186 740 l 1,0,-1
EndSplineSet
EndChar

StartChar: emdash
Encoding: 8212 8212 112
Width: 1991
Flags: W
LayerCount: 2
Fore
SplineSet
186 740 m 1,0,-1
 1805 740 l 1,1,-1
 1805 501 l 1,2,-1
 186 501 l 1,3,-1
 186 740 l 1,0,-1
EndSplineSet
EndChar

StartChar: slash
Encoding: 47 47 113
Width: 746
Flags: W
LayerCount: 2
Fore
SplineSet
532 1418 m 1,0,-1
 782 1418 l 1,1,-1
 169 -196 l 1,2,-1
 -80 -196 l 1,3,-1
 532 1418 l 1,0,-1
EndSplineSet
EndChar

StartChar: backslash
Encoding: 92 92 114
Width: 746
Flags: W
LayerCount: 2
Fore
SplineSet
-35 1418 m 1,0,-1
 214 1418 l 1,1,-1
 827 -196 l 1,2,-1
 577 -196 l 1,3,-1
 -35 1418 l 1,0,-1
EndSplineSet
EndChar

StartChar: bar
Encoding: 124 124 115
Width: 700
Flags: W
LayerCount: 2
Fore
SplineSet
230 1418 m 1,0,-1
 470 1418 l 1,1,-1
 470 -196 l 1,2,-1
 230 -196 l 1,3,-1
 230 1418 l 1,0,-1
EndSplineSet
EndChar

StartChar: brokenbar
Encoding: 166 166 116
Width: 698
Flags: W
LayerCount: 2
Fore
SplineSet
230 1418 m 1,0,-1
 468 1418 l 1,1,-1
 468 697 l 1,2,-1
 230 697 l 1,3,-1
 230 1418 l 1,0,-1
230 512 m 1,4,-1
 468 512 l 1,5,-1
 468 -196 l 1,6,-1
 230 -196 l 1,7,-1
 230 512 l 1,4,-1
EndSplineSet
EndChar

StartChar: paragraph
Encoding: 182 182 117
Width: 1610
Flags: W
LayerCount: 2
Fore
SplineSet
983 1327 m 1,0,-1
 1424 1327 l 1,1,-1
 1424 74 l 1,2,-1
 1159 -191 l 1,3,-1
 983 -191 l 1,4,-1
 983 1327 l 1,0,-1
176 444 m 1,5,-1
 176 1062 l 1,6,-1
 442 1327 l 1,7,-1
 917 1327 l 1,8,-1
 917 1062 l 1,9,-1
 785 1062 l 1,10,-1
 785 444 l 1,11,-1
 917 444 l 1,12,-1
 917 177 l 1,13,-1
 442 177 l 1,14,-1
 176 444 l 1,5,-1
EndSplineSet
EndChar

StartChar: braceleft
Encoding: 123 123 118
Width: 978
Flags: W
LayerCount: 2
Fore
SplineSet
230 530 m 1,0,-1
 97 664 l 1,1,-1
 230 797 l 1,2,-1
 230 1204 l 1,3,-1
 495 1469 l 1,4,-1
 828 1469 l 1,5,-1
 828 1204 l 1,6,-1
 664 1204 l 1,7,-1
 664 797 l 1,8,-1
 530 664 l 1,9,-1
 664 530 l 1,10,-1
 664 124 l 1,11,-1
 828 124 l 1,12,-1
 828 -142 l 1,13,-1
 495 -142 l 1,14,-1
 230 124 l 1,15,-1
 230 530 l 1,0,-1
EndSplineSet
EndChar

StartChar: braceright
Encoding: 125 125 119
Width: 978
Flags: W
LayerCount: 2
Fore
SplineSet
314 124 m 1,0,-1
 314 530 l 1,1,-1
 448 664 l 1,2,-1
 314 797 l 1,3,-1
 314 1204 l 1,4,-1
 150 1204 l 1,5,-1
 150 1469 l 1,6,-1
 483 1469 l 1,7,-1
 748 1204 l 1,8,-1
 748 797 l 1,9,-1
 881 664 l 1,10,-1
 748 530 l 1,11,-1
 748 124 l 1,12,-1
 483 -142 l 1,13,-1
 150 -142 l 1,14,-1
 150 124 l 1,15,-1
 314 124 l 1,0,-1
EndSplineSet
EndChar

StartChar: parenleft
Encoding: 40 40 120
Width: 978
Flags: W
LayerCount: 2
Fore
SplineSet
238 1204 m 1,0,-1
 495 1469 l 1,1,-1
 836 1469 l 1,2,-1
 836 1204 l 1,3,-1
 672 1204 l 1,4,-1
 672 124 l 1,5,-1
 836 124 l 1,6,-1
 836 -142 l 1,7,-1
 495 -142 l 1,8,-1
 238 124 l 1,9,-1
 238 1204 l 1,0,-1
EndSplineSet
EndChar

StartChar: parenright
Encoding: 41 41 121
Width: 978
Flags: W
LayerCount: 2
Fore
SplineSet
306 124 m 1,0,-1
 306 1204 l 1,1,-1
 142 1204 l 1,2,-1
 142 1469 l 1,3,-1
 483 1469 l 1,4,-1
 740 1204 l 1,5,-1
 740 124 l 1,6,-1
 483 -142 l 1,7,-1
 142 -142 l 1,8,-1
 142 124 l 1,9,-1
 306 124 l 1,0,-1
EndSplineSet
EndChar

StartChar: bracketleft
Encoding: 91 91 122
Width: 978
Flags: W
LayerCount: 2
Fore
SplineSet
274 1469 m 1,0,-1
 836 1469 l 1,1,-1
 836 1204 l 1,2,-1
 672 1204 l 1,3,-1
 672 124 l 1,4,-1
 836 124 l 1,5,-1
 836 -142 l 1,6,-1
 274 -142 l 1,7,-1
 274 1469 l 1,0,-1
EndSplineSet
EndChar

StartChar: bracketright
Encoding: 93 93 123
Width: 978
Flags: W
LayerCount: 2
Fore
SplineSet
306 124 m 1,0,-1
 306 1204 l 1,1,-1
 142 1204 l 1,2,-1
 142 1469 l 1,3,-1
 704 1469 l 1,4,-1
 704 -143 l 1,5,-1
 142 -142 l 1,6,-1
 142 124 l 1,7,-1
 306 124 l 1,0,-1
EndSplineSet
EndChar

StartChar: currency
Encoding: 164 164 124
Width: 1461
Flags: W
LayerCount: 2
Fore
SplineSet
778 1159 m 1,0,-1
 936 1159 l 1,1,-1
 1020 1072 l 1,2,-1
 1235 1285 l 1,3,-1
 1351 1168 l 1,4,-1
 1140 954 l 1,5,-1
 1235 861 l 1,6,-1
 1235 709 l 1,7,-1
 994 709 l 1,8,-1
 994 906 l 1,9,-1
 778 906 l 1,10,-1
 778 1159 l 1,0,-1
244 861 m 1,11,-1
 329 945 l 1,12,-1
 110 1168 l 1,13,-1
 225 1285 l 1,14,-1
 449 1065 l 1,15,-1
 543 1159 l 1,16,-1
 696 1159 l 1,17,-1
 696 906 l 1,18,-1
 485 906 l 1,19,-1
 485 709 l 1,20,-1
 244 709 l 1,21,-1
 244 861 l 1,11,-1
778 417 m 1,22,-1
 994 417 l 1,23,-1
 994 628 l 1,24,-1
 1235 628 l 1,25,-1
 1235 466 l 1,26,-1
 1140 373 l 1,27,-1
 1351 157 l 1,28,-1
 1235 42 l 1,29,-1
 1020 255 l 1,30,-1
 936 168 l 1,31,-1
 778 168 l 1,32,-1
 778 417 l 1,22,-1
329 382 m 1,33,-1
 244 466 l 1,34,-1
 244 628 l 1,35,-1
 485 628 l 1,36,-1
 485 417 l 1,37,-1
 696 417 l 1,38,-1
 696 168 l 1,39,-1
 543 168 l 1,40,-1
 449 262 l 1,41,-1
 225 42 l 1,42,-1
 110 157 l 1,43,-1
 329 382 l 1,33,-1
EndSplineSet
EndChar

StartChar: dollar
Encoding: 36 36 125
Width: 1743
Flags: W
LayerCount: 2
Fore
SplineSet
740 1476 m 1,0,-1
 1039 1476 l 1,1,-1
 1039 1327 l 1,2,-1
 1248 1327 l 1,3,-1
 1513 1062 l 1,4,-1
 1513 929 l 1,5,-1
 1070 929 l 1,6,-1
 1070 1062 l 1,7,-1
 740 1062 l 1,8,-1
 740 1476 l 1,0,-1
230 797 m 1,9,-1
 230 1062 l 1,10,-1
 495 1327 l 1,11,-1
 672 1327 l 1,12,-1
 672 797 l 1,13,-1
 1248 797 l 1,14,-1
 1513 530 l 1,15,-1
 1513 265 l 1,16,-1
 1248 0 l 1,17,-1
 1070 0 l 1,18,-1
 1070 530 l 1,19,-1
 495 530 l 1,20,-1
 230 797 l 1,9,-1
230 398 m 1,21,-1
 672 398 l 1,22,-1
 672 265 l 1,23,-1
 1003 265 l 1,24,-1
 1003 -157 l 1,25,-1
 701 -157 l 1,26,-1
 701 0 l 1,27,-1
 495 0 l 1,28,-1
 230 265 l 1,29,-1
 230 398 l 1,21,-1
EndSplineSet
EndChar

StartChar: cent
Encoding: 162 162 126
Width: 1610
Flags: W
LayerCount: 2
Fore
SplineSet
740 1344 m 1,0,-1
 1005 1344 l 1,1,-1
 1005 1194 l 1,2,-1
 1115 1194 l 1,3,-1
 1380 929 l 1,4,-1
 1380 797 l 1,5,-1
 937 797 l 1,6,-1
 937 929 l 1,7,-1
 740 929 l 1,8,-1
 740 1344 l 1,0,-1
230 929 m 1,9,-1
 495 1194 l 1,10,-1
 672 1194 l 1,11,-1
 672 398 l 1,12,-1
 870 398 l 1,13,-1
 870 -17 l 1,14,-1
 605 -17 l 1,15,-1
 605 133 l 1,16,-1
 495 133 l 1,17,-1
 230 398 l 1,18,-1
 230 929 l 1,9,-1
937 530 m 1,19,-1
 1380 530 l 1,20,-1
 1380 398 l 1,21,-1
 1115 133 l 1,22,-1
 937 133 l 1,23,-1
 937 530 l 1,19,-1
EndSplineSet
EndChar

StartChar: sterling
Encoding: 163 163 127
Width: 1743
Flags: W
LayerCount: 2
Fore
SplineSet
917 1416 m 1,0,-1
 1239 1416 l 1,1,-1
 1504 1151 l 1,2,-1
 1504 1020 l 1,3,-1
 1105 1020 l 1,4,-1
 1105 1151 l 1,5,-1
 917 1151 l 1,6,-1
 917 1416 l 1,0,-1
230 265 m 1,7,-1
 407 264 l 1,8,-1
 407 265 l 1,9,-1
 407 520 l 1,10,-1
 230 520 l 1,11,-1
 230 708 l 1,12,-1
 407 708 l 1,13,-1
 407 1151 l 1,14,-1
 672 1416 l 1,15,-1
 849 1416 l 1,16,-1
 849 708 l 1,17,-1
 1099 708 l 1,18,-1
 1099 520 l 1,19,-1
 849 520 l 1,20,-1
 849 0 l 1,21,-1
 230 0 l 1,22,-1
 230 265 l 1,7,-1
917 265 m 1,23,-1
 1513 264 l 1,24,-1
 1513 0 l 1,25,-1
 917 0 l 1,26,-1
 917 265 l 1,23,-1
EndSplineSet
EndChar

StartChar: Euro
Encoding: 8364 8364 128
Width: 1838
Flags: W
LayerCount: 2
Fore
SplineSet
835 1375 m 1,0,-1
 1343 1375 l 1,1,-1
 1608 1109 l 1,2,-1
 1608 900 l 1,3,-1
 1166 900 l 1,4,-1
 1166 1109 l 1,5,-1
 835 1109 l 1,6,-1
 835 1375 l 1,0,-1
326 474 m 1,7,-1
 187 474 l 1,8,-1
 187 616 l 1,9,-1
 326 616 l 1,10,-1
 326 763 l 1,11,-1
 204 763 l 1,12,-1
 204 905 l 1,13,-1
 326 905 l 1,14,-1
 326 1109 l 1,15,-1
 591 1375 l 1,16,-1
 768 1375 l 1,17,-1
 768 905 l 1,18,-1
 1021 905 l 1,19,-1
 1021 763 l 1,20,-1
 768 763 l 1,21,-1
 768 616 l 1,22,-1
 994 616 l 1,23,-1
 994 474 l 1,24,-1
 768 474 l 1,25,-1
 768 0 l 1,26,-1
 591 0 l 1,27,-1
 326 265 l 1,28,-1
 326 474 l 1,7,-1
835 265 m 1,29,-1
 1166 265 l 1,30,-1
 1166 474 l 1,31,-1
 1608 474 l 1,32,-1
 1608 265 l 1,33,-1
 1343 0 l 1,34,-1
 835 0 l 1,35,-1
 835 265 l 1,29,-1
EndSplineSet
EndChar

StartChar: yen
Encoding: 165 165 129
Width: 1739
Flags: W
LayerCount: 2
Fore
SplineSet
895 964 m 1,0,-1
 1119 1327 l 1,1,-1
 1544 1327 l 1,2,-1
 1148 616 l 1,3,-1
 1091 616 l 1,4,-1
 895 964 l 1,0,-1
442 334 m 1,5,-1
 645 334 l 1,6,-1
 645 423 l 1,7,-1
 442 423 l 1,8,-1
 442 556 l 1,9,-1
 615 556 l 1,10,-1
 195 1327 l 1,11,-1
 620 1327 l 1,12,-1
 1042 556 l 1,13,-1
 1292 556 l 1,14,-1
 1292 423 l 1,15,-1
 1088 423 l 1,16,-1
 1088 334 l 1,17,-1
 1292 334 l 1,18,-1
 1292 202 l 1,19,-1
 1088 202 l 1,20,-1
 1088 0 l 1,21,-1
 645 0 l 1,22,-1
 645 202 l 1,23,-1
 442 202 l 1,24,-1
 442 334 l 1,5,-1
EndSplineSet
EndChar

StartChar: at
Encoding: 64 64 130
Width: 1585
Flags: W
LayerCount: 2
Fore
SplineSet
1271 841 m 1,0,-1
 1048 1062 l 1,1,-1
 819 1062 l 1,2,-1
 819 1282 l 1,3,-1
 1182 1282 l 1,4,-1
 1490 973 l 1,5,-1
 1490 398 l 1,6,-1
 1271 398 l 1,7,-1
 1271 841 l 1,0,-1
95 973 m 1,8,-1
 402 1282 l 1,9,-1
 765 1282 l 1,10,-1
 765 1062 l 1,11,-1
 533 1062 l 1,12,-1
 315 844 l 1,13,-1
 315 395 l 1,14,-1
 533 177 l 1,15,-1
 785 177 l 1,16,-1
 785 -43 l 1,17,-1
 400 -43 l 1,18,-1
 95 264 l 1,19,-1
 95 973 l 1,8,-1
687 841 m 1,20,-1
 899 841 l 1,21,-1
 899 321 l 1,22,-1
 1043 178 l 1,23,-1
 1359 177 l 1,24,-1
 1182 -43 l 1,25,-1
 839 -43 l 1,26,-1
 839 398 l 1,27,-1
 687 398 l 1,28,-1
 687 841 l 1,20,-1
EndSplineSet
EndChar

StartChar: copyright
Encoding: 169 169 131
Width: 1586
Flags: W
LayerCount: 2
Fore
SplineSet
687 841 m 1,0,-1
 899 841 l 1,1,-1
 899 708 l 1,2,-1
 1236 708 l 1,3,-1
 1236 867 l 1,4,-1
 1045 1062 l 1,5,-1
 822 1062 l 1,6,-1
 822 1282 l 1,7,-1
 1183 1282 l 1,8,-1
 1491 973 l 1,9,-1
 1491 265 l 1,10,-1
 1183 -43 l 1,11,-1
 839 -43 l 1,12,-1
 839 177 l 1,13,-1
 1046 177 l 1,14,-1
 1236 368 l 1,15,-1
 1236 530 l 1,16,-1
 899 530 l 1,17,-1
 899 398 l 1,18,-1
 687 398 l 1,19,-1
 687 841 l 1,0,-1
95 973 m 1,20,-1
 404 1282 l 1,21,-1
 768 1282 l 1,22,-1
 768 1062 l 1,23,-1
 545 1062 l 1,24,-1
 351 867 l 1,25,-1
 351 370 l 1,26,-1
 543 177 l 1,27,-1
 786 177 l 1,28,-1
 786 -43 l 1,29,-1
 404 -43 l 1,30,-1
 95 265 l 1,31,-1
 95 973 l 1,20,-1
EndSplineSet
EndChar

StartChar: registered
Encoding: 174 174 132
Width: 1586
Flags: W
LayerCount: 2
Fore
SplineSet
1085 177 m 1,0,-1
 1267 177 l 1,1,-1
 1103 483 l 1,2,-1
 1237 618 l 1,3,-1
 1237 885 l 1,4,-1
 1060 1062 l 1,5,-1
 820 1062 l 1,6,-1
 820 1282 l 1,7,-1
 1183 1282 l 1,8,-1
 1491 973 l 1,9,-1
 1491 265 l 1,10,-1
 1183 -43 l 1,11,-1
 1085 -43 l 1,12,-1
 1085 177 l 1,0,-1
95 973 m 1,13,-1
 404 1282 l 1,14,-1
 766 1282 l 1,15,-1
 766 1062 l 1,16,-1
 347 1062 l 1,17,-1
 347 177 l 1,18,-1
 501 177 l 1,19,-1
 501 -43 l 1,20,-1
 404 -43 l 1,21,-1
 95 265 l 1,22,-1
 95 973 l 1,13,-1
696 849 m 1,23,-1
 891 849 l 1,24,-1
 891 655 l 1,25,-1
 696 655 l 1,26,-1
 696 849 l 1,23,-1
555 177 m 1,27,-1
 696 177 l 1,28,-1
 696 442 l 1,29,-1
 772 442 l 1,30,-1
 905 177 l 1,31,-1
 1032 177 l 1,32,-1
 1032 -43 l 1,33,-1
 555 -43 l 1,34,-1
 555 177 l 1,27,-1
EndSplineSet
EndChar

StartChar: asciicircum
Encoding: 94 94 133
Width: 1290
Flags: W
LayerCount: 2
Fore
SplineSet
534 1167 m 1,0,-1
 770 1167 l 1,1,-1
 1116 100 l 1,2,-1
 850 100 l 1,3,-1
 534 1167 l 1,0,-1
476 1113 m 1,4,-1
 598 681 l 1,5,-1
 440 100 l 1,6,-1
 174 100 l 1,7,-1
 476 1113 l 1,4,-1
EndSplineSet
EndChar

StartChar: underscore
Encoding: 95 95 134
Width: 1331
Flags: W
LayerCount: 2
Fore
SplineSet
1417 -200 m 1,0,-1
 1417 -393 l 1,1,-1
 -86 -393 l 1,2,-1
 -86 -200 l 1,3,-1
 1417 -200 l 1,0,-1
EndSplineSet
EndChar

StartChar: section
Encoding: 167 167 135
Width: 1573
Flags: W
LayerCount: 2
Fore
SplineSet
955 1300 m 1,0,-1
 822 1300 l 1,1,-1
 822 1490 l 1,2,-1
 1202 1490 l 1,3,-1
 1392 1300 l 1,4,-1
 1392 1187 l 1,5,-1
 955 1187 l 1,6,-1
 955 1300 l 1,0,-1
181 1085 m 1,7,-1
 181 1300 l 1,8,-1
 371 1490 l 1,9,-1
 751 1490 l 1,10,-1
 751 1300 l 1,11,-1
 618 1300 l 1,12,-1
 618 1085 l 1,13,-1
 1177 1085 l 1,14,-1
 1369 896 l 1,15,-1
 1369 540 l 1,16,-1
 956 540 l 1,17,-1
 956 896 l 1,18,-1
 370 897 l 1,19,-1
 181 1085 l 1,7,-1
216 473 m 1,20,-1
 216 829 l 1,21,-1
 618 829 l 1,22,-1
 618 473 l 1,23,-1
 1202 473 l 1,24,-1
 1392 283 l 1,25,-1
 1392 68 l 1,26,-1
 1203 -121 l 1,27,-1
 823 -121 l 1,28,-1
 823 68 l 1,29,-1
 956 68 l 1,30,-1
 956 283 l 1,31,-1
 409 283 l 1,32,-1
 216 473 l 1,20,-1
181 181 m 1,33,-1
 619 181 l 1,34,-1
 619 68 l 1,35,-1
 752 68 l 1,36,-1
 752 -121 l 1,37,-1
 372 -121 l 1,38,-1
 181 68 l 1,39,-1
 181 181 l 1,33,-1
EndSplineSet
EndChar

StartChar: acute
Encoding: 180 180 136
Width: 1098
Flags: W
LayerCount: 2
Fore
SplineSet
274 1291 m 1,0,-1
 760 1607 l 1,1,-1
 944 1522 l 1,2,-1
 890 1311 l 1,3,-1
 336 1144 l 1,4,-1
 274 1291 l 1,0,-1
EndSplineSet
EndChar

StartChar: grave
Encoding: 96 96 137
Width: 1098
Flags: W
LayerCount: 2
Fore
SplineSet
121 1522 m 1,0,-1
 305 1607 l 1,1,-1
 791 1291 l 1,2,-1
 730 1144 l 1,3,-1
 175 1311 l 1,4,-1
 121 1522 l 1,0,-1
EndSplineSet
EndChar

StartChar: tilde
Encoding: 732 732 138
Width: 1309
Flags: W
LayerCount: 2
Fore
SplineSet
216 1344 m 1,0,-1
 411 1558 l 1,1,-1
 694 1558 l 1,2,-1
 802 1407 l 1,3,-1
 869 1407 l 1,4,-1
 1007 1522 l 1,5,-1
 1094 1435 l 1,6,-1
 899 1221 l 1,7,-1
 616 1221 l 1,8,-1
 508 1371 l 1,9,-1
 441 1371 l 1,10,-1
 303 1257 l 1,11,-1
 216 1344 l 1,0,-1
EndSplineSet
EndChar

StartChar: asciitilde
Encoding: 126 126 139
Width: 1491
Flags: W
LayerCount: 2
Fore
SplineSet
113 513 m 1,0,-1
 350 807 l 1,1,-1
 750 807 l 1,2,-1
 988 569 l 1,3,-1
 1091 569 l 1,4,-1
 1299 718 l 1,5,-1
 1387 628 l 1,6,-1
 1153 336 l 1,7,-1
 750 336 l 1,8,-1
 517 569 l 1,9,-1
 409 569 l 1,10,-1
 200 425 l 1,11,-1
 113 513 l 1,0,-1
EndSplineSet
EndChar

StartChar: dieresis
Encoding: 168 168 140
Width: 1414
Flags: W
LayerCount: 2
Fore
SplineSet
804 1560 m 1,0,-1
 1140 1560 l 1,1,-1
 1140 1279 l 1,2,-1
 804 1279 l 1,3,-1
 804 1560 l 1,0,-1
274 1560 m 1,4,-1
 610 1560 l 1,5,-1
 610 1279 l 1,6,-1
 274 1279 l 1,7,-1
 274 1560 l 1,4,-1
EndSplineSet
EndChar

StartChar: cedilla
Encoding: 184 184 141
Width: 1008
Flags: W
LayerCount: 2
Fore
SplineSet
650 -225 m 1,0,-1
 650 -62 l 1,1,-1
 852 -62 l 1,2,-1
 852 -245 l 1,3,-1
 677 -445 l 1,4,-1
 365 -445 l 1,5,-1
 365 -225 l 1,6,-1
 650 -225 l 1,0,-1
EndSplineSet
EndChar

StartChar: circumflex
Encoding: 710 710 142
Width: 1240
Flags: W
LayerCount: 2
Fore
SplineSet
173 1250 m 1,0,-1
 468 1579 l 1,1,-1
 772 1579 l 1,2,-1
 1067 1250 l 1,3,-1
 974 1153 l 1,4,-1
 620 1363 l 1,5,-1
 267 1153 l 1,6,-1
 173 1250 l 1,0,-1
EndSplineSet
EndChar

StartChar: macron
Encoding: 175 175 143
Width: 1238
Flags: W
LayerCount: 2
Fore
SplineSet
201 1364 m 1,0,-1
 1030 1364 l 1,1,-1
 1030 1194 l 1,2,-1
 201 1194 l 1,3,-1
 201 1364 l 1,0,-1
EndSplineSet
EndChar

StartChar: ae
Encoding: 230 230 144
Width: 2030
Flags: W
LayerCount: 2
Fore
SplineSet
1309 628 m 1,0,-1
 1502 628 l 1,1,-1
 1502 797 l 1,2,-1
 1406 797 l 1,3,-1
 1406 1062 l 1,4,-1
 1679 1062 l 1,5,-1
 1945 797 l 1,6,-1
 1945 434 l 1,7,-1
 1309 434 l 1,8,-1
 1309 628 l 1,0,-1
696 265 m 1,9,-1
 794 265 l 1,10,-1
 794 797 l 1,11,-1
 175 797 l 1,12,-1
 175 929 l 1,13,-1
 308 1062 l 1,14,-1
 925 1062 l 1,15,-1
 1017 973 l 1,16,-1
 1104 1062 l 1,17,-1
 1336 1062 l 1,18,-1
 1336 797 l 1,19,-1
 1236 797 l 1,20,-1
 1236 265 l 1,21,-1
 1336 265 l 1,22,-1
 1336 0 l 1,23,-1
 1104 0 l 1,24,-1
 1015 88 l 1,25,-1
 925 0 l 1,26,-1
 696 0 l 1,27,-1
 696 265 l 1,9,-1
86 451 m 1,28,-1
 264 628 l 1,29,-1
 724 628 l 1,30,-1
 724 434 l 1,31,-1
 529 434 l 1,32,-1
 529 265 l 1,33,-1
 626 265 l 1,34,-1
 626 0 l 1,35,-1
 264 0 l 1,36,-1
 86 175 l 1,37,-1
 86 451 l 1,28,-1
1406 265 m 1,38,-1
 1900 265 l 1,39,-1
 1900 133 l 1,40,-1
 1768 0 l 1,41,-1
 1406 0 l 1,42,-1
 1406 265 l 1,38,-1
EndSplineSet
EndChar

StartChar: agrave
Encoding: 224 224 145
Width: 1331
Flags: W
LayerCount: 2
Fore
SplineSet
283 1522 m 1,0,-1
 467 1607 l 1,1,-1
 953 1291 l 1,2,-1
 892 1144 l 1,3,-1
 337 1311 l 1,4,-1
 283 1522 l 1,0,-1
804 797 m 1,5,-1
 175 797 l 1,6,-1
 175 929 l 1,7,-1
 308 1062 l 1,8,-1
 971 1062 l 1,9,-1
 1236 797 l 1,10,-1
 1236 0 l 1,11,-1
 804 0 l 1,12,-1
 804 797 l 1,5,-1
86 451 m 1,13,-1
 264 628 l 1,14,-1
 734 628 l 1,15,-1
 734 434 l 1,16,-1
 526 434 l 1,17,-1
 526 248 l 1,18,-1
 734 248 l 1,19,-1
 734 131 l 1,20,-1
 602 0 l 1,21,-1
 264 0 l 1,22,-1
 86 175 l 1,23,-1
 86 451 l 1,13,-1
EndSplineSet
EndChar

StartChar: aacute
Encoding: 225 225 146
Width: 1331
Flags: W
LayerCount: 2
Fore
SplineSet
375 1291 m 1,0,-1
 861 1607 l 1,1,-1
 1045 1522 l 1,2,-1
 991 1311 l 1,3,-1
 437 1144 l 1,4,-1
 375 1291 l 1,0,-1
804 797 m 1,5,-1
 175 797 l 1,6,-1
 175 929 l 1,7,-1
 308 1062 l 1,8,-1
 971 1062 l 1,9,-1
 1236 797 l 1,10,-1
 1236 0 l 1,11,-1
 804 0 l 1,12,-1
 804 797 l 1,5,-1
86 451 m 1,13,-1
 264 628 l 1,14,-1
 734 628 l 1,15,-1
 734 434 l 1,16,-1
 526 434 l 1,17,-1
 526 248 l 1,18,-1
 734 248 l 1,19,-1
 734 131 l 1,20,-1
 602 0 l 1,21,-1
 264 0 l 1,22,-1
 86 175 l 1,23,-1
 86 451 l 1,13,-1
EndSplineSet
EndChar

StartChar: acircumflex
Encoding: 226 226 147
Width: 1331
Flags: W
LayerCount: 2
Fore
SplineSet
213 1250 m 1,0,-1
 508 1579 l 1,1,-1
 812 1579 l 1,2,-1
 1107 1250 l 1,3,-1
 1014 1153 l 1,4,-1
 660 1363 l 1,5,-1
 307 1153 l 1,6,-1
 213 1250 l 1,0,-1
804 797 m 1,7,-1
 175 797 l 1,8,-1
 175 929 l 1,9,-1
 308 1062 l 1,10,-1
 971 1062 l 1,11,-1
 1236 797 l 1,12,-1
 1236 0 l 1,13,-1
 804 0 l 1,14,-1
 804 797 l 1,7,-1
86 451 m 1,15,-1
 264 628 l 1,16,-1
 734 628 l 1,17,-1
 734 434 l 1,18,-1
 526 434 l 1,19,-1
 526 248 l 1,20,-1
 734 248 l 1,21,-1
 734 131 l 1,22,-1
 602 0 l 1,23,-1
 264 0 l 1,24,-1
 86 175 l 1,25,-1
 86 451 l 1,15,-1
EndSplineSet
EndChar

StartChar: adieresis
Encoding: 228 228 148
Width: 1331
Flags: W
LayerCount: 2
Fore
SplineSet
757 1560 m 1,0,-1
 1093 1560 l 1,1,-1
 1093 1279 l 1,2,-1
 757 1279 l 1,3,-1
 757 1560 l 1,0,-1
227 1560 m 1,4,-1
 563 1560 l 1,5,-1
 563 1279 l 1,6,-1
 227 1279 l 1,7,-1
 227 1560 l 1,4,-1
804 797 m 1,8,-1
 175 797 l 1,9,-1
 175 929 l 1,10,-1
 308 1062 l 1,11,-1
 971 1062 l 1,12,-1
 1236 797 l 1,13,-1
 1236 0 l 1,14,-1
 804 0 l 1,15,-1
 804 797 l 1,8,-1
86 451 m 1,16,-1
 264 628 l 1,17,-1
 734 628 l 1,18,-1
 734 434 l 1,19,-1
 526 434 l 1,20,-1
 526 248 l 1,21,-1
 734 248 l 1,22,-1
 734 131 l 1,23,-1
 602 0 l 1,24,-1
 264 0 l 1,25,-1
 86 175 l 1,26,-1
 86 451 l 1,16,-1
EndSplineSet
EndChar

StartChar: atilde
Encoding: 227 227 149
Width: 1331
Flags: W
LayerCount: 2
Fore
SplineSet
237 1344 m 1,0,-1
 432 1558 l 1,1,-1
 715 1558 l 1,2,-1
 823 1407 l 1,3,-1
 890 1407 l 1,4,-1
 1028 1522 l 1,5,-1
 1115 1435 l 1,6,-1
 920 1221 l 1,7,-1
 637 1221 l 1,8,-1
 529 1371 l 1,9,-1
 462 1371 l 1,10,-1
 324 1257 l 1,11,-1
 237 1344 l 1,0,-1
804 797 m 1,12,-1
 175 797 l 1,13,-1
 175 929 l 1,14,-1
 308 1062 l 1,15,-1
 971 1062 l 1,16,-1
 1236 797 l 1,17,-1
 1236 0 l 1,18,-1
 804 0 l 1,19,-1
 804 797 l 1,12,-1
86 451 m 1,20,-1
 264 628 l 1,21,-1
 734 628 l 1,22,-1
 734 434 l 1,23,-1
 526 434 l 1,24,-1
 526 248 l 1,25,-1
 734 248 l 1,26,-1
 734 131 l 1,27,-1
 602 0 l 1,28,-1
 264 0 l 1,29,-1
 86 175 l 1,30,-1
 86 451 l 1,20,-1
EndSplineSet
EndChar

StartChar: aring
Encoding: 229 229 150
Width: 1331
Flags: W
LayerCount: 2
Fore
SplineSet
693 1356 m 1,0,-1
 771 1356 l 1,1,-1
 771 1527 l 1,2,-1
 693 1527 l 1,3,-1
 693 1682 l 1,4,-1
 790 1682 l 1,5,-1
 929 1545 l 1,6,-1
 929 1337 l 1,7,-1
 790 1200 l 1,8,-1
 693 1200 l 1,9,-1
 693 1356 l 1,0,-1
388 1337 m 1,10,-1
 388 1545 l 1,11,-1
 525 1682 l 1,12,-1
 624 1682 l 1,13,-1
 624 1527 l 1,14,-1
 547 1527 l 1,15,-1
 547 1356 l 1,16,-1
 624 1356 l 1,17,-1
 624 1200 l 1,18,-1
 525 1200 l 1,19,-1
 388 1337 l 1,10,-1
804 797 m 1,20,-1
 175 797 l 1,21,-1
 175 929 l 1,22,-1
 308 1062 l 1,23,-1
 971 1062 l 1,24,-1
 1236 797 l 1,25,-1
 1236 0 l 1,26,-1
 804 0 l 1,27,-1
 804 797 l 1,20,-1
86 451 m 1,28,-1
 264 628 l 1,29,-1
 734 628 l 1,30,-1
 734 434 l 1,31,-1
 526 434 l 1,32,-1
 526 248 l 1,33,-1
 734 248 l 1,34,-1
 734 131 l 1,35,-1
 602 0 l 1,36,-1
 264 0 l 1,37,-1
 86 175 l 1,38,-1
 86 451 l 1,28,-1
EndSplineSet
EndChar

StartChar: ccedilla
Encoding: 231 231 151
Width: 1323
Flags: W
LayerCount: 2
Fore
SplineSet
607 1062 m 1,0,-1
 980 1062 l 1,1,-1
 1245 797 l 1,2,-1
 1245 638 l 1,3,-1
 803 638 l 1,4,-1
 803 797 l 1,5,-1
 607 797 l 1,6,-1
 607 1062 l 1,0,-1
95 797 m 1,7,-1
 360 1062 l 1,8,-1
 537 1062 l 1,9,-1
 537 0 l 1,10,-1
 360 0 l 1,11,-1
 95 265 l 1,12,-1
 95 797 l 1,7,-1
607 248 m 1,13,-1
 803 248 l 1,14,-1
 803 381 l 1,15,-1
 1245 381 l 1,16,-1
 1245 265 l 1,17,-1
 980 0 l 1,18,-1
 607 0 l 1,19,-1
 607 248 l 1,13,-1
727 -225 m 1,20,-1
 727 -62 l 1,21,-1
 929 -62 l 1,22,-1
 929 -245 l 1,23,-1
 754 -445 l 1,24,-1
 442 -445 l 1,25,-1
 442 -225 l 1,26,-1
 727 -225 l 1,20,-1
EndSplineSet
EndChar

StartChar: egrave
Encoding: 232 232 152
Width: 1331
Flags: W
LayerCount: 2
Fore
SplineSet
291 1522 m 1,0,-1
 475 1607 l 1,1,-1
 961 1291 l 1,2,-1
 900 1144 l 1,3,-1
 345 1311 l 1,4,-1
 291 1522 l 1,0,-1
607 611 m 1,5,-1
 820 611 l 1,6,-1
 820 797 l 1,7,-1
 607 797 l 1,8,-1
 607 1062 l 1,9,-1
 982 1062 l 1,10,-1
 1247 797 l 1,11,-1
 1247 416 l 1,12,-1
 607 416 l 1,13,-1
 607 611 l 1,5,-1
95 797 m 1,14,-1
 360 1062 l 1,15,-1
 537 1062 l 1,16,-1
 537 0 l 1,17,-1
 360 0 l 1,18,-1
 95 265 l 1,19,-1
 95 797 l 1,14,-1
607 248 m 1,20,-1
 1201 248 l 1,21,-1
 1201 133 l 1,22,-1
 1069 0 l 1,23,-1
 607 0 l 1,24,-1
 607 248 l 1,20,-1
EndSplineSet
EndChar

StartChar: eacute
Encoding: 233 233 153
Width: 1331
Flags: W
LayerCount: 2
Fore
SplineSet
383 1291 m 1,0,-1
 869 1607 l 1,1,-1
 1053 1522 l 1,2,-1
 999 1311 l 1,3,-1
 445 1144 l 1,4,-1
 383 1291 l 1,0,-1
607 611 m 1,5,-1
 820 611 l 1,6,-1
 820 797 l 1,7,-1
 607 797 l 1,8,-1
 607 1062 l 1,9,-1
 982 1062 l 1,10,-1
 1247 797 l 1,11,-1
 1247 416 l 1,12,-1
 607 416 l 1,13,-1
 607 611 l 1,5,-1
95 797 m 1,14,-1
 360 1062 l 1,15,-1
 537 1062 l 1,16,-1
 537 0 l 1,17,-1
 360 0 l 1,18,-1
 95 265 l 1,19,-1
 95 797 l 1,14,-1
607 248 m 1,20,-1
 1201 248 l 1,21,-1
 1201 133 l 1,22,-1
 1069 0 l 1,23,-1
 607 0 l 1,24,-1
 607 248 l 1,20,-1
EndSplineSet
EndChar

StartChar: ecircumflex
Encoding: 234 234 154
Width: 1331
Flags: W
LayerCount: 2
Fore
SplineSet
221 1250 m 1,0,-1
 516 1579 l 1,1,-1
 820 1579 l 1,2,-1
 1115 1250 l 1,3,-1
 1022 1153 l 1,4,-1
 668 1363 l 1,5,-1
 315 1153 l 1,6,-1
 221 1250 l 1,0,-1
607 611 m 1,7,-1
 820 611 l 1,8,-1
 820 797 l 1,9,-1
 607 797 l 1,10,-1
 607 1062 l 1,11,-1
 982 1062 l 1,12,-1
 1247 797 l 1,13,-1
 1247 416 l 1,14,-1
 607 416 l 1,15,-1
 607 611 l 1,7,-1
95 797 m 1,16,-1
 360 1062 l 1,17,-1
 537 1062 l 1,18,-1
 537 0 l 1,19,-1
 360 0 l 1,20,-1
 95 265 l 1,21,-1
 95 797 l 1,16,-1
607 248 m 1,22,-1
 1201 248 l 1,23,-1
 1201 133 l 1,24,-1
 1069 0 l 1,25,-1
 607 0 l 1,26,-1
 607 248 l 1,22,-1
EndSplineSet
EndChar

StartChar: edieresis
Encoding: 235 235 155
Width: 1331
Flags: W
LayerCount: 2
Fore
SplineSet
768 1560 m 1,0,-1
 1104 1560 l 1,1,-1
 1104 1279 l 1,2,-1
 768 1279 l 1,3,-1
 768 1560 l 1,0,-1
238 1560 m 1,4,-1
 574 1560 l 1,5,-1
 574 1279 l 1,6,-1
 238 1279 l 1,7,-1
 238 1560 l 1,4,-1
607 611 m 1,8,-1
 820 611 l 1,9,-1
 820 797 l 1,10,-1
 607 797 l 1,11,-1
 607 1062 l 1,12,-1
 982 1062 l 1,13,-1
 1247 797 l 1,14,-1
 1247 416 l 1,15,-1
 607 416 l 1,16,-1
 607 611 l 1,8,-1
95 797 m 1,17,-1
 360 1062 l 1,18,-1
 537 1062 l 1,19,-1
 537 0 l 1,20,-1
 360 0 l 1,21,-1
 95 265 l 1,22,-1
 95 797 l 1,17,-1
607 248 m 1,23,-1
 1201 248 l 1,24,-1
 1201 133 l 1,25,-1
 1069 0 l 1,26,-1
 607 0 l 1,27,-1
 607 248 l 1,23,-1
EndSplineSet
EndChar

StartChar: hbar
Encoding: 295 295 156
Width: 1349
Flags: W
LayerCount: 2
Fore
SplineSet
104 1150 m 1,0,-1
 -36 1150 l 1,1,-1
 -36 1327 l 1,2,-1
 104 1327 l 1,3,-1
 104 1450 l 1,4,-1
 546 1450 l 1,5,-1
 546 1327 l 1,6,-1
 849 1327 l 1,7,-1
 849 1150 l 1,8,-1
 546 1150 l 1,9,-1
 546 0 l 1,10,-1
 104 0 l 1,11,-1
 104 1150 l 1,0,-1
811 797 m 1,12,-1
 613 797 l 1,13,-1
 613 931 l 1,14,-1
 744 1062 l 1,15,-1
 988 1062 l 1,16,-1
 1254 797 l 1,17,-1
 1254 0 l 1,18,-1
 811 0 l 1,19,-1
 811 797 l 1,12,-1
EndSplineSet
EndChar

StartChar: dotlessi
Encoding: 305 305 157
Width: 653
Flags: W
LayerCount: 2
Fore
SplineSet
105 1062 m 1,0,-1
 548 1062 l 1,1,-1
 548 0 l 1,2,-1
 105 0 l 1,3,-1
 105 1062 l 1,0,-1
EndSplineSet
EndChar

StartChar: itilde
Encoding: 297 297 158
Width: 653
Flags: W
LayerCount: 2
Fore
SplineSet
181 1371 m 1,0,-1
 114 1371 l 1,1,-1
 -24 1257 l 1,2,-1
 -111 1344 l 1,3,-1
 84 1558 l 1,4,-1
 367 1558 l 1,5,-1
 475 1407 l 1,6,-1
 542 1407 l 1,7,-1
 680 1522 l 1,8,-1
 767 1435 l 1,9,-1
 572 1221 l 1,10,-1
 289 1221 l 1,11,-1
 181 1371 l 1,0,-1
105 1062 m 1,12,-1
 548 1062 l 1,13,-1
 548 0 l 1,14,-1
 105 0 l 1,15,-1
 105 1062 l 1,12,-1
EndSplineSet
EndChar

StartChar: ij
Encoding: 307 307 159
Width: 1336
Flags: W
LayerCount: 2
Fore
SplineSet
786 1476 m 1,0,-1
 1229 1476 l 1,1,-1
 1229 1194 l 1,2,-1
 786 1194 l 1,3,-1
 786 1476 l 1,0,-1
105 1476 m 1,4,-1
 548 1476 l 1,5,-1
 548 1194 l 1,6,-1
 105 1194 l 1,7,-1
 105 1476 l 1,4,-1
788 -123 m 1,8,-1
 788 1062 l 1,9,-1
 1230 1062 l 1,10,-1
 1230 -123 l 1,11,-1
 964 -389 l 1,12,-1
 107 -389 l 1,13,-1
 107 -123 l 1,14,-1
 788 -123 l 1,8,-1
105 1062 m 1,15,-1
 548 1062 l 1,16,-1
 548 0 l 1,17,-1
 345 0 l 1,18,-1
 105 239 l 1,19,-1
 105 1062 l 1,15,-1
EndSplineSet
EndChar

StartChar: igrave
Encoding: 236 236 160
Width: 653
Flags: W
LayerCount: 2
Fore
SplineSet
-8 1311 m 1,0,-1
 -62 1522 l 1,1,-1
 122 1607 l 1,2,-1
 608 1291 l 1,3,-1
 547 1144 l 1,4,-1
 -8 1311 l 1,0,-1
105 1062 m 1,5,-1
 548 1062 l 1,6,-1
 548 0 l 1,7,-1
 105 0 l 1,8,-1
 105 1062 l 1,5,-1
EndSplineSet
EndChar

StartChar: iacute
Encoding: 237 237 161
Width: 653
Flags: W
LayerCount: 2
Fore
SplineSet
42 1291 m 1,0,-1
 528 1607 l 1,1,-1
 712 1522 l 1,2,-1
 658 1311 l 1,3,-1
 104 1144 l 1,4,-1
 42 1291 l 1,0,-1
105 1062 m 1,5,-1
 548 1062 l 1,6,-1
 548 0 l 1,7,-1
 105 0 l 1,8,-1
 105 1062 l 1,5,-1
EndSplineSet
EndChar

StartChar: icircumflex
Encoding: 238 238 162
Width: 653
Flags: W
LayerCount: 2
Fore
SplineSet
-121 1250 m 1,0,-1
 174 1579 l 1,1,-1
 478 1579 l 1,2,-1
 773 1250 l 1,3,-1
 680 1153 l 1,4,-1
 326 1363 l 1,5,-1
 -27 1153 l 1,6,-1
 -121 1250 l 1,0,-1
105 1062 m 1,7,-1
 548 1062 l 1,8,-1
 548 0 l 1,9,-1
 105 0 l 1,10,-1
 105 1062 l 1,7,-1
EndSplineSet
EndChar

StartChar: idieresis
Encoding: 239 239 163
Width: 653
Flags: W
LayerCount: 2
Fore
SplineSet
424 1560 m 1,0,-1
 760 1560 l 1,1,-1
 760 1279 l 1,2,-1
 424 1279 l 1,3,-1
 424 1560 l 1,0,-1
-106 1560 m 1,4,-1
 230 1560 l 1,5,-1
 230 1279 l 1,6,-1
 -106 1279 l 1,7,-1
 -106 1560 l 1,4,-1
105 1062 m 1,8,-1
 548 1062 l 1,9,-1
 548 0 l 1,10,-1
 105 0 l 1,11,-1
 105 1062 l 1,8,-1
EndSplineSet
EndChar

StartChar: jcircumflex
Encoding: 309 309 164
Width: 653
Flags: W
LayerCount: 2
Fore
SplineSet
-126 1250 m 1,0,-1
 169 1579 l 1,1,-1
 473 1579 l 1,2,-1
 768 1250 l 1,3,-1
 675 1153 l 1,4,-1
 321 1363 l 1,5,-1
 -32 1153 l 1,6,-1
 -126 1250 l 1,0,-1
105 1062 m 1,7,-1
 548 1062 l 1,8,-1
 548 -88 l 1,9,-1
 282 -354 l 1,10,-1
 -161 -354 l 1,11,-1
 -161 -88 l 1,12,-1
 105 -88 l 1,13,-1
 105 1062 l 1,7,-1
EndSplineSet
EndChar

StartChar: kcommaaccent
Encoding: 311 311 165
Width: 1312
Flags: W
LayerCount: 2
Fore
SplineSet
104 1467 m 1,0,-1
 546 1467 l 1,1,-1
 546 0 l 1,2,-1
 104 0 l 1,3,-1
 104 1467 l 1,0,-1
615 756 m 1,4,-1
 819 1060 l 1,5,-1
 1276 1061 l 1,6,-1
 615 150 l 1,7,-1
 615 756 l 1,4,-1
1007 566 m 1,8,-1
 1299 0 l 1,9,-1
 819 0 l 1,10,-1
 746 214 l 1,11,-1
 1007 566 l 1,8,-1
881 -86 m 1,12,-1
 881 -253 l 1,13,-1
 714 -446 l 1,14,-1
 536 -446 l 1,15,-1
 597 -288 l 1,16,-1
 439 -288 l 1,17,-1
 439 -86 l 1,18,-1
 881 -86 l 1,12,-1
EndSplineSet
EndChar

StartChar: kgreenlandic
Encoding: 312 312 166
Width: 1307
Flags: W
LayerCount: 2
Fore
SplineSet
613 756 m 1,0,-1
 819 1062 l 1,1,-1
 1276 1061 l 1,2,-1
 613 150 l 1,3,-1
 613 756 l 1,0,-1
104 1062 m 1,4,-1
 546 1062 l 1,5,-1
 546 0 l 1,6,-1
 104 0 l 1,7,-1
 104 1062 l 1,4,-1
1002 566 m 1,8,-1
 1299 0 l 1,9,-1
 819 0 l 1,10,-1
 745 214 l 1,11,-1
 1002 566 l 1,8,-1
EndSplineSet
EndChar

StartChar: ldot
Encoding: 320 320 167
Width: 1096
Flags: W
LayerCount: 2
Fore
SplineSet
104 1467 m 1,0,-1
 546 1467 l 1,1,-1
 546 265 l 1,2,-1
 744 265 l 1,3,-1
 744 0 l 1,4,-1
 352 0 l 1,5,-1
 104 248 l 1,6,-1
 104 1467 l 1,0,-1
645 773 m 1,7,-1
 778 906 l 1,8,-1
 954 906 l 1,9,-1
 1087 773 l 1,10,-1
 1087 596 l 1,11,-1
 954 464 l 1,12,-1
 778 464 l 1,13,-1
 645 596 l 1,14,-1
 645 773 l 1,7,-1
EndSplineSet
EndChar

StartChar: lslash
Encoding: 322 322 168
Width: 753
Flags: W
LayerCount: 2
Fore
SplineSet
104 692 m 1,0,-1
 -13 652 l 1,1,-1
 -13 829 l 1,2,-1
 104 869 l 1,3,-1
 104 1467 l 1,4,-1
 546 1467 l 1,5,-1
 546 1021 l 1,6,-1
 727 1083 l 1,7,-1
 727 906 l 1,8,-1
 546 844 l 1,9,-1
 546 265 l 1,10,-1
 744 265 l 1,11,-1
 744 0 l 1,12,-1
 352 0 l 1,13,-1
 104 248 l 1,14,-1
 104 692 l 1,0,-1
EndSplineSet
EndChar

StartChar: nacute
Encoding: 324 324 169
Width: 1356
Flags: W
LayerCount: 2
Fore
SplineSet
393 1291 m 1,0,-1
 879 1607 l 1,1,-1
 1063 1522 l 1,2,-1
 1009 1311 l 1,3,-1
 455 1144 l 1,4,-1
 393 1291 l 1,0,-1
812 797 m 1,5,-1
 622 797 l 1,6,-1
 622 913 l 1,7,-1
 770 1062 l 1,8,-1
 1016 1062 l 1,9,-1
 1255 823 l 1,10,-1
 1255 0 l 1,11,-1
 812 0 l 1,12,-1
 812 797 l 1,5,-1
104 1062 m 1,13,-1
 550 1062 l 1,14,-1
 550 0 l 1,15,-1
 104 0 l 1,16,-1
 104 1062 l 1,13,-1
EndSplineSet
EndChar

StartChar: ntilde
Encoding: 241 241 170
Width: 1356
Flags: W
LayerCount: 2
Fore
SplineSet
240 1344 m 1,0,-1
 435 1558 l 1,1,-1
 718 1558 l 1,2,-1
 826 1407 l 1,3,-1
 893 1407 l 1,4,-1
 1031 1522 l 1,5,-1
 1118 1435 l 1,6,-1
 923 1221 l 1,7,-1
 640 1221 l 1,8,-1
 532 1371 l 1,9,-1
 465 1371 l 1,10,-1
 327 1257 l 1,11,-1
 240 1344 l 1,0,-1
812 797 m 1,12,-1
 622 797 l 1,13,-1
 622 913 l 1,14,-1
 770 1062 l 1,15,-1
 1016 1062 l 1,16,-1
 1255 823 l 1,17,-1
 1255 0 l 1,18,-1
 812 0 l 1,19,-1
 812 797 l 1,12,-1
104 1062 m 1,20,-1
 550 1062 l 1,21,-1
 550 0 l 1,22,-1
 104 0 l 1,23,-1
 104 1062 l 1,20,-1
EndSplineSet
EndChar

StartChar: oe
Encoding: 339 339 171
Width: 2042
Flags: W
LayerCount: 2
Fore
SplineSet
1315 628 m 1,0,-1
 1511 628 l 1,1,-1
 1511 797 l 1,2,-1
 1414 797 l 1,3,-1
 1414 1062 l 1,4,-1
 1687 1062 l 1,5,-1
 1954 797 l 1,6,-1
 1954 434 l 1,7,-1
 1315 434 l 1,8,-1
 1315 628 l 1,0,-1
704 265 m 1,9,-1
 803 265 l 1,10,-1
 803 797 l 1,11,-1
 704 797 l 1,12,-1
 704 1062 l 1,13,-1
 934 1062 l 1,14,-1
 1026 973 l 1,15,-1
 1113 1062 l 1,16,-1
 1344 1062 l 1,17,-1
 1344 797 l 1,18,-1
 1245 797 l 1,19,-1
 1245 265 l 1,20,-1
 1344 265 l 1,21,-1
 1344 0 l 1,22,-1
 1113 0 l 1,23,-1
 1024 88 l 1,24,-1
 934 0 l 1,25,-1
 704 0 l 1,26,-1
 704 265 l 1,9,-1
95 797 m 1,27,-1
 360 1062 l 1,28,-1
 634 1062 l 1,29,-1
 634 797 l 1,30,-1
 537 797 l 1,31,-1
 537 265 l 1,32,-1
 634 265 l 1,33,-1
 634 0 l 1,34,-1
 360 0 l 1,35,-1
 95 265 l 1,36,-1
 95 797 l 1,27,-1
1414 265 m 1,37,-1
 1909 265 l 1,38,-1
 1909 133 l 1,39,-1
 1776 0 l 1,40,-1
 1414 0 l 1,41,-1
 1414 265 l 1,37,-1
EndSplineSet
EndChar

StartChar: ograve
Encoding: 242 242 172
Width: 1383
Flags: W
LayerCount: 2
Fore
SplineSet
315 1522 m 1,0,-1
 499 1607 l 1,1,-1
 985 1291 l 1,2,-1
 924 1144 l 1,3,-1
 369 1311 l 1,4,-1
 315 1522 l 1,0,-1
727 248 m 1,5,-1
 837 248 l 1,6,-1
 837 797 l 1,7,-1
 727 797 l 1,8,-1
 727 1062 l 1,9,-1
 1023 1062 l 1,10,-1
 1288 797 l 1,11,-1
 1288 265 l 1,12,-1
 1023 0 l 1,13,-1
 727 0 l 1,14,-1
 727 248 l 1,5,-1
95 797 m 1,15,-1
 360 1062 l 1,16,-1
 657 1062 l 1,17,-1
 657 797 l 1,18,-1
 542 797 l 1,19,-1
 542 248 l 1,20,-1
 657 248 l 1,21,-1
 657 0 l 1,22,-1
 360 0 l 1,23,-1
 95 265 l 1,24,-1
 95 797 l 1,15,-1
EndSplineSet
EndChar

StartChar: oacute
Encoding: 243 243 173
Width: 1383
Flags: W
LayerCount: 2
Fore
SplineSet
406 1291 m 1,0,-1
 892 1607 l 1,1,-1
 1076 1522 l 1,2,-1
 1022 1311 l 1,3,-1
 468 1144 l 1,4,-1
 406 1291 l 1,0,-1
727 248 m 1,5,-1
 837 248 l 1,6,-1
 837 797 l 1,7,-1
 727 797 l 1,8,-1
 727 1062 l 1,9,-1
 1023 1062 l 1,10,-1
 1288 797 l 1,11,-1
 1288 265 l 1,12,-1
 1023 0 l 1,13,-1
 727 0 l 1,14,-1
 727 248 l 1,5,-1
95 797 m 1,15,-1
 360 1062 l 1,16,-1
 657 1062 l 1,17,-1
 657 797 l 1,18,-1
 542 797 l 1,19,-1
 542 248 l 1,20,-1
 657 248 l 1,21,-1
 657 0 l 1,22,-1
 360 0 l 1,23,-1
 95 265 l 1,24,-1
 95 797 l 1,15,-1
EndSplineSet
EndChar

StartChar: ocircumflex
Encoding: 244 244 174
Width: 1383
Flags: W
LayerCount: 2
Fore
SplineSet
244 1250 m 1,0,-1
 539 1579 l 1,1,-1
 843 1579 l 1,2,-1
 1138 1250 l 1,3,-1
 1045 1153 l 1,4,-1
 691 1363 l 1,5,-1
 338 1153 l 1,6,-1
 244 1250 l 1,0,-1
727 248 m 1,7,-1
 837 248 l 1,8,-1
 837 797 l 1,9,-1
 727 797 l 1,10,-1
 727 1062 l 1,11,-1
 1023 1062 l 1,12,-1
 1288 797 l 1,13,-1
 1288 265 l 1,14,-1
 1023 0 l 1,15,-1
 727 0 l 1,16,-1
 727 248 l 1,7,-1
95 797 m 1,17,-1
 360 1062 l 1,18,-1
 657 1062 l 1,19,-1
 657 797 l 1,20,-1
 542 797 l 1,21,-1
 542 248 l 1,22,-1
 657 248 l 1,23,-1
 657 0 l 1,24,-1
 360 0 l 1,25,-1
 95 265 l 1,26,-1
 95 797 l 1,17,-1
EndSplineSet
EndChar

StartChar: otilde
Encoding: 245 245 175
Width: 1383
Flags: W
LayerCount: 2
Fore
SplineSet
253 1344 m 1,0,-1
 448 1558 l 1,1,-1
 731 1558 l 1,2,-1
 839 1407 l 1,3,-1
 906 1407 l 1,4,-1
 1044 1522 l 1,5,-1
 1131 1435 l 1,6,-1
 936 1221 l 1,7,-1
 653 1221 l 1,8,-1
 545 1371 l 1,9,-1
 478 1371 l 1,10,-1
 340 1257 l 1,11,-1
 253 1344 l 1,0,-1
727 248 m 1,12,-1
 837 248 l 1,13,-1
 837 797 l 1,14,-1
 727 797 l 1,15,-1
 727 1062 l 1,16,-1
 1023 1062 l 1,17,-1
 1288 797 l 1,18,-1
 1288 265 l 1,19,-1
 1023 0 l 1,20,-1
 727 0 l 1,21,-1
 727 248 l 1,12,-1
95 797 m 1,22,-1
 360 1062 l 1,23,-1
 657 1062 l 1,24,-1
 657 797 l 1,25,-1
 542 797 l 1,26,-1
 542 248 l 1,27,-1
 657 248 l 1,28,-1
 657 0 l 1,29,-1
 360 0 l 1,30,-1
 95 265 l 1,31,-1
 95 797 l 1,22,-1
EndSplineSet
EndChar

StartChar: odieresis
Encoding: 246 246 176
Width: 1383
Flags: W
LayerCount: 2
Fore
SplineSet
789 1560 m 1,0,-1
 1125 1560 l 1,1,-1
 1125 1279 l 1,2,-1
 789 1279 l 1,3,-1
 789 1560 l 1,0,-1
259 1560 m 1,4,-1
 595 1560 l 1,5,-1
 595 1279 l 1,6,-1
 259 1279 l 1,7,-1
 259 1560 l 1,4,-1
727 248 m 1,8,-1
 837 248 l 1,9,-1
 837 797 l 1,10,-1
 727 797 l 1,11,-1
 727 1062 l 1,12,-1
 1023 1062 l 1,13,-1
 1288 797 l 1,14,-1
 1288 265 l 1,15,-1
 1023 0 l 1,16,-1
 727 0 l 1,17,-1
 727 248 l 1,8,-1
95 797 m 1,18,-1
 360 1062 l 1,19,-1
 657 1062 l 1,20,-1
 657 797 l 1,21,-1
 542 797 l 1,22,-1
 542 248 l 1,23,-1
 657 248 l 1,24,-1
 657 0 l 1,25,-1
 360 0 l 1,26,-1
 95 265 l 1,27,-1
 95 797 l 1,18,-1
EndSplineSet
EndChar

StartChar: oslash
Encoding: 248 248 177
Width: 1357
Flags: W
LayerCount: 2
Fore
SplineSet
732 264 m 1,0,-1
 811 265 l 1,1,-1
 811 797 l 1,2,-1
 715 797 l 1,3,-1
 841 1276 l 1,4,-1
 1164 1192 l 1,5,-1
 1102 952 l 1,6,-1
 1262 797 l 1,7,-1
 1262 265 l 1,8,-1
 988 0 l 1,9,-1
 663 0 l 1,10,-1
 732 264 l 1,0,-1
257 107 m 1,11,-1
 95 265 l 1,12,-1
 95 797 l 1,13,-1
 369 1062 l 1,14,-1
 698 1062 l 1,15,-1
 626 797 l 1,16,-1
 546 797 l 1,17,-1
 546 265 l 1,18,-1
 569 265 l 1,19,-1
 569 264 l 1,20,-1
 645 264 l 1,21,-1
 516 -221 l 1,22,-1
 193 -137 l 1,23,-1
 257 107 l 1,11,-1
EndSplineSet
EndChar

StartChar: rcaron
Encoding: 345 345 178
Width: 1280
Flags: W
LayerCount: 2
Fore
SplineSet
240 1482 m 1,0,-1
 333 1579 l 1,1,-1
 686 1369 l 1,2,-1
 1040 1579 l 1,3,-1
 1134 1482 l 1,4,-1
 839 1153 l 1,5,-1
 535 1153 l 1,6,-1
 240 1482 l 1,0,-1
805 797 m 1,7,-1
 617 797 l 1,8,-1
 617 913 l 1,9,-1
 765 1062 l 1,10,-1
 1033 1062 l 1,11,-1
 1248 814 l 1,12,-1
 1248 539 l 1,13,-1
 805 539 l 1,14,-1
 805 797 l 1,7,-1
104 1062 m 1,15,-1
 546 1062 l 1,16,-1
 546 0 l 1,17,-1
 104 0 l 1,18,-1
 104 1062 l 1,15,-1
EndSplineSet
EndChar

StartChar: rcommaaccent
Encoding: 343 343 179
Width: 1280
Flags: W
LayerCount: 2
Fore
SplineSet
805 797 m 1,0,-1
 617 797 l 1,1,-1
 617 913 l 1,2,-1
 765 1062 l 1,3,-1
 1033 1062 l 1,4,-1
 1248 814 l 1,5,-1
 1248 539 l 1,6,-1
 805 539 l 1,7,-1
 805 797 l 1,0,-1
104 1062 m 1,8,-1
 546 1062 l 1,9,-1
 546 0 l 1,10,-1
 104 0 l 1,11,-1
 104 1062 l 1,8,-1
612 -86 m 1,12,-1
 612 -253 l 1,13,-1
 445 -446 l 1,14,-1
 267 -446 l 1,15,-1
 328 -288 l 1,16,-1
 170 -288 l 1,17,-1
 170 -86 l 1,18,-1
 612 -86 l 1,12,-1
EndSplineSet
EndChar

StartChar: germandbls
Encoding: 223 223 180
Width: 1443
Flags: W
LayerCount: 2
Fore
SplineSet
666 265 m 1,0,-1
 924 265 l 1,1,-1
 924 694 l 1,2,-1
 695 694 l 1,3,-1
 695 908 l 1,4,-1
 845 908 l 1,5,-1
 845 1203 l 1,6,-1
 614 1203 l 1,7,-1
 614 1467 l 1,8,-1
 1016 1467 l 1,9,-1
 1237 1247 l 1,10,-1
 1237 902 l 1,11,-1
 1166 834 l 1,12,-1
 1365 631 l 1,13,-1
 1365 253 l 1,14,-1
 1112 0 l 1,15,-1
 666 0 l 1,16,-1
 666 265 l 1,0,-1
104 1203 m 1,17,-1
 369 1467 l 1,18,-1
 546 1467 l 1,19,-1
 546 0 l 1,20,-1
 104 0 l 1,21,-1
 104 1203 l 1,17,-1
EndSplineSet
EndChar

StartChar: ugrave
Encoding: 249 249 181
Width: 1350
Flags: W
LayerCount: 2
Fore
SplineSet
294 1522 m 1,0,-1
 478 1607 l 1,1,-1
 964 1291 l 1,2,-1
 903 1144 l 1,3,-1
 348 1311 l 1,4,-1
 294 1522 l 1,0,-1
804 1062 m 1,5,-1
 1246 1062 l 1,6,-1
 1246 0 l 1,7,-1
 804 0 l 1,8,-1
 804 1062 l 1,5,-1
95 1062 m 1,9,-1
 537 1062 l 1,10,-1
 537 265 l 1,11,-1
 734 265 l 1,12,-1
 734 133 l 1,13,-1
 606 0 l 1,14,-1
 361 0 l 1,15,-1
 95 265 l 1,16,-1
 95 1062 l 1,9,-1
EndSplineSet
EndChar

StartChar: uacute
Encoding: 250 250 182
Width: 1350
Flags: W
LayerCount: 2
Fore
SplineSet
385 1291 m 1,0,-1
 871 1607 l 1,1,-1
 1055 1522 l 1,2,-1
 1001 1311 l 1,3,-1
 447 1144 l 1,4,-1
 385 1291 l 1,0,-1
804 1062 m 1,5,-1
 1246 1062 l 1,6,-1
 1246 0 l 1,7,-1
 804 0 l 1,8,-1
 804 1062 l 1,5,-1
95 1062 m 1,9,-1
 537 1062 l 1,10,-1
 537 265 l 1,11,-1
 734 265 l 1,12,-1
 734 133 l 1,13,-1
 606 0 l 1,14,-1
 361 0 l 1,15,-1
 95 265 l 1,16,-1
 95 1062 l 1,9,-1
EndSplineSet
EndChar

StartChar: ucircumflex
Encoding: 251 251 183
Width: 1350
Flags: W
LayerCount: 2
Fore
SplineSet
223 1250 m 1,0,-1
 518 1579 l 1,1,-1
 822 1579 l 1,2,-1
 1117 1250 l 1,3,-1
 1024 1153 l 1,4,-1
 670 1363 l 1,5,-1
 317 1153 l 1,6,-1
 223 1250 l 1,0,-1
804 1062 m 1,7,-1
 1246 1062 l 1,8,-1
 1246 0 l 1,9,-1
 804 0 l 1,10,-1
 804 1062 l 1,7,-1
95 1062 m 1,11,-1
 537 1062 l 1,12,-1
 537 265 l 1,13,-1
 734 265 l 1,14,-1
 734 133 l 1,15,-1
 606 0 l 1,16,-1
 361 0 l 1,17,-1
 95 265 l 1,18,-1
 95 1062 l 1,11,-1
EndSplineSet
EndChar

StartChar: udieresis
Encoding: 252 252 184
Width: 1350
Flags: W
LayerCount: 2
Fore
SplineSet
769 1560 m 1,0,-1
 1105 1560 l 1,1,-1
 1105 1279 l 1,2,-1
 769 1279 l 1,3,-1
 769 1560 l 1,0,-1
239 1560 m 1,4,-1
 575 1560 l 1,5,-1
 575 1279 l 1,6,-1
 239 1279 l 1,7,-1
 239 1560 l 1,4,-1
804 1062 m 1,8,-1
 1246 1062 l 1,9,-1
 1246 0 l 1,10,-1
 804 0 l 1,11,-1
 804 1062 l 1,8,-1
95 1062 m 1,12,-1
 537 1062 l 1,13,-1
 537 265 l 1,14,-1
 734 265 l 1,15,-1
 734 133 l 1,16,-1
 606 0 l 1,17,-1
 361 0 l 1,18,-1
 95 265 l 1,19,-1
 95 1062 l 1,12,-1
EndSplineSet
EndChar

StartChar: yacute
Encoding: 253 253 185
Width: 1221
Flags: W
LayerCount: 2
Fore
SplineSet
277 1291 m 1,0,-1
 763 1607 l 1,1,-1
 947 1522 l 1,2,-1
 893 1311 l 1,3,-1
 339 1144 l 1,4,-1
 277 1291 l 1,0,-1
810 1062 m 1,5,-1
 1235 1062 l 1,6,-1
 696 -370 l 1,7,-1
 272 -370 l 1,8,-1
 810 1062 l 1,5,-1
-14 1062 m 1,9,-1
 427 1062 l 1,10,-1
 576 630 l 1,11,-1
 378 89 l 1,12,-1
 -14 1062 l 1,9,-1
EndSplineSet
EndChar

StartChar: ydieresis
Encoding: 255 255 186
Width: 1221
Flags: W
LayerCount: 2
Fore
SplineSet
710 1560 m 1,0,-1
 1046 1560 l 1,1,-1
 1046 1279 l 1,2,-1
 710 1279 l 1,3,-1
 710 1560 l 1,0,-1
180 1560 m 1,4,-1
 516 1560 l 1,5,-1
 516 1279 l 1,6,-1
 180 1279 l 1,7,-1
 180 1560 l 1,4,-1
810 1062 m 1,8,-1
 1235 1062 l 1,9,-1
 696 -370 l 1,10,-1
 272 -370 l 1,11,-1
 810 1062 l 1,8,-1
-14 1062 m 1,12,-1
 427 1062 l 1,13,-1
 576 630 l 1,14,-1
 378 89 l 1,15,-1
 -14 1062 l 1,12,-1
EndSplineSet
EndChar

StartChar: eth
Encoding: 240 240 187
Width: 1353
Flags: W
LayerCount: 2
Fore
SplineSet
805 962 m 1,0,-1
 717 1085 l 1,1,-1
 550 1039 l 1,2,-1
 442 1226 l 1,3,-1
 605 1276 l 1,4,-1
 522 1375 l 1,5,-1
 897 1476 l 1,6,-1
 971 1379 l 1,7,-1
 1136 1431 l 1,8,-1
 1246 1244 l 1,9,-1
 1093 1197 l 1,10,-1
 1245 966 l 1,11,-1
 1248 265 l 1,12,-1
 982 0 l 1,13,-1
 805 0 l 1,14,-1
 805 962 l 1,0,-1
97 702 m 1,15,-1
 363 941 l 1,16,-1
 735 941 l 1,17,-1
 735 702 l 1,18,-1
 539 702 l 1,19,-1
 539 265 l 1,20,-1
 735 265 l 1,21,-1
 735 0 l 1,22,-1
 363 0 l 1,23,-1
 97 265 l 1,24,-1
 97 702 l 1,15,-1
EndSplineSet
EndChar

StartChar: thorn
Encoding: 254 254 188
Width: 1349
Flags: W
LayerCount: 2
Fore
SplineSet
104 1450 m 1,0,-1
 546 1450 l 1,1,-1
 546 -354 l 1,2,-1
 104 -354 l 1,3,-1
 104 1450 l 1,0,-1
613 265 m 1,4,-1
 811 265 l 1,5,-1
 811 797 l 1,6,-1
 613 797 l 1,7,-1
 613 931 l 1,8,-1
 744 1062 l 1,9,-1
 988 1062 l 1,10,-1
 1254 797 l 1,11,-1
 1254 265 l 1,12,-1
 988 0 l 1,13,-1
 613 0 l 1,14,-1
 613 265 l 1,4,-1
EndSplineSet
EndChar

StartChar: AE
Encoding: 198 198 189
Width: 2305
Flags: W
LayerCount: 2
Fore
SplineSet
1516 1327 m 1,0,-1
 2246 1327 l 1,1,-1
 2246 929 l 1,2,-1
 1803 929 l 1,3,-1
 1803 1062 l 1,4,-1
 1516 1062 l 1,5,-1
 1516 1327 l 1,0,-1
1007 1327 m 1,6,-1
 1449 1327 l 1,7,-1
 1449 797 l 1,8,-1
 1891 797 l 1,9,-1
 1891 530 l 1,10,-1
 1449 530 l 1,11,-1
 1449 0 l 1,12,-1
 1007 0 l 1,13,-1
 1007 1327 l 1,6,-1
642 1327 m 1,14,-1
 939 1327 l 1,15,-1
 939 1051 l 1,16,-1
 678 474 l 1,17,-1
 939 474 l 1,18,-1
 939 211 l 1,19,-1
 560 211 l 1,20,-1
 465 0 l 1,21,-1
 9 0 l 1,22,-1
 642 1327 l 1,14,-1
1516 265 m 1,23,-1
 1803 265 l 1,24,-1
 1803 398 l 1,25,-1
 2246 398 l 1,26,-1
 2246 0 l 1,27,-1
 1516 0 l 1,28,-1
 1516 265 l 1,23,-1
EndSplineSet
EndChar

StartChar: Agrave
Encoding: 192 192 190
Width: 1500
Flags: W
LayerCount: 2
Fore
SplineSet
305 1688 m 1,0,-1
 460 1766 l 1,1,-1
 906 1516 l 1,2,-1
 854 1394 l 1,3,-1
 352 1519 l 1,4,-1
 305 1688 l 1,0,-1
636 380 m 1,5,-1
 897 380 l 1,6,-1
 531 1327 l 1,7,-1
 962 1327 l 1,8,-1
 1491 0 l 1,9,-1
 1044 0 l 1,10,-1
 998 117 l 1,11,-1
 544 117 l 1,12,-1
 636 380 l 1,5,-1
483 1267 m 1,13,-1
 679 740 l 1,14,-1
 436 0 l 1,15,-1
 9 0 l 1,16,-1
 483 1267 l 1,13,-1
EndSplineSet
EndChar

StartChar: Aacute
Encoding: 193 193 191
Width: 1500
Flags: W
LayerCount: 2
Fore
SplineSet
586 1516 m 1,0,-1
 1032 1766 l 1,1,-1
 1187 1688 l 1,2,-1
 1140 1519 l 1,3,-1
 637 1394 l 1,4,-1
 586 1516 l 1,0,-1
636 380 m 1,5,-1
 897 380 l 1,6,-1
 531 1327 l 1,7,-1
 962 1327 l 1,8,-1
 1491 0 l 1,9,-1
 1044 0 l 1,10,-1
 998 117 l 1,11,-1
 544 117 l 1,12,-1
 636 380 l 1,5,-1
483 1267 m 1,13,-1
 679 740 l 1,14,-1
 436 0 l 1,15,-1
 9 0 l 1,16,-1
 483 1267 l 1,13,-1
EndSplineSet
EndChar

StartChar: Acircumflex
Encoding: 194 194 192
Width: 1500
Flags: W
LayerCount: 2
Fore
SplineSet
363 1462 m 1,0,-1
 619 1731 l 1,1,-1
 871 1731 l 1,2,-1
 1125 1461 l 1,3,-1
 1049 1382 l 1,4,-1
 746 1551 l 1,5,-1
 440 1382 l 1,6,-1
 363 1462 l 1,0,-1
636 380 m 1,7,-1
 897 380 l 1,8,-1
 531 1327 l 1,9,-1
 962 1327 l 1,10,-1
 1491 0 l 1,11,-1
 1044 0 l 1,12,-1
 998 117 l 1,13,-1
 544 117 l 1,14,-1
 636 380 l 1,7,-1
483 1267 m 1,15,-1
 679 740 l 1,16,-1
 436 0 l 1,17,-1
 9 0 l 1,18,-1
 483 1267 l 1,15,-1
EndSplineSet
EndChar

StartChar: Atilde
Encoding: 195 195 193
Width: 1500
Flags: W
LayerCount: 2
Fore
SplineSet
318 1512 m 1,0,-1
 525 1726 l 1,1,-1
 730 1726 l 1,2,-1
 890 1609 l 1,3,-1
 931 1609 l 1,4,-1
 1112 1716 l 1,5,-1
 1176 1638 l 1,6,-1
 969 1424 l 1,7,-1
 764 1424 l 1,8,-1
 604 1540 l 1,9,-1
 563 1540 l 1,10,-1
 382 1434 l 1,11,-1
 318 1512 l 1,0,-1
636 380 m 1,12,-1
 897 380 l 1,13,-1
 531 1327 l 1,14,-1
 962 1327 l 1,15,-1
 1491 0 l 1,16,-1
 1044 0 l 1,17,-1
 998 117 l 1,18,-1
 544 117 l 1,19,-1
 636 380 l 1,12,-1
483 1267 m 1,20,-1
 679 740 l 1,21,-1
 436 0 l 1,22,-1
 9 0 l 1,23,-1
 483 1267 l 1,20,-1
EndSplineSet
EndChar

StartChar: Adieresis
Encoding: 196 196 194
Width: 1500
Flags: W
LayerCount: 2
Fore
SplineSet
844 1681 m 1,0,-1
 1180 1681 l 1,1,-1
 1180 1460 l 1,2,-1
 844 1460 l 1,3,-1
 844 1681 l 1,0,-1
314 1681 m 1,4,-1
 650 1681 l 1,5,-1
 650 1460 l 1,6,-1
 314 1460 l 1,7,-1
 314 1681 l 1,4,-1
636 380 m 1,8,-1
 897 380 l 1,9,-1
 531 1327 l 1,10,-1
 962 1327 l 1,11,-1
 1491 0 l 1,12,-1
 1044 0 l 1,13,-1
 998 117 l 1,14,-1
 544 117 l 1,15,-1
 636 380 l 1,8,-1
483 1267 m 1,16,-1
 679 740 l 1,17,-1
 436 0 l 1,18,-1
 9 0 l 1,19,-1
 483 1267 l 1,16,-1
EndSplineSet
EndChar

StartChar: Aring
Encoding: 197 197 195
Width: 1499
Flags: W
LayerCount: 2
Fore
SplineSet
645 380 m 1,0,-1
 896 380 l 1,1,-1
 543 1296 l 1,2,-1
 458 1381 l 1,3,-1
 458 1588 l 1,4,-1
 595 1725 l 1,5,-1
 711 1725 l 1,6,-1
 711 1570 l 1,7,-1
 634 1570 l 1,8,-1
 634 1364 l 1,9,-1
 858 1364 l 1,10,-1
 858 1570 l 1,11,-1
 780 1570 l 1,12,-1
 780 1725 l 1,13,-1
 895 1725 l 1,14,-1
 1033 1588 l 1,15,-1
 1033 1381 l 1,16,-1
 966 1313 l 1,17,-1
 1490 0 l 1,18,-1
 1043 0 l 1,19,-1
 998 117 l 1,20,-1
 554 117 l 1,21,-1
 645 380 l 1,0,-1
482 1261 m 1,22,-1
 689 726 l 1,23,-1
 446 0 l 1,24,-1
 8 0 l 1,25,-1
 482 1261 l 1,22,-1
EndSplineSet
EndChar

StartChar: Ccedilla
Encoding: 199 199 196
Width: 1440
Flags: W
LayerCount: 2
Fore
SplineSet
903 1062 m 1,0,-1
 609 1062 l 1,1,-1
 609 1327 l 1,2,-1
 1080 1327 l 1,3,-1
 1345 1062 l 1,4,-1
 1345 795 l 1,5,-1
 903 795 l 1,6,-1
 903 1062 l 1,0,-1
97 1062 m 1,7,-1
 363 1327 l 1,8,-1
 539 1327 l 1,9,-1
 539 0 l 1,10,-1
 363 0 l 1,11,-1
 97 265 l 1,12,-1
 97 1062 l 1,7,-1
609 265 m 1,13,-1
 903 265 l 1,14,-1
 903 459 l 1,15,-1
 1345 459 l 1,16,-1
 1345 265 l 1,17,-1
 1080 0 l 1,18,-1
 609 0 l 1,19,-1
 609 265 l 1,13,-1
710 -225 m 1,20,-1
 710 -62 l 1,21,-1
 912 -62 l 1,22,-1
 912 -245 l 1,23,-1
 737 -445 l 1,24,-1
 425 -445 l 1,25,-1
 425 -225 l 1,26,-1
 710 -225 l 1,20,-1
EndSplineSet
EndChar

StartChar: Egrave
Encoding: 200 200 197
Width: 1414
Flags: W
LayerCount: 2
Fore
SplineSet
292 1688 m 1,0,-1
 447 1766 l 1,1,-1
 893 1516 l 1,2,-1
 841 1394 l 1,3,-1
 339 1519 l 1,4,-1
 292 1688 l 1,0,-1
627 1327 m 1,5,-1
 1318 1327 l 1,6,-1
 1318 943 l 1,7,-1
 902 943 l 1,8,-1
 902 1070 l 1,9,-1
 627 1070 l 1,10,-1
 627 1327 l 1,5,-1
115 1327 m 1,11,-1
 557 1327 l 1,12,-1
 557 801 l 1,13,-1
 980 801 l 1,14,-1
 980 545 l 1,15,-1
 557 545 l 1,16,-1
 557 0 l 1,17,-1
 115 0 l 1,18,-1
 115 1327 l 1,11,-1
627 265 m 1,19,-1
 876 265 l 1,20,-1
 876 398 l 1,21,-1
 1318 398 l 1,22,-1
 1318 0 l 1,23,-1
 627 0 l 1,24,-1
 627 265 l 1,19,-1
EndSplineSet
EndChar

StartChar: Eacute
Encoding: 201 201 198
Width: 1414
Flags: W
LayerCount: 2
Fore
SplineSet
573 1516 m 1,0,-1
 1019 1766 l 1,1,-1
 1174 1688 l 1,2,-1
 1127 1519 l 1,3,-1
 624 1394 l 1,4,-1
 573 1516 l 1,0,-1
627 1327 m 1,5,-1
 1318 1327 l 1,6,-1
 1318 943 l 1,7,-1
 902 943 l 1,8,-1
 902 1070 l 1,9,-1
 627 1070 l 1,10,-1
 627 1327 l 1,5,-1
115 1327 m 1,11,-1
 557 1327 l 1,12,-1
 557 801 l 1,13,-1
 980 801 l 1,14,-1
 980 545 l 1,15,-1
 557 545 l 1,16,-1
 557 0 l 1,17,-1
 115 0 l 1,18,-1
 115 1327 l 1,11,-1
627 265 m 1,19,-1
 876 265 l 1,20,-1
 876 398 l 1,21,-1
 1318 398 l 1,22,-1
 1318 0 l 1,23,-1
 627 0 l 1,24,-1
 627 265 l 1,19,-1
EndSplineSet
EndChar

StartChar: Ecircumflex
Encoding: 202 202 199
Width: 1414
Flags: W
LayerCount: 2
Fore
SplineSet
350 1462 m 1,0,-1
 606 1731 l 1,1,-1
 858 1731 l 1,2,-1
 1112 1461 l 1,3,-1
 1036 1382 l 1,4,-1
 733 1551 l 1,5,-1
 427 1382 l 1,6,-1
 350 1462 l 1,0,-1
627 1327 m 1,7,-1
 1318 1327 l 1,8,-1
 1318 943 l 1,9,-1
 902 943 l 1,10,-1
 902 1070 l 1,11,-1
 627 1070 l 1,12,-1
 627 1327 l 1,7,-1
115 1327 m 1,13,-1
 557 1327 l 1,14,-1
 557 801 l 1,15,-1
 980 801 l 1,16,-1
 980 545 l 1,17,-1
 557 545 l 1,18,-1
 557 0 l 1,19,-1
 115 0 l 1,20,-1
 115 1327 l 1,13,-1
627 265 m 1,21,-1
 876 265 l 1,22,-1
 876 398 l 1,23,-1
 1318 398 l 1,24,-1
 1318 0 l 1,25,-1
 627 0 l 1,26,-1
 627 265 l 1,21,-1
EndSplineSet
EndChar

StartChar: Edieresis
Encoding: 203 203 200
Width: 1414
Flags: W
LayerCount: 2
Fore
SplineSet
831 1681 m 1,0,-1
 1167 1681 l 1,1,-1
 1167 1460 l 1,2,-1
 831 1460 l 1,3,-1
 831 1681 l 1,0,-1
301 1681 m 1,4,-1
 637 1681 l 1,5,-1
 637 1460 l 1,6,-1
 301 1460 l 1,7,-1
 301 1681 l 1,4,-1
627 1327 m 1,8,-1
 1318 1327 l 1,9,-1
 1318 943 l 1,10,-1
 902 943 l 1,11,-1
 902 1070 l 1,12,-1
 627 1070 l 1,13,-1
 627 1327 l 1,8,-1
115 1327 m 1,14,-1
 557 1327 l 1,15,-1
 557 801 l 1,16,-1
 980 801 l 1,17,-1
 980 545 l 1,18,-1
 557 545 l 1,19,-1
 557 0 l 1,20,-1
 115 0 l 1,21,-1
 115 1327 l 1,14,-1
627 265 m 1,22,-1
 876 265 l 1,23,-1
 876 398 l 1,24,-1
 1318 398 l 1,25,-1
 1318 0 l 1,26,-1
 627 0 l 1,27,-1
 627 265 l 1,22,-1
EndSplineSet
EndChar

StartChar: Igrave
Encoding: 204 204 201
Width: 902
Flags: W
LayerCount: 2
Fore
SplineSet
57 1519 m 1,0,-1
 10 1688 l 1,1,-1
 165 1766 l 1,2,-1
 611 1516 l 1,3,-1
 559 1394 l 1,4,-1
 57 1519 l 1,0,-1
97 283 m 1,5,-1
 230 283 l 1,6,-1
 230 1045 l 1,7,-1
 97 1045 l 1,8,-1
 97 1327 l 1,9,-1
 805 1327 l 1,10,-1
 805 1045 l 1,11,-1
 672 1045 l 1,12,-1
 672 283 l 1,13,-1
 805 283 l 1,14,-1
 805 0 l 1,15,-1
 97 0 l 1,16,-1
 97 283 l 1,5,-1
EndSplineSet
EndChar

StartChar: Iacute
Encoding: 205 205 202
Width: 902
Flags: W
LayerCount: 2
Fore
SplineSet
291 1516 m 1,0,-1
 737 1766 l 1,1,-1
 892 1688 l 1,2,-1
 845 1519 l 1,3,-1
 342 1394 l 1,4,-1
 291 1516 l 1,0,-1
97 283 m 1,5,-1
 230 283 l 1,6,-1
 230 1045 l 1,7,-1
 97 1045 l 1,8,-1
 97 1327 l 1,9,-1
 805 1327 l 1,10,-1
 805 1045 l 1,11,-1
 672 1045 l 1,12,-1
 672 283 l 1,13,-1
 805 283 l 1,14,-1
 805 0 l 1,15,-1
 97 0 l 1,16,-1
 97 283 l 1,5,-1
EndSplineSet
EndChar

StartChar: Itilde
Encoding: 296 296 203
Width: 902
Flags: W
LayerCount: 2
Fore
SplineSet
23 1512 m 1,0,-1
 230 1726 l 1,1,-1
 435 1726 l 1,2,-1
 595 1609 l 1,3,-1
 636 1609 l 1,4,-1
 817 1716 l 1,5,-1
 881 1638 l 1,6,-1
 674 1424 l 1,7,-1
 469 1424 l 1,8,-1
 309 1540 l 1,9,-1
 268 1540 l 1,10,-1
 87 1434 l 1,11,-1
 23 1512 l 1,0,-1
97 283 m 1,12,-1
 230 283 l 1,13,-1
 230 1045 l 1,14,-1
 97 1045 l 1,15,-1
 97 1327 l 1,16,-1
 805 1327 l 1,17,-1
 805 1045 l 1,18,-1
 672 1045 l 1,19,-1
 672 283 l 1,20,-1
 805 283 l 1,21,-1
 805 0 l 1,22,-1
 97 0 l 1,23,-1
 97 283 l 1,12,-1
EndSplineSet
EndChar

StartChar: Icircumflex
Encoding: 206 206 204
Width: 902
Flags: W
LayerCount: 2
Fore
SplineSet
68 1462 m 1,0,-1
 324 1731 l 1,1,-1
 576 1731 l 1,2,-1
 830 1461 l 1,3,-1
 754 1382 l 1,4,-1
 451 1551 l 1,5,-1
 145 1382 l 1,6,-1
 68 1462 l 1,0,-1
97 283 m 1,7,-1
 230 283 l 1,8,-1
 230 1045 l 1,9,-1
 97 1045 l 1,10,-1
 97 1327 l 1,11,-1
 805 1327 l 1,12,-1
 805 1045 l 1,13,-1
 672 1045 l 1,14,-1
 672 283 l 1,15,-1
 805 283 l 1,16,-1
 805 0 l 1,17,-1
 97 0 l 1,18,-1
 97 283 l 1,7,-1
EndSplineSet
EndChar

StartChar: Idieresis
Encoding: 207 207 205
Width: 902
Flags: W
LayerCount: 2
Fore
SplineSet
548 1681 m 1,0,-1
 884 1681 l 1,1,-1
 884 1460 l 1,2,-1
 548 1460 l 1,3,-1
 548 1681 l 1,0,-1
18 1681 m 1,4,-1
 354 1681 l 1,5,-1
 354 1460 l 1,6,-1
 18 1460 l 1,7,-1
 18 1681 l 1,4,-1
97 283 m 1,8,-1
 230 283 l 1,9,-1
 230 1045 l 1,10,-1
 97 1045 l 1,11,-1
 97 1327 l 1,12,-1
 805 1327 l 1,13,-1
 805 1045 l 1,14,-1
 672 1045 l 1,15,-1
 672 283 l 1,16,-1
 805 283 l 1,17,-1
 805 0 l 1,18,-1
 97 0 l 1,19,-1
 97 283 l 1,8,-1
EndSplineSet
EndChar

StartChar: IJ
Encoding: 306 306 206
Width: 1468
Flags: W
LayerCount: 2
Fore
SplineSet
119 265 m 1,0,-1
 922 265 l 1,1,-1
 922 1327 l 1,2,-1
 1364 1327 l 1,3,-1
 1364 265 l 1,4,-1
 1099 0 l 1,5,-1
 117 0 l 1,6,-1
 119 265 l 1,0,-1
117 1327 m 1,7,-1
 576 1327 l 1,8,-1
 576 432 l 1,9,-1
 117 432 l 1,10,-1
 117 1327 l 1,7,-1
EndSplineSet
EndChar

StartChar: Jcircumflex
Encoding: 308 308 207
Width: 1380
Flags: W
LayerCount: 2
Fore
SplineSet
390 1462 m 1,0,-1
 646 1731 l 1,1,-1
 898 1731 l 1,2,-1
 1152 1461 l 1,3,-1
 1076 1382 l 1,4,-1
 773 1551 l 1,5,-1
 467 1382 l 1,6,-1
 390 1462 l 1,0,-1
832 1038 m 1,7,-1
 222 1038 l 1,8,-1
 222 1327 l 1,9,-1
 1274 1327 l 1,10,-1
 1274 265 l 1,11,-1
 1009 0 l 1,12,-1
 832 0 l 1,13,-1
 832 1038 l 1,7,-1
61 556 m 1,14,-1
 520 556 l 1,15,-1
 520 265 l 1,16,-1
 762 265 l 1,17,-1
 762 0 l 1,18,-1
 327 0 l 1,19,-1
 61 265 l 1,20,-1
 61 556 l 1,14,-1
EndSplineSet
EndChar

StartChar: Lslash
Encoding: 321 321 208
Width: 1266
Flags: W
LayerCount: 2
Fore
SplineSet
117 620 m 1,0,-1
 26 600 l 1,1,-1
 26 777 l 1,2,-1
 117 797 l 1,3,-1
 117 1327 l 1,4,-1
 559 1327 l 1,5,-1
 559 898 l 1,6,-1
 1000 998 l 1,7,-1
 1000 821 l 1,8,-1
 559 721 l 1,9,-1
 559 0 l 1,10,-1
 117 0 l 1,11,-1
 117 620 l 1,0,-1
626 265 m 1,12,-1
 824 265 l 1,13,-1
 824 398 l 1,14,-1
 1267 398 l 1,15,-1
 1267 0 l 1,16,-1
 626 0 l 1,17,-1
 626 265 l 1,12,-1
EndSplineSet
EndChar

StartChar: Ldotaccent
Encoding: 319 319 209
Width: 1265
Flags: W
LayerCount: 2
Fore
SplineSet
115 1327 m 1,0,-1
 557 1327 l 1,1,-1
 557 0 l 1,2,-1
 115 0 l 1,3,-1
 115 1327 l 1,0,-1
730 938 m 1,4,-1
 862 1071 l 1,5,-1
 1039 1071 l 1,6,-1
 1172 938 l 1,7,-1
 1172 761 l 1,8,-1
 1039 629 l 1,9,-1
 862 629 l 1,10,-1
 730 761 l 1,11,-1
 730 938 l 1,4,-1
627 265 m 1,12,-1
 846 265 l 1,13,-1
 846 433 l 1,14,-1
 1247 433 l 1,15,-1
 1247 0 l 1,16,-1
 627 0 l 1,17,-1
 627 265 l 1,12,-1
EndSplineSet
EndChar

StartChar: Nacute
Encoding: 323 323 210
Width: 1508
Flags: W
LayerCount: 2
Fore
SplineSet
507 1516 m 1,0,-1
 953 1766 l 1,1,-1
 1108 1688 l 1,2,-1
 1061 1519 l 1,3,-1
 558 1394 l 1,4,-1
 507 1516 l 1,0,-1
1006 1327 m 1,5,-1
 1391 1327 l 1,6,-1
 1391 126 l 1,7,-1
 1006 760 l 1,8,-1
 1006 1327 l 1,5,-1
117 1327 m 1,9,-1
 584 1327 l 1,10,-1
 1391 0 l 1,11,-1
 921 0 l 1,12,-1
 117 1327 l 1,9,-1
117 1201 m 1,13,-1
 502 570 l 1,14,-1
 502 0 l 1,15,-1
 117 0 l 1,16,-1
 117 1201 l 1,13,-1
EndSplineSet
EndChar

StartChar: Ntilde
Encoding: 209 209 211
Width: 1508
Flags: W
LayerCount: 2
Fore
SplineSet
316 1512 m 1,0,-1
 523 1726 l 1,1,-1
 728 1726 l 1,2,-1
 888 1609 l 1,3,-1
 929 1609 l 1,4,-1
 1110 1716 l 1,5,-1
 1174 1638 l 1,6,-1
 967 1424 l 1,7,-1
 762 1424 l 1,8,-1
 602 1540 l 1,9,-1
 561 1540 l 1,10,-1
 380 1434 l 1,11,-1
 316 1512 l 1,0,-1
1006 1327 m 1,12,-1
 1391 1327 l 1,13,-1
 1391 126 l 1,14,-1
 1006 760 l 1,15,-1
 1006 1327 l 1,12,-1
117 1327 m 1,16,-1
 584 1327 l 1,17,-1
 1391 0 l 1,18,-1
 921 0 l 1,19,-1
 117 1327 l 1,16,-1
117 1201 m 1,20,-1
 502 570 l 1,21,-1
 502 0 l 1,22,-1
 117 0 l 1,23,-1
 117 1201 l 1,20,-1
EndSplineSet
EndChar

StartChar: OE
Encoding: 338 338 212
Width: 2261
Flags: W
LayerCount: 2
Fore
SplineSet
1437 1327 m 1,0,-1
 2166 1327 l 1,1,-1
 2166 929 l 1,2,-1
 1724 929 l 1,3,-1
 1724 1062 l 1,4,-1
 1437 1062 l 1,5,-1
 1437 1327 l 1,0,-1
761 265 m 1,6,-1
 927 265 l 1,7,-1
 927 1062 l 1,8,-1
 761 1062 l 1,9,-1
 761 1327 l 1,10,-1
 1055 1327 l 1,11,-1
 1147 1239 l 1,12,-1
 1234 1327 l 1,13,-1
 1369 1327 l 1,14,-1
 1369 785 l 1,15,-1
 1812 785 l 1,16,-1
 1812 553 l 1,17,-1
 1369 553 l 1,18,-1
 1369 0 l 1,19,-1
 1234 0 l 1,20,-1
 1145 88 l 1,21,-1
 1055 0 l 1,22,-1
 761 0 l 1,23,-1
 761 265 l 1,6,-1
86 1062 m 1,24,-1
 353 1327 l 1,25,-1
 694 1327 l 1,26,-1
 694 1062 l 1,27,-1
 529 1062 l 1,28,-1
 529 265 l 1,29,-1
 694 265 l 1,30,-1
 694 0 l 1,31,-1
 353 0 l 1,32,-1
 86 265 l 1,33,-1
 86 1062 l 1,24,-1
1437 265 m 1,34,-1
 1724 265 l 1,35,-1
 1724 398 l 1,36,-1
 2166 398 l 1,37,-1
 2166 0 l 1,38,-1
 1437 0 l 1,39,-1
 1437 265 l 1,34,-1
EndSplineSet
EndChar

StartChar: Ograve
Encoding: 210 210 213
Width: 1463
Flags: W
LayerCount: 2
Fore
SplineSet
287 1688 m 1,0,-1
 442 1766 l 1,1,-1
 888 1516 l 1,2,-1
 836 1394 l 1,3,-1
 334 1519 l 1,4,-1
 287 1688 l 1,0,-1
765 270 m 1,5,-1
 934 270 l 1,6,-1
 934 1058 l 1,7,-1
 765 1058 l 1,8,-1
 765 1327 l 1,9,-1
 1108 1327 l 1,10,-1
 1376 1062 l 1,11,-1
 1376 265 l 1,12,-1
 1108 0 l 1,13,-1
 765 0 l 1,14,-1
 765 270 l 1,5,-1
86 1062 m 1,15,-1
 355 1327 l 1,16,-1
 695 1327 l 1,17,-1
 695 1058 l 1,18,-1
 529 1058 l 1,19,-1
 529 270 l 1,20,-1
 695 270 l 1,21,-1
 695 0 l 1,22,-1
 355 0 l 1,23,-1
 86 265 l 1,24,-1
 86 1062 l 1,15,-1
EndSplineSet
EndChar

StartChar: Oacute
Encoding: 211 211 214
Width: 1463
Flags: W
LayerCount: 2
Fore
SplineSet
568 1516 m 1,0,-1
 1014 1766 l 1,1,-1
 1169 1688 l 1,2,-1
 1122 1519 l 1,3,-1
 619 1394 l 1,4,-1
 568 1516 l 1,0,-1
765 270 m 1,5,-1
 934 270 l 1,6,-1
 934 1058 l 1,7,-1
 765 1058 l 1,8,-1
 765 1327 l 1,9,-1
 1108 1327 l 1,10,-1
 1376 1062 l 1,11,-1
 1376 265 l 1,12,-1
 1108 0 l 1,13,-1
 765 0 l 1,14,-1
 765 270 l 1,5,-1
86 1062 m 1,15,-1
 355 1327 l 1,16,-1
 695 1327 l 1,17,-1
 695 1058 l 1,18,-1
 529 1058 l 1,19,-1
 529 270 l 1,20,-1
 695 270 l 1,21,-1
 695 0 l 1,22,-1
 355 0 l 1,23,-1
 86 265 l 1,24,-1
 86 1062 l 1,15,-1
EndSplineSet
EndChar

StartChar: Ocircumflex
Encoding: 212 212 215
Width: 1463
Flags: W
LayerCount: 2
Fore
SplineSet
345 1462 m 1,0,-1
 601 1731 l 1,1,-1
 853 1731 l 1,2,-1
 1107 1461 l 1,3,-1
 1031 1382 l 1,4,-1
 728 1551 l 1,5,-1
 422 1382 l 1,6,-1
 345 1462 l 1,0,-1
765 270 m 1,7,-1
 934 270 l 1,8,-1
 934 1058 l 1,9,-1
 765 1058 l 1,10,-1
 765 1327 l 1,11,-1
 1108 1327 l 1,12,-1
 1376 1062 l 1,13,-1
 1376 265 l 1,14,-1
 1108 0 l 1,15,-1
 765 0 l 1,16,-1
 765 270 l 1,7,-1
86 1062 m 1,17,-1
 355 1327 l 1,18,-1
 695 1327 l 1,19,-1
 695 1058 l 1,20,-1
 529 1058 l 1,21,-1
 529 270 l 1,22,-1
 695 270 l 1,23,-1
 695 0 l 1,24,-1
 355 0 l 1,25,-1
 86 265 l 1,26,-1
 86 1062 l 1,17,-1
EndSplineSet
EndChar

StartChar: Otilde
Encoding: 213 213 216
Width: 1463
Flags: W
LayerCount: 2
Fore
SplineSet
300 1512 m 1,0,-1
 507 1726 l 1,1,-1
 712 1726 l 1,2,-1
 872 1609 l 1,3,-1
 913 1609 l 1,4,-1
 1094 1716 l 1,5,-1
 1158 1638 l 1,6,-1
 951 1424 l 1,7,-1
 746 1424 l 1,8,-1
 586 1540 l 1,9,-1
 545 1540 l 1,10,-1
 364 1434 l 1,11,-1
 300 1512 l 1,0,-1
765 270 m 1,12,-1
 934 270 l 1,13,-1
 934 1058 l 1,14,-1
 765 1058 l 1,15,-1
 765 1327 l 1,16,-1
 1108 1327 l 1,17,-1
 1376 1062 l 1,18,-1
 1376 265 l 1,19,-1
 1108 0 l 1,20,-1
 765 0 l 1,21,-1
 765 270 l 1,12,-1
86 1062 m 1,22,-1
 355 1327 l 1,23,-1
 695 1327 l 1,24,-1
 695 1058 l 1,25,-1
 529 1058 l 1,26,-1
 529 270 l 1,27,-1
 695 270 l 1,28,-1
 695 0 l 1,29,-1
 355 0 l 1,30,-1
 86 265 l 1,31,-1
 86 1062 l 1,22,-1
EndSplineSet
EndChar

StartChar: Odieresis
Encoding: 214 214 217
Width: 1463
Flags: W
LayerCount: 2
Fore
SplineSet
826 1681 m 1,0,-1
 1162 1681 l 1,1,-1
 1162 1460 l 1,2,-1
 826 1460 l 1,3,-1
 826 1681 l 1,0,-1
296 1681 m 1,4,-1
 632 1681 l 1,5,-1
 632 1460 l 1,6,-1
 296 1460 l 1,7,-1
 296 1681 l 1,4,-1
765 270 m 1,8,-1
 934 270 l 1,9,-1
 934 1058 l 1,10,-1
 765 1058 l 1,11,-1
 765 1327 l 1,12,-1
 1108 1327 l 1,13,-1
 1376 1062 l 1,14,-1
 1376 265 l 1,15,-1
 1108 0 l 1,16,-1
 765 0 l 1,17,-1
 765 270 l 1,8,-1
86 1062 m 1,18,-1
 355 1327 l 1,19,-1
 695 1327 l 1,20,-1
 695 1058 l 1,21,-1
 529 1058 l 1,22,-1
 529 270 l 1,23,-1
 695 270 l 1,24,-1
 695 0 l 1,25,-1
 355 0 l 1,26,-1
 86 265 l 1,27,-1
 86 1062 l 1,18,-1
EndSplineSet
EndChar

StartChar: Oslash
Encoding: 216 216 218
Width: 1456
Flags: W
LayerCount: 2
Fore
SplineSet
715 264 m 1,0,-1
 927 265 l 1,1,-1
 927 1062 l 1,2,-1
 814 1062 l 1,3,-1
 923 1499 l 1,4,-1
 1271 1415 l 1,5,-1
 1217 1213 l 1,6,-1
 1369 1062 l 1,7,-1
 1369 265 l 1,8,-1
 1104 0 l 1,9,-1
 646 0 l 1,10,-1
 715 264 l 1,0,-1
240 111 m 1,11,-1
 86 265 l 1,12,-1
 86 1062 l 1,13,-1
 353 1327 l 1,14,-1
 814 1327 l 1,15,-1
 741 1062 l 1,16,-1
 529 1062 l 1,17,-1
 529 265 l 1,18,-1
 645 265 l 1,19,-1
 534 -172 l 1,20,-1
 187 -88 l 1,21,-1
 240 111 l 1,11,-1
EndSplineSet
EndChar

StartChar: Racute
Encoding: 340 340 219
Width: 1486
Flags: W
LayerCount: 2
Fore
SplineSet
620 1516 m 1,0,-1
 1066 1766 l 1,1,-1
 1221 1688 l 1,2,-1
 1174 1519 l 1,3,-1
 671 1394 l 1,4,-1
 620 1516 l 1,0,-1
629 655 m 1,5,-1
 961 655 l 1,6,-1
 961 1062 l 1,7,-1
 629 1062 l 1,8,-1
 629 1327 l 1,9,-1
 1134 1327 l 1,10,-1
 1400 1062 l 1,11,-1
 1400 664 l 1,12,-1
 1196 460 l 1,13,-1
 1445 0 l 1,14,-1
 973 0 l 1,15,-1
 783 398 l 1,16,-1
 629 398 l 1,17,-1
 629 655 l 1,5,-1
117 1327 m 1,18,-1
 559 1327 l 1,19,-1
 559 0 l 1,20,-1
 117 0 l 1,21,-1
 117 1327 l 1,18,-1
EndSplineSet
EndChar

StartChar: Rcaron
Encoding: 344 344 220
Width: 1486
Flags: W
LayerCount: 2
Fore
SplineSet
401 1653 m 1,0,-1
 478 1731 l 1,1,-1
 780 1563 l 1,2,-1
 1086 1731 l 1,3,-1
 1164 1652 l 1,4,-1
 907 1382 l 1,5,-1
 655 1382 l 1,6,-1
 401 1653 l 1,0,-1
629 655 m 1,7,-1
 961 655 l 1,8,-1
 961 1062 l 1,9,-1
 629 1062 l 1,10,-1
 629 1327 l 1,11,-1
 1134 1327 l 1,12,-1
 1400 1062 l 1,13,-1
 1400 664 l 1,14,-1
 1196 460 l 1,15,-1
 1445 0 l 1,16,-1
 973 0 l 1,17,-1
 783 398 l 1,18,-1
 629 398 l 1,19,-1
 629 655 l 1,7,-1
117 1327 m 1,20,-1
 559 1327 l 1,21,-1
 559 0 l 1,22,-1
 117 0 l 1,23,-1
 117 1327 l 1,20,-1
EndSplineSet
EndChar

StartChar: Rcommaaccent
Encoding: 342 342 221
Width: 1486
Flags: W
LayerCount: 2
Fore
SplineSet
629 655 m 1,0,-1
 961 655 l 1,1,-1
 961 1062 l 1,2,-1
 629 1062 l 1,3,-1
 629 1327 l 1,4,-1
 1134 1327 l 1,5,-1
 1400 1062 l 1,6,-1
 1400 664 l 1,7,-1
 1196 460 l 1,8,-1
 1445 0 l 1,9,-1
 973 0 l 1,10,-1
 783 398 l 1,11,-1
 629 398 l 1,12,-1
 629 655 l 1,0,-1
117 1327 m 1,13,-1
 559 1327 l 1,14,-1
 559 0 l 1,15,-1
 117 0 l 1,16,-1
 117 1327 l 1,13,-1
993 -86 m 1,17,-1
 993 -253 l 1,18,-1
 826 -446 l 1,19,-1
 648 -446 l 1,20,-1
 709 -288 l 1,21,-1
 551 -288 l 1,22,-1
 551 -86 l 1,23,-1
 993 -86 l 1,17,-1
EndSplineSet
EndChar

StartChar: Ugrave
Encoding: 217 217 222
Width: 1495
Flags: W
LayerCount: 2
Fore
SplineSet
427 1688 m 1,0,-1
 582 1766 l 1,1,-1
 1028 1516 l 1,2,-1
 976 1394 l 1,3,-1
 474 1519 l 1,4,-1
 427 1688 l 1,0,-1
782 265 m 1,5,-1
 946 265 l 1,6,-1
 946 1327 l 1,7,-1
 1388 1327 l 1,8,-1
 1388 265 l 1,9,-1
 1123 0 l 1,10,-1
 782 0 l 1,11,-1
 782 265 l 1,5,-1
106 1327 m 1,12,-1
 549 1327 l 1,13,-1
 549 265 l 1,14,-1
 712 265 l 1,15,-1
 712 0 l 1,16,-1
 372 0 l 1,17,-1
 106 265 l 1,18,-1
 106 1327 l 1,12,-1
EndSplineSet
EndChar

StartChar: Uacute
Encoding: 218 218 223
Width: 1495
Flags: W
LayerCount: 2
Fore
SplineSet
510 1516 m 1,0,-1
 956 1766 l 1,1,-1
 1111 1688 l 1,2,-1
 1064 1519 l 1,3,-1
 561 1394 l 1,4,-1
 510 1516 l 1,0,-1
782 265 m 1,5,-1
 946 265 l 1,6,-1
 946 1327 l 1,7,-1
 1388 1327 l 1,8,-1
 1388 265 l 1,9,-1
 1123 0 l 1,10,-1
 782 0 l 1,11,-1
 782 265 l 1,5,-1
106 1327 m 1,12,-1
 549 1327 l 1,13,-1
 549 265 l 1,14,-1
 712 265 l 1,15,-1
 712 0 l 1,16,-1
 372 0 l 1,17,-1
 106 265 l 1,18,-1
 106 1327 l 1,12,-1
EndSplineSet
EndChar

StartChar: Ucircumflex
Encoding: 219 219 224
Width: 1495
Flags: W
LayerCount: 2
Fore
SplineSet
364 1462 m 1,0,-1
 620 1731 l 1,1,-1
 872 1731 l 1,2,-1
 1126 1461 l 1,3,-1
 1050 1382 l 1,4,-1
 747 1551 l 1,5,-1
 441 1382 l 1,6,-1
 364 1462 l 1,0,-1
782 265 m 1,7,-1
 946 265 l 1,8,-1
 946 1327 l 1,9,-1
 1388 1327 l 1,10,-1
 1388 265 l 1,11,-1
 1123 0 l 1,12,-1
 782 0 l 1,13,-1
 782 265 l 1,7,-1
106 1327 m 1,14,-1
 549 1327 l 1,15,-1
 549 265 l 1,16,-1
 712 265 l 1,17,-1
 712 0 l 1,18,-1
 372 0 l 1,19,-1
 106 265 l 1,20,-1
 106 1327 l 1,14,-1
EndSplineSet
EndChar

StartChar: Udieresis
Encoding: 220 220 225
Width: 1495
Flags: W
LayerCount: 2
Fore
SplineSet
845 1681 m 1,0,-1
 1181 1681 l 1,1,-1
 1181 1460 l 1,2,-1
 845 1460 l 1,3,-1
 845 1681 l 1,0,-1
315 1681 m 1,4,-1
 651 1681 l 1,5,-1
 651 1460 l 1,6,-1
 315 1460 l 1,7,-1
 315 1681 l 1,4,-1
782 265 m 1,8,-1
 946 265 l 1,9,-1
 946 1327 l 1,10,-1
 1388 1327 l 1,11,-1
 1388 265 l 1,12,-1
 1123 0 l 1,13,-1
 782 0 l 1,14,-1
 782 265 l 1,8,-1
106 1327 m 1,15,-1
 549 1327 l 1,16,-1
 549 265 l 1,17,-1
 712 265 l 1,18,-1
 712 0 l 1,19,-1
 372 0 l 1,20,-1
 106 265 l 1,21,-1
 106 1327 l 1,15,-1
EndSplineSet
EndChar

StartChar: Yacute
Encoding: 221 221 226
Width: 1297
Flags: W
LayerCount: 2
Fore
SplineSet
488 1516 m 1,0,-1
 934 1766 l 1,1,-1
 1089 1688 l 1,2,-1
 1042 1519 l 1,3,-1
 539 1394 l 1,4,-1
 488 1516 l 1,0,-1
680 920 m 1,5,-1
 898 1327 l 1,6,-1
 1323 1327 l 1,7,-1
 895 484 l 1,8,-1
 680 920 l 1,5,-1
424 422 m 1,9,-1
 -26 1327 l 1,10,-1
 408 1327 l 1,11,-1
 867 391 l 1,12,-1
 867 0 l 1,13,-1
 424 0 l 1,14,-1
 424 422 l 1,9,-1
EndSplineSet
EndChar

StartChar: Eth
Encoding: 208 208 227
Width: 1496
Flags: W
LayerCount: 2
Fore
SplineSet
629 265 m 1,0,-1
 957 265 l 1,1,-1
 957 1062 l 1,2,-1
 629 1062 l 1,3,-1
 629 1327 l 1,4,-1
 1134 1327 l 1,5,-1
 1400 1062 l 1,6,-1
 1400 265 l 1,7,-1
 1134 0 l 1,8,-1
 629 0 l 1,9,-1
 629 265 l 1,0,-1
117 570 m 1,10,-1
 29 570 l 1,11,-1
 29 757 l 1,12,-1
 117 757 l 1,13,-1
 117 1327 l 1,14,-1
 559 1327 l 1,15,-1
 559 757 l 1,16,-1
 774 757 l 1,17,-1
 774 570 l 1,18,-1
 559 570 l 1,19,-1
 559 0 l 1,20,-1
 117 0 l 1,21,-1
 117 570 l 1,10,-1
EndSplineSet
EndChar

StartChar: Thorn
Encoding: 222 222 228
Width: 1464
Flags: W
LayerCount: 2
Fore
SplineSet
104 1327 m 1,0,-1
 537 1327 l 1,1,-1
 537 0 l 1,2,-1
 104 0 l 1,3,-1
 104 1327 l 1,0,-1
607 474 m 1,4,-1
 935 474 l 1,5,-1
 935 873 l 1,6,-1
 607 873 l 1,7,-1
 607 1138 l 1,8,-1
 1103 1138 l 1,9,-1
 1369 873 l 1,10,-1
 1369 474 l 1,11,-1
 1103 209 l 1,12,-1
 607 209 l 1,13,-1
 607 474 l 1,4,-1
EndSplineSet
EndChar

StartChar: foundryicon
Encoding: 65540 -1 229
Width: 1613
Flags: W
LayerCount: 2
Fore
SplineSet
274 890 m 1,0,-1
 576 1194 l 1,1,-1
 1035 1194 l 1,2,-1
 1339 890 l 1,3,-1
 1339 432 l 1,4,-1
 1035 130 l 1,5,-1
 576 130 l 1,6,-1
 274 432 l 1,7,-1
 274 890 l 1,0,-1
1035 429 m 1,8,-1
 1221 429 l 1,9,-1
 1221 540 l 1,10,-1
 1108 540 l 1,11,-1
 1108 986 l 1,12,-1
 924 922 l 1,13,-1
 924 874 l 1,14,-1
 885 874 l 1,15,-1
 885 763 l 1,16,-1
 924 763 l 1,17,-1
 924 540 l 1,18,-1
 1035 429 l 1,8,-1
1221 763 m 1,19,-1
 1221 874 l 1,20,-1
 1136 874 l 1,21,-1
 1136 763 l 1,22,-1
 1221 763 l 1,19,-1
677 596 m 1,23,-1
 677 429 l 1,24,-1
 757 429 l 1,25,-1
 863 532 l 1,26,-1
 863 613 l 1,27,-1
 772 706 l 1,28,-1
 566 706 l 1,29,-1
 566 874 l 1,30,-1
 483 874 l 1,31,-1
 380 770 l 1,32,-1
 380 689 l 1,33,-1
 474 596 l 1,34,-1
 677 596 l 1,23,-1
677 791 m 1,35,-1
 677 736 l 1,36,-1
 848 736 l 1,37,-1
 848 797 l 1,38,-1
 772 874 l 1,39,-1
 594 874 l 1,40,-1
 594 791 l 1,41,-1
 677 791 l 1,35,-1
651 429 m 1,42,-1
 651 511 l 1,43,-1
 566 511 l 1,44,-1
 566 566 l 1,45,-1
 380 566 l 1,46,-1
 380 520 l 1,47,-1
 473 429 l 1,48,-1
 651 429 l 1,42,-1
EndSplineSet
EndChar

StartChar: uni00AD
Encoding: 173 173 249
Width: 1077
Flags: W
LayerCount: 2
Fore
SplineSet
97 752 m 1,0,-1
 982 752 l 1,1,-1
 982 486 l 1,2,-1
 97 486 l 1,3,-1
 97 752 l 1,0,-1
EndSplineSet
EndChar

StartChar: ring
Encoding: 730 730 250
Width: 1145
Flags: W
LayerCount: 2
Fore
SplineSet
605 1356 m 1,0,-1
 683 1356 l 1,1,-1
 683 1527 l 1,2,-1
 605 1527 l 1,3,-1
 605 1682 l 1,4,-1
 702 1682 l 1,5,-1
 841 1545 l 1,6,-1
 841 1337 l 1,7,-1
 702 1200 l 1,8,-1
 605 1200 l 1,9,-1
 605 1356 l 1,0,-1
300 1337 m 1,10,-1
 300 1545 l 1,11,-1
 437 1682 l 1,12,-1
 536 1682 l 1,13,-1
 536 1527 l 1,14,-1
 459 1527 l 1,15,-1
 459 1356 l 1,16,-1
 536 1356 l 1,17,-1
 536 1200 l 1,18,-1
 437 1200 l 1,19,-1
 300 1337 l 1,10,-1
EndSplineSet
EndChar

StartChar: caron
Encoding: 711 711 251
Width: 1240
Flags: W
LayerCount: 2
Fore
SplineSet
173 1482 m 1,0,-1
 266 1579 l 1,1,-1
 619 1369 l 1,2,-1
 973 1579 l 1,3,-1
 1067 1482 l 1,4,-1
 772 1153 l 1,5,-1
 468 1153 l 1,6,-1
 173 1482 l 1,0,-1
EndSplineSet
EndChar

StartChar: dotaccentcmb
Encoding: 775 775 252
Width: 632
Flags: W
LayerCount: 2
Fore
SplineSet
95 1381 m 1,0,-1
 537 1381 l 1,1,-1
 537 1071 l 1,2,-1
 95 1071 l 1,3,-1
 95 1381 l 1,0,-1
EndSplineSet
EndChar

StartChar: commaaccent
Encoding: 65541 -1 253
Width: 936
Flags: W
LayerCount: 2
Fore
SplineSet
685 -86 m 1,0,-1
 685 -253 l 1,1,-1
 518 -446 l 1,2,-1
 340 -446 l 1,3,-1
 401 -288 l 1,4,-1
 243 -288 l 1,5,-1
 243 -86 l 1,6,-1
 685 -86 l 1,0,-1
EndSplineSet
EndChar

StartChar: grave.cap
Encoding: 65542 -1 254
Width: 783
Flags: W
LayerCount: 2
Fore
SplineSet
73 1519 m 1,0,-1
 26 1688 l 1,1,-1
 181 1766 l 1,2,-1
 627 1516 l 1,3,-1
 575 1394 l 1,4,-1
 73 1519 l 1,0,-1
EndSplineSet
EndChar

StartChar: b
Encoding: 98 98 255
Width: 1340
Flags: W
LayerCount: 2
Fore
SplineSet
104 1467 m 1,0,-1
 546 1467 l 1,1,-1
 546 0 l 1,2,-1
 104 0 l 1,3,-1
 104 1467 l 1,0,-1
616 248 m 1,4,-1
 814 248 l 1,5,-1
 814 797 l 1,6,-1
 616 797 l 1,7,-1
 616 931 l 1,8,-1
 746 1062 l 1,9,-1
 988 1062 l 1,10,-1
 1254 797 l 1,11,-1
 1254 265 l 1,12,-1
 988 0 l 1,13,-1
 616 0 l 1,14,-1
 616 248 l 1,4,-1
EndSplineSet
EndChar

StartChar: acute.cap
Encoding: 65543 -1 256
Width: 783
Flags: W
LayerCount: 2
Fore
SplineSet
156 1516 m 1,0,-1
 602 1766 l 1,1,-1
 757 1688 l 1,2,-1
 710 1519 l 1,3,-1
 207 1394 l 1,4,-1
 156 1516 l 1,0,-1
EndSplineSet
EndChar

StartChar: circumflex.cap
Encoding: 65544 -1 257
Width: 1240
Flags: W
LayerCount: 2
Fore
SplineSet
251 1462 m 1,0,-1
 507 1731 l 1,1,-1
 759 1731 l 1,2,-1
 1013 1461 l 1,3,-1
 937 1382 l 1,4,-1
 634 1551 l 1,5,-1
 328 1382 l 1,6,-1
 251 1462 l 1,0,-1
EndSplineSet
EndChar

StartChar: dieresis.cap
Encoding: 65545 -1 258
Width: 1414
Flags: W
LayerCount: 2
Fore
SplineSet
804 1681 m 1,0,-1
 1140 1681 l 1,1,-1
 1140 1460 l 1,2,-1
 804 1460 l 1,3,-1
 804 1681 l 1,0,-1
274 1681 m 1,4,-1
 610 1681 l 1,5,-1
 610 1460 l 1,6,-1
 274 1460 l 1,7,-1
 274 1681 l 1,4,-1
EndSplineSet
EndChar

StartChar: caron.cap
Encoding: 65546 -1 259
Width: 1240
Flags: W
LayerCount: 2
Fore
SplineSet
253 1653 m 1,0,-1
 330 1731 l 1,1,-1
 632 1563 l 1,2,-1
 938 1731 l 1,3,-1
 1016 1652 l 1,4,-1
 759 1382 l 1,5,-1
 507 1382 l 1,6,-1
 253 1653 l 1,0,-1
EndSplineSet
EndChar

StartChar: ring.cap
Encoding: 65547 -1 260
Width: 1491
Flags: W
LayerCount: 2
Fore
SplineSet
284 1381 m 1,0,-1
 284 1588 l 1,1,-1
 422 1725 l 1,2,-1
 537 1725 l 1,3,-1
 537 1570 l 1,4,-1
 461 1570 l 1,5,-1
 461 1364 l 1,6,-1
 684 1364 l 1,7,-1
 684 1570 l 1,8,-1
 607 1570 l 1,9,-1
 607 1725 l 1,10,-1
 721 1725 l 1,11,-1
 860 1588 l 1,12,-1
 860 1381 l 1,13,-1
 721 1243 l 1,14,-1
 422 1243 l 1,15,-1
 284 1381 l 1,0,-1
EndSplineSet
EndChar

StartChar: tilde.cap
Encoding: 65548 -1 261
Width: 1309
Flags: W
LayerCount: 2
Fore
SplineSet
226 1512 m 1,0,-1
 433 1726 l 1,1,-1
 638 1726 l 1,2,-1
 798 1609 l 1,3,-1
 839 1609 l 1,4,-1
 1020 1716 l 1,5,-1
 1084 1638 l 1,6,-1
 877 1424 l 1,7,-1
 672 1424 l 1,8,-1
 512 1540 l 1,9,-1
 471 1540 l 1,10,-1
 290 1434 l 1,11,-1
 226 1512 l 1,0,-1
EndSplineSet
EndChar

StartChar: Ydieresis
Encoding: 376 376 262
Width: 1297
Flags: W
LayerCount: 2
Fore
SplineSet
745 1741 m 1,0,-1
 1081 1741 l 1,1,-1
 1081 1460 l 1,2,-1
 745 1460 l 1,3,-1
 745 1741 l 1,0,-1
215 1741 m 1,4,-1
 551 1741 l 1,5,-1
 551 1460 l 1,6,-1
 215 1460 l 1,7,-1
 215 1741 l 1,4,-1
680 920 m 1,8,-1
 898 1327 l 1,9,-1
 1323 1327 l 1,10,-1
 895 484 l 1,11,-1
 680 920 l 1,8,-1
424 422 m 1,12,-1
 -26 1327 l 1,13,-1
 408 1327 l 1,14,-1
 867 391 l 1,15,-1
 867 0 l 1,16,-1
 424 0 l 1,17,-1
 424 422 l 1,12,-1
EndSplineSet
EndChar

StartChar: dotlessj
Encoding: 567 567 263
Width: 653
Flags: W
LayerCount: 2
Fore
SplineSet
105 -88 m 1,0,-1
 105 1062 l 1,1,-1
 548 1062 l 1,2,-1
 548 -88 l 1,3,-1
 282 -354 l 1,4,-1
 -100 -354 l 1,5,-1
 -100 -88 l 1,6,-1
 105 -88 l 1,0,-1
EndSplineSet
EndChar

StartChar: dotaccentcmb.cap
Encoding: 65549 -1 264
Width: 632
Flags: W
LayerCount: 2
Fore
SplineSet
95 1766 m 1,0,-1
 537 1766 l 1,1,-1
 537 1456 l 1,2,-1
 95 1456 l 1,3,-1
 95 1766 l 1,0,-1
EndSplineSet
EndChar

StartChar: dagger
Encoding: 8224 8224 265
Width: 1507
Flags: W
LayerCount: 2
Fore
SplineSet
657 822 m 1,0,-1
 295 761 l 1,1,-1
 161 923 l 1,2,-1
 295 1084 l 1,3,-1
 660 1020 l 1,4,-1
 592 1416 l 1,5,-1
 753 1551 l 1,6,-1
 915 1416 l 1,7,-1
 847 1020 l 1,8,-1
 1211 1083 l 1,9,-1
 1346 921 l 1,10,-1
 1211 759 l 1,11,-1
 849 821 l 1,12,-1
 948 431 l 1,13,-1
 950 430 l 1,14,-1
 799 -315 l 1,15,-1
 708 -315 l 1,16,-1
 557 429 l 1,17,-1
 556 429 l 1,18,-1
 657 822 l 1,0,-1
EndSplineSet
EndChar

StartChar: lozenge
Encoding: 9674 9674 266
Width: 1226
Flags: W
LayerCount: 2
Fore
SplineSet
789 659 m 1,0,-1
 492 1268 l 1,1,-1
 726 1268 l 1,2,-1
 1050 658 l 1,3,-1
 767 125 l 1,4,-1
 649 368 l 1,5,-1
 789 659 l 1,0,-1
175 658 m 1,6,-1
 458 1191 l 1,7,-1
 576 948 l 1,8,-1
 436 657 l 1,9,-1
 733 48 l 1,10,-1
 499 48 l 1,11,-1
 175 658 l 1,6,-1
EndSplineSet
EndChar

StartChar: fraction
Encoding: 8260 8260 267
Width: 729
Flags: W
LayerCount: 2
Fore
SplineSet
480 1327 m 1,0,-1
 729 1327 l 1,1,-1
 250 0 l 1,2,-1
 0 0 l 1,3,-1
 480 1327 l 1,0,-1
EndSplineSet
EndChar

StartChar: perthousand
Encoding: 8240 8240 268
Width: 3052
Flags: W
LayerCount: 2
Fore
SplineSet
1348 1418 m 1,0,-1
 1598 1418 l 1,1,-1
 985 -196 l 1,2,-1
 735 -196 l 1,3,-1
 1348 1418 l 1,0,-1
631 783 m 1,4,-1
 696 783 l 1,5,-1
 696 1129 l 1,6,-1
 631 1129 l 1,7,-1
 631 1329 l 1,8,-1
 829 1329 l 1,9,-1
 1029 1129 l 1,10,-1
 1029 783 l 1,11,-1
 829 582 l 1,12,-1
 631 582 l 1,13,-1
 631 783 l 1,4,-1
164 783 m 1,14,-1
 164 1129 l 1,15,-1
 364 1329 l 1,16,-1
 561 1329 l 1,17,-1
 561 1129 l 1,18,-1
 497 1129 l 1,19,-1
 497 783 l 1,20,-1
 561 783 l 1,21,-1
 561 582 l 1,22,-1
 364 582 l 1,23,-1
 164 783 l 1,14,-1
2489 200 m 1,24,-1
 2555 200 l 1,25,-1
 2555 547 l 1,26,-1
 2489 547 l 1,27,-1
 2489 746 l 1,28,-1
 2688 746 l 1,29,-1
 2887 547 l 1,30,-1
 2887 200 l 1,31,-1
 2688 0 l 1,32,-1
 2489 0 l 1,33,-1
 2489 200 l 1,24,-1
1829 200 m 1,34,-1
 1895 200 l 1,35,-1
 1895 547 l 1,36,-1
 1829 547 l 1,37,-1
 1829 746 l 1,38,-1
 2028 746 l 1,39,-1
 2125 649 l 1,40,-1
 2222 746 l 1,41,-1
 2419 746 l 1,42,-1
 2419 547 l 1,43,-1
 2355 547 l 1,44,-1
 2355 200 l 1,45,-1
 2419 200 l 1,46,-1
 2419 0 l 1,47,-1
 2222 0 l 1,48,-1
 2125 97 l 1,49,-1
 2028 0 l 1,50,-1
 1829 0 l 1,51,-1
 1829 200 l 1,34,-1
1363 547 m 1,52,-1
 1562 746 l 1,53,-1
 1759 746 l 1,54,-1
 1759 547 l 1,55,-1
 1695 547 l 1,56,-1
 1695 200 l 1,57,-1
 1759 200 l 1,58,-1
 1759 0 l 1,59,-1
 1562 0 l 1,60,-1
 1363 200 l 1,61,-1
 1363 547 l 1,52,-1
EndSplineSet
EndChar

StartChar: trademark
Encoding: 8482 8482 269
Width: 1507
Flags: W
LayerCount: 2
Fore
SplineSet
1174 1328 m 1,0,-1
 1370 1328 l 1,1,-1
 1370 738 l 1,2,-1
 1174 738 l 1,3,-1
 1174 1328 l 1,0,-1
651 1328 m 1,4,-1
 859 1328 l 1,5,-1
 1019 1064 l 1,6,-1
 1107 1216 l 1,7,-1
 1107 919 l 1,8,-1
 1000 738 l 1,9,-1
 651 1328 l 1,4,-1
98 1328 m 1,10,-1
 572 1328 l 1,11,-1
 660 1182 l 1,12,-1
 98 1182 l 1,13,-1
 98 1328 l 1,10,-1
651 1121 m 1,14,-1
 696 1121 l 1,15,-1
 835 894 l 1,16,-1
 835 738 l 1,17,-1
 651 738 l 1,18,-1
 651 1121 l 1,14,-1
273 1121 m 1,19,-1
 477 1121 l 1,20,-1
 477 738 l 1,21,-1
 273 738 l 1,22,-1
 273 1121 l 1,19,-1
EndSplineSet
EndChar

StartChar: daggerdbl
Encoding: 8225 8225 270
Width: 1507
Flags: W
LayerCount: 2
Fore
SplineSet
161 314 m 1,0,-1
 295 476 l 1,1,-1
 658 414 l 1,2,-1
 557 614 l 1,3,-1
 654 820 l 1,4,-1
 295 760 l 1,5,-1
 161 922 l 1,6,-1
 295 1083 l 1,7,-1
 660 1020 l 1,8,-1
 592 1415 l 1,9,-1
 753 1550 l 1,10,-1
 915 1415 l 1,11,-1
 847 1020 l 1,12,-1
 1211 1082 l 1,13,-1
 1346 920 l 1,14,-1
 1211 759 l 1,15,-1
 854 820 l 1,16,-1
 952 615 l 1,17,-1
 852 414 l 1,18,-1
 1211 474 l 1,19,-1
 1346 313 l 1,20,-1
 1211 151 l 1,21,-1
 847 215 l 1,22,-1
 915 -181 l 1,23,-1
 753 -315 l 1,24,-1
 592 -181 l 1,25,-1
 660 215 l 1,26,-1
 295 153 l 1,27,-1
 161 314 l 1,0,-1
EndSplineSet
EndChar

StartChar: apple
Encoding: 65550 -1 271
Width: 1613
Flags: W
LayerCount: 2
Fore
SplineSet
274 890 m 1,0,-1
 576 1194 l 1,1,-1
 1035 1194 l 1,2,-1
 1339 890 l 1,3,-1
 1339 432 l 1,4,-1
 1035 130 l 1,5,-1
 576 130 l 1,6,-1
 274 432 l 1,7,-1
 274 890 l 1,0,-1
1035 429 m 1,8,-1
 1221 429 l 1,9,-1
 1221 540 l 1,10,-1
 1108 540 l 1,11,-1
 1108 986 l 1,12,-1
 924 922 l 1,13,-1
 924 874 l 1,14,-1
 885 874 l 1,15,-1
 885 763 l 1,16,-1
 924 763 l 1,17,-1
 924 540 l 1,18,-1
 1035 429 l 1,8,-1
1221 763 m 1,19,-1
 1221 874 l 1,20,-1
 1136 874 l 1,21,-1
 1136 763 l 1,22,-1
 1221 763 l 1,19,-1
677 596 m 1,23,-1
 677 429 l 1,24,-1
 757 429 l 1,25,-1
 863 532 l 1,26,-1
 863 613 l 1,27,-1
 772 706 l 1,28,-1
 566 706 l 1,29,-1
 566 874 l 1,30,-1
 483 874 l 1,31,-1
 380 770 l 1,32,-1
 380 689 l 1,33,-1
 474 596 l 1,34,-1
 677 596 l 1,23,-1
677 791 m 1,35,-1
 677 736 l 1,36,-1
 848 736 l 1,37,-1
 848 797 l 1,38,-1
 772 874 l 1,39,-1
 594 874 l 1,40,-1
 594 791 l 1,41,-1
 677 791 l 1,35,-1
651 429 m 1,42,-1
 651 511 l 1,43,-1
 566 511 l 1,44,-1
 566 566 l 1,45,-1
 380 566 l 1,46,-1
 380 520 l 1,47,-1
 473 429 l 1,48,-1
 651 429 l 1,42,-1
EndSplineSet
EndChar

StartChar: ellipsis
Encoding: 8230 8230 272
Width: 2208
Flags: W
LayerCount: 2
Fore
SplineSet
1619 309 m 1,0,-1
 2062 309 l 1,1,-1
 2062 0 l 1,2,-1
 1619 0 l 1,3,-1
 1619 309 l 1,0,-1
883 309 m 1,4,-1
 1325 309 l 1,5,-1
 1325 0 l 1,6,-1
 883 0 l 1,7,-1
 883 309 l 1,4,-1
147 309 m 1,8,-1
 589 309 l 1,9,-1
 589 0 l 1,10,-1
 147 0 l 1,11,-1
 147 309 l 1,8,-1
EndSplineSet
EndChar

StartChar: fl
Encoding: 64258 64258 273
Width: 1660
Flags: W
LayerCount: 2
Fore
SplineSet
143 797 m 1,0,-1
 38 797 l 1,1,-1
 38 1062 l 1,2,-1
 143 1062 l 1,3,-1
 143 1219 l 1,4,-1
 410 1467 l 1,5,-1
 1455 1467 l 1,6,-1
 1455 1202 l 1,7,-1
 1453 1202 l 1,8,-1
 1453 265 l 1,9,-1
 1651 265 l 1,10,-1
 1651 0 l 1,11,-1
 1259 0 l 1,12,-1
 1011 248 l 1,13,-1
 1011 1202 l 1,14,-1
 586 1202 l 1,15,-1
 586 0 l 1,16,-1
 143 0 l 1,17,-1
 143 797 l 1,0,-1
656 1062 m 1,18,-1
 906 1062 l 1,19,-1
 906 797 l 1,20,-1
 653 797 l 1,21,-1
 656 1062 l 1,18,-1
EndSplineSet
EndChar

StartChar: fi
Encoding: 64257 64257 274
Width: 1560
Flags: W
LayerCount: 2
Fore
SplineSet
1012 1476 m 1,0,-1
 1455 1476 l 1,1,-1
 1455 1194 l 1,2,-1
 1012 1194 l 1,3,-1
 1012 1476 l 1,0,-1
143 797 m 1,4,-1
 38 797 l 1,5,-1
 38 1062 l 1,6,-1
 143 1062 l 1,7,-1
 143 1219 l 1,8,-1
 410 1467 l 1,9,-1
 906 1467 l 1,10,-1
 906 1202 l 1,11,-1
 586 1202 l 1,12,-1
 586 0 l 1,13,-1
 143 0 l 1,14,-1
 143 797 l 1,4,-1
1012 797 m 1,15,-1
 653 797 l 1,16,-1
 656 1062 l 1,17,-1
 1455 1062 l 1,18,-1
 1455 0 l 1,19,-1
 1012 0 l 1,20,-1
 1012 797 l 1,15,-1
EndSplineSet
EndChar
